<?xml version="1.0" encoding="UTF-8" standalone="no"?>
<!DOCTYPE svg PUBLIC "-//W3C//DTD SVG 1.1//EN" "http://www.w3.org/Graphics/SVG/1.1/DTD/svg11.dtd">
<svg width="100%" height="100%" viewBox="0 0 257 379" version="1.1" xmlns="http://www.w3.org/2000/svg" xmlns:xlink="http://www.w3.org/1999/xlink" xml:space="preserve" xmlns:serif="http://www.serif.com/" style="fill-rule:evenodd;clip-rule:evenodd;stroke-linecap:round;stroke-linejoin:round;stroke-miterlimit:10;">
    <g id="text-group">
        <g>
            <g transform="matrix(2.66667,0,0,2.66667,174.044,376.258)">
                <path d="M0,-35.124C-0.25,-35.16 -0.661,-34.916 -0.916,-34.847C-1.161,-34.78 -1.413,-34.745 -1.646,-34.651C-2.228,-34.418 -2.818,-34.25 -3.408,-34.05C-3.691,-33.954 -3.942,-33.886 -4.233,-33.813C-4.489,-33.75 -4.724,-33.592 -4.963,-33.472C-5.638,-33.131 -6.335,-32.935 -6.977,-32.528C-7.479,-32.209 -8.19,-32.017 -8.603,-31.583C-8.899,-31.271 -8.853,-30.911 -9.064,-30.563C-9.248,-30.264 -9.307,-30.035 -9.37,-29.678C-9.498,-28.948 -9.892,-28.315 -10.092,-27.604C-10.161,-27.358 -10.184,-27.084 -10.229,-26.831C-10.316,-26.339 -10.514,-25.905 -10.601,-25.413C-10.653,-25.112 -10.714,-24.894 -10.832,-24.625C-10.971,-24.311 -10.933,-23.951 -11.035,-23.628C-11.125,-23.342 -11.25,-23.113 -11.302,-22.812C-11.37,-22.422 -11.435,-22.033 -11.487,-21.644C-11.513,-21.447 -11.536,-21.178 -11.718,-21.068C-11.967,-20.919 -12.417,-21.146 -12.683,-21.175C-12.995,-21.208 -13.311,-21.135 -13.619,-21.119C-14.057,-21.097 -14.503,-21.137 -14.94,-21.113C-15.63,-21.077 -16.312,-20.84 -16.871,-20.465C-17.396,-20.112 -17.683,-18.932 -17.347,-18.369C-17.133,-18.012 -16.695,-17.863 -16.384,-17.614C-16.074,-17.365 -15.879,-17.121 -15.503,-16.968C-15.197,-16.844 -15.068,-16.844 -14.742,-16.836C-14.262,-16.824 -13.803,-16.656 -13.324,-16.621C-12.787,-16.582 -12.271,-16.726 -11.749,-16.644C-11.512,-16.606 -11.303,-16.656 -11.07,-16.64C-10.87,-16.625 -10.662,-16.559 -10.463,-16.521C-9.991,-16.436 -9.519,-16.348 -9.046,-16.261C-7.991,-16.067 -6.882,-15.732 -5.809,-15.808C-5.521,-15.828 -5.239,-15.888 -4.959,-15.847C-4.446,-15.772 -3.924,-15.679 -3.405,-15.694C-3.029,-15.705 -2.668,-15.757 -2.291,-15.69C-2.012,-15.641 -1.374,-15.635 -1.165,-15.452C-1.215,-15.158 -1.476,-14.938 -1.7,-14.769C-2.051,-14.505 -2.418,-14.237 -2.798,-14.018C-3.418,-13.659 -4.071,-13.343 -4.656,-12.93C-5.182,-12.559 -5.744,-12.353 -6.337,-12.103C-6.814,-11.901 -7.247,-11.674 -7.75,-11.551C-8.035,-11.481 -8.288,-11.338 -8.569,-11.261C-8.851,-11.185 -9.123,-11.176 -9.394,-11.057C-9.725,-10.912 -10.032,-10.853 -10.383,-10.765C-10.755,-10.669 -11.11,-10.522 -11.485,-10.433C-12.601,-10.165 -13.749,-9.99 -14.851,-9.674C-15.142,-9.59 -15.363,-9.414 -15.631,-9.287C-15.798,-9.208 -15.97,-9.184 -16.135,-9.083C-16.763,-8.704 -17.17,-7.919 -17.305,-7.221C-17.479,-6.318 -16.997,-5.81 -16.123,-5.611C-14.975,-5.351 -13.815,-5.359 -12.672,-5.669C-12.156,-5.809 -11.609,-5.895 -11.08,-5.996C-10.845,-6.041 -10.596,-6.027 -10.366,-6.086C-9.936,-6.195 -9.49,-6.54 -9.134,-6.783C-8.529,-7.195 -7.708,-7.236 -7.004,-7.36C-6.354,-7.476 -5.777,-7.832 -5.202,-8.133C-4.594,-8.45 -3.894,-8.633 -3.271,-8.939C-2.555,-9.292 -1.798,-9.667 -1.037,-9.911C-0.441,-10.103 0.244,-10.353 0.779,-10.685C1.039,-10.846 1.315,-11.038 1.543,-11.241C1.78,-11.453 2.052,-11.732 2.39,-11.766C2.407,-11.434 2.255,-11.005 2.195,-10.681C2.13,-10.325 2.101,-9.95 1.977,-9.609C1.816,-9.172 1.612,-8.78 1.535,-8.318C1.472,-7.943 1.367,-7.643 1.237,-7.291C1.099,-6.916 0.998,-6.593 0.928,-6.198C0.877,-5.914 0.734,-5.679 0.661,-5.407C0.554,-5.012 0.503,-4.742 0.255,-4.386C0.085,-4.141 -0.142,-3.889 -0.412,-3.734C-1.038,-3.379 -1.783,-3.575 -2.319,-3.011C-2.875,-2.425 -3.129,-1.704 -2.893,-0.93C-2.714,-0.344 -2.376,-0.161 -1.789,-0.085C-1.435,-0.04 -1.094,-0.078 -0.732,-0.008C-0.291,0.079 0.153,0.154 0.595,0.239C1.126,0.34 1.654,0.319 2.192,0.291C2.871,0.254 3.755,0.085 4.388,-0.192C5.114,-0.512 5.678,-1.3 5.987,-2.004C6.151,-2.377 6.277,-2.753 6.407,-3.138C6.579,-3.642 6.851,-4.072 6.987,-4.589C7.079,-4.938 7.208,-5.269 7.313,-5.617C7.445,-6.056 7.566,-6.496 7.724,-6.924C7.874,-7.331 8.034,-7.814 8.108,-8.244C8.178,-8.641 8.212,-9.077 8.354,-9.456C8.602,-10.115 8.683,-10.808 8.816,-11.499C8.879,-11.825 8.849,-12.078 8.866,-12.402C8.89,-12.843 9.122,-13.241 9.139,-13.685C9.152,-14.059 9.175,-14.17 9.58,-14.202C10.241,-14.256 10.826,-14.107 11.479,-14.067C12.415,-14.012 13.522,-14.196 14.124,-14.974C14.749,-15.78 14.863,-16.946 13.752,-17.345C13.307,-17.504 12.803,-17.669 12.325,-17.661C12.115,-17.658 11.905,-17.607 11.694,-17.639C11.517,-17.666 11.366,-17.728 11.181,-17.721C11.341,-18.115 11.781,-18.374 12.078,-18.662C12.496,-19.068 12.932,-19.445 13.293,-19.902C13.763,-20.497 14.265,-21.084 14.61,-21.764C14.875,-22.286 15.52,-23.217 15.252,-23.844C15.095,-24.211 14.622,-24.587 14.263,-24.728C13.808,-24.907 13.123,-24.772 12.739,-24.475C12.483,-24.275 12.198,-24.139 11.95,-23.934C11.523,-23.58 11.144,-23.185 10.729,-22.818C10.488,-22.605 10.225,-22.44 9.975,-22.24C9.527,-21.884 9.104,-21.476 8.615,-21.173C8.306,-20.981 7.973,-20.811 7.654,-20.636C7.398,-20.495 7.127,-20.277 6.858,-20.173C6.776,-20.547 7.146,-21.081 7.294,-21.413C7.547,-21.978 7.683,-22.589 7.945,-23.15C8.035,-23.343 8.17,-23.525 8.254,-23.719C8.358,-23.962 8.366,-24.233 8.415,-24.489C8.46,-24.724 8.541,-24.921 8.627,-25.141C8.744,-25.443 8.715,-25.681 8.678,-25.995C8.607,-26.608 8.691,-27.389 8.401,-27.96C8.136,-28.482 7.757,-29.135 7.232,-29.434C6.97,-29.583 6.544,-29.613 6.248,-29.68C5.717,-29.797 5.184,-29.91 4.653,-30.031C3.726,-30.243 2.86,-30.254 1.91,-30.265C0.857,-30.277 -0.195,-29.979 -1.207,-30.38C-1.639,-30.55 -1.705,-30.805 -1.25,-31.054C-0.495,-31.469 0.427,-31.621 1.219,-31.955C1.99,-32.279 3.493,-32.925 2.922,-34.028C2.441,-34.955 1.238,-35.464 0.372,-34.721" style="fill:rgb(235,99,100);fill-rule:nonzero;stroke:rgb(1,1,2);stroke-width:1px;"/>
            </g>
            <g transform="matrix(-0.952898,2.4906,2.4906,0.952898,175.58,301.027)">
                <path d="M1.725,-2.086C1.856,-1.947 1.824,-1.483 1.804,-1.294C1.772,-0.984 1.723,-0.724 1.725,-0.413C1.728,0.062 1.599,0.75 1.359,1.158C1.396,1.14 1.432,1.121 1.468,1.101" style="fill:rgb(235,99,100);fill-rule:nonzero;stroke:rgb(1,1,2);stroke-width:1px;"/>
            </g>
            <g transform="matrix(2.66667,0,0,2.66667,164.114,314.625)">
                <path d="M0,-0.871C0.61,-0.76 1.147,-0.555 1.761,-0.435C2.283,-0.335 3.231,-0.557 3.521,0" style="fill:rgb(235,99,100);fill-rule:nonzero;stroke:rgb(1,1,2);stroke-width:1px;"/>
            </g>
            <g transform="matrix(2.66667,0,0,2.66667,163.471,321.765)">
                <path d="M0,-1.027C0.08,-0.858 0.192,-0.906 0.329,-0.859C0.475,-0.808 0.572,-0.72 0.712,-0.668C1.006,-0.555 1.382,-0.549 1.692,-0.493C1.935,-0.448 2.214,-0.435 2.438,-0.331C2.525,-0.29 2.593,-0.229 2.688,-0.195C2.867,-0.129 3.027,-0.187 3.158,0" style="fill:rgb(235,99,100);fill-rule:nonzero;stroke:rgb(1,1,2);stroke-width:1px;"/>
            </g>
        </g>
        <g>
            <g transform="matrix(2.66667,0,0,2.66667,168.565,193.685)">
                <path d="M0,-16.125C-0.198,-15.988 -0.52,-15.937 -0.747,-15.821C-1.065,-15.659 -1.391,-15.5 -1.701,-15.321C-2.25,-15.004 -2.799,-14.716 -3.353,-14.405C-3.829,-14.138 -4.264,-13.697 -4.689,-13.353C-4.918,-13.167 -5.185,-13.047 -5.403,-12.855C-5.601,-12.683 -5.782,-12.433 -5.937,-12.222C-6.203,-11.857 -6.357,-11.512 -6.525,-11.105C-6.653,-10.799 -6.762,-10.67 -6.623,-10.319C-6.5,-10.004 -6.504,-9.792 -6.211,-9.611C-5.738,-9.32 -5.273,-8.988 -4.791,-8.718C-4.378,-8.486 -3.905,-8.5 -3.481,-8.27C-3.459,-8.064 -3.843,-7.951 -3.96,-7.82C-4.095,-7.671 -4.187,-7.521 -4.341,-7.376C-4.776,-6.966 -5.164,-6.584 -5.666,-6.249C-5.897,-6.095 -6.074,-5.939 -6.261,-5.729C-6.498,-5.462 -6.825,-5.326 -7.059,-5.048C-7.306,-4.753 -7.569,-4.474 -7.821,-4.182C-8.045,-3.924 -8.351,-3.71 -8.528,-3.42C-8.647,-3.224 -8.692,-3.056 -8.84,-2.869C-8.956,-2.722 -9.051,-2.583 -9.135,-2.413C-9.401,-1.874 -9.42,-1.36 -9.053,-0.843C-8.92,-0.654 -8.887,-0.706 -8.688,-0.71C-8.447,-0.715 -8.242,-0.685 -8.003,-0.64C-7.828,-0.606 -7.62,-0.536 -7.442,-0.532C-7.227,-0.526 -7.002,-0.604 -6.783,-0.614C-6.33,-0.634 -5.93,-0.577 -5.486,-0.508C-4.923,-0.419 -4.331,-0.554 -3.76,-0.519C-3.554,-0.506 -3.355,-0.451 -3.153,-0.415C-2.822,-0.354 -2.535,-0.408 -2.214,-0.392C-2.007,-0.382 -1.822,-0.301 -1.622,-0.233C-1.477,-0.184 -1.329,-0.114 -1.182,-0.074C-0.942,-0.008 -0.934,-0.084 -0.729,-0.089C-0.505,-0.094 -0.29,0 -0.055,-0.013C0.101,-0.021 0.259,-0.064 0.412,-0.071C0.648,-0.081 0.848,-0.021 1.084,-0.053C1.305,-0.083 1.537,-0.099 1.753,-0.155C1.926,-0.2 2.026,-0.23 2.204,-0.211C2.497,-0.181 2.532,-0.24 2.749,-0.445C3.096,-0.772 3.347,-1.064 3.456,-1.543C3.708,-2.653 3.183,-3.756 2.111,-4.194C1.667,-4.376 0.994,-4.524 0.512,-4.518C0.259,-4.514 -0.029,-4.474 -0.281,-4.437C-0.549,-4.399 -1.028,-4.176 -1.273,-4.225C-1.001,-4.701 -0.434,-5.032 -0.067,-5.433C0.36,-5.901 0.92,-6.234 1.358,-6.696C2.063,-7.438 2.903,-8.056 3.66,-8.733C3.813,-8.868 3.98,-8.967 4.146,-9.084C4.339,-9.219 4.433,-9.36 4.583,-9.536C4.729,-9.707 4.949,-9.78 5.094,-9.944C5.229,-10.097 5.312,-10.34 5.409,-10.522C5.778,-11.206 6.564,-12.455 5.562,-12.956C5.146,-13.163 4.921,-13.204 4.483,-13.068C4.044,-12.933 3.607,-12.766 3.225,-12.51C2.745,-12.188 2.282,-11.848 1.81,-11.524C1.239,-11.133 0.635,-10.785 0.117,-10.316C-0.015,-10.198 -0.183,-9.977 -0.373,-9.955C-0.582,-9.931 -0.72,-10.122 -0.863,-10.232C-1.152,-10.453 -1.457,-10.657 -1.749,-10.868C-1.875,-10.958 -2.045,-11.044 -2.085,-11.213C-2.154,-11.508 -1.804,-11.607 -1.585,-11.734C-1.184,-11.966 -0.851,-12.31 -0.509,-12.618C-0.062,-13.021 0.346,-13.409 0.83,-13.771C1.103,-13.974 1.431,-14.384 1.532,-14.705C1.636,-15.032 1.551,-15.457 1.289,-15.675C0.852,-16.041 0.272,-15.934 -0.187,-15.713" style="fill:rgb(235,99,100);fill-rule:nonzero;stroke:rgb(1,1,2);stroke-width:1px;"/>
            </g>
            <g transform="matrix(2.66667,0,0,2.66667,150.333,205.357)">
                <path d="M0,-3.352C-0.316,-3.411 -1.005,-3.019 -1.203,-2.789C-1.421,-2.535 -1.568,-2.172 -1.721,-1.88C-1.895,-1.547 -2.036,-1.204 -1.894,-0.822C-1.831,-0.656 -1.76,-0.627 -1.639,-0.505C-1.518,-0.382 -1.442,-0.127 -1.281,-0.058C-1.014,0.059 -0.338,-0.347 -0.103,-0.472C0.292,-0.681 0.557,-1.154 0.808,-1.524C1.002,-1.812 1.286,-2.108 1.296,-2.472C1.302,-2.676 1.223,-2.953 1.076,-3.108C0.856,-3.341 0.684,-3.274 0.412,-3.165" style="fill:rgb(235,99,100);fill-rule:nonzero;stroke:rgb(1,1,2);stroke-width:1px;"/>
            </g>
            <g transform="matrix(2.66667,0,0,2.66667,161.216,206.488)">
                <path d="M0,-2.914C-0.265,-3.395 -0.86,-2.662 -0.985,-2.435C-1.17,-2.102 -1.432,-1.887 -1.593,-1.534C-1.728,-1.237 -1.891,-0.934 -1.988,-0.627C-2.078,-0.345 -1.988,0.172 -1.712,0.329C-1.446,0.481 -0.867,0.125 -0.648,-0.016C-0.249,-0.273 -0.025,-0.522 0.214,-0.915C0.551,-1.469 1.298,-2.72 0.235,-2.982" style="fill:rgb(235,99,100);fill-rule:nonzero;stroke:rgb(1,1,2);stroke-width:1px;"/>
            </g>
            <g transform="matrix(2.66667,0,0,2.66667,169.849,207.53)">
                <path d="M0,-2.709C-0.253,-2.535 -0.572,-2.38 -0.729,-2.108C-0.878,-1.849 -0.997,-1.577 -1.15,-1.313C-1.309,-1.043 -1.362,-0.801 -1.415,-0.491C-1.471,-0.159 -1.42,-0.022 -1.062,0.001C-0.333,0.048 0.276,-0.533 0.632,-1.117C0.791,-1.378 0.842,-1.688 0.877,-1.992C0.902,-2.223 0.909,-2.36 0.705,-2.522C0.586,-2.616 0.42,-2.606 0.343,-2.757" style="fill:rgb(235,99,100);fill-rule:nonzero;stroke:rgb(1,1,2);stroke-width:1px;"/>
            </g>
            <g transform="matrix(2.66667,0,0,2.66667,206.664,170.26)">
                <path d="M0,-6.162C-0.247,-6.511 -0.78,-5.888 -0.902,-5.683C-1.058,-5.424 -1.144,-5.058 -1.144,-4.755C-1.144,-4.478 -1.068,-4.105 -0.99,-3.838C-0.876,-3.45 -0.656,-3.091 -0.56,-2.706C-0.919,-2.671 -1.291,-2.85 -1.67,-2.818C-2.122,-2.78 -2.626,-2.742 -3.069,-2.819C-3.281,-2.856 -3.373,-2.894 -3.566,-2.849C-3.73,-2.81 -3.901,-2.717 -4.073,-2.672C-4.506,-2.557 -4.86,-2.26 -4.817,-1.749C-4.777,-1.274 -4.415,-0.896 -3.985,-0.757C-3.774,-0.688 -3.543,-0.589 -3.331,-0.533C-3.132,-0.48 -2.922,-0.558 -2.71,-0.529C-2.522,-0.503 -2.338,-0.434 -2.148,-0.415C-1.958,-0.397 -1.773,-0.447 -1.584,-0.435C-1.123,-0.405 -0.673,-0.208 -0.211,-0.186C0.589,-0.146 1.367,-0.109 2.16,0.037C2.355,0.073 2.569,0.142 2.769,0.154C2.958,0.167 3.124,0.11 3.314,0.133C3.698,0.18 4.073,0.349 4.462,0.233C4.708,0.159 4.767,0.019 4.935,-0.122C5.106,-0.268 5.348,-0.321 5.486,-0.512C5.663,-0.757 5.626,-1.222 5.508,-1.497C5.202,-2.216 4.07,-2.279 3.417,-2.407C3.143,-2.461 2.859,-2.541 2.609,-2.669C2.565,-2.692 2.479,-2.75 2.437,-2.762C2.408,-2.769 2.161,-2.792 2.165,-2.79C2.045,-2.853 1.93,-3.263 1.885,-3.386C1.812,-3.585 1.823,-3.795 1.768,-3.997C1.71,-4.205 1.595,-4.387 1.553,-4.6C1.5,-4.869 1.499,-5.115 1.363,-5.362C1.142,-5.769 0.521,-5.959 0.088,-6.034" style="fill:rgb(235,99,100);fill-rule:nonzero;stroke:rgb(1,1,2);stroke-width:1px;"/>
            </g>
            <g transform="matrix(2.66667,0,0,2.66667,201.542,181.1)">
                <path d="M0,-2.213C-0.155,-2.542 -0.635,-2.367 -0.889,-2.37C-1.177,-2.373 -1.497,-2.498 -1.776,-2.321C-1.97,-2.2 -2.222,-1.739 -2.256,-1.519C-2.303,-1.21 -2.171,-0.911 -1.988,-0.683C-1.621,-0.223 -1.43,-0.275 -0.857,-0.24C-0.474,-0.217 -0.142,-0.233 0.244,-0.159C0.364,-0.136 0.492,-0.125 0.61,-0.095C0.771,-0.055 0.909,0.056 1.064,0.083C1.437,0.151 1.875,0.128 2.255,0.068C2.933,-0.039 3.716,0.329 4.321,-0.192C5.013,-0.784 4.37,-1.389 3.816,-1.736C3.533,-1.914 3.189,-1.992 2.857,-2.025C2.726,-2.037 2.636,-2.006 2.51,-1.999C2.224,-1.982 1.962,-2.114 1.676,-2.106C1.524,-2.101 1.323,-1.984 1.184,-2.011C1.053,-2.037 0.987,-2.123 0.859,-2.172C0.578,-2.282 0.209,-2.308 -0.021,-2.105" style="fill:rgb(235,99,100);fill-rule:nonzero;stroke:rgb(1,1,2);stroke-width:1px;"/>
            </g>
            <g transform="matrix(2.66667,0,0,2.66667,199.188,192.122)">
                <path d="M0,-2.158C-0.502,-2.25 -1.122,-2.414 -1.576,-2.094C-2.011,-1.787 -2.142,-0.883 -1.764,-0.497C-1.477,-0.204 -1.034,-0.269 -0.67,-0.301C-0.277,-0.336 0.05,-0.366 0.44,-0.291C0.77,-0.228 1.1,-0.17 1.43,-0.11C1.611,-0.077 1.871,-0.07 2.041,-0.003C2.161,0.044 2.239,0.14 2.358,0.181C2.574,0.256 3.051,0.147 3.271,0.118C3.507,0.086 3.862,0.067 4.056,-0.068C4.327,-0.258 4.44,-0.504 4.332,-0.8C4.222,-1.098 4.005,-1.524 3.705,-1.682C3.358,-1.864 3.025,-1.714 2.676,-1.688C2.428,-1.669 2.144,-1.763 1.901,-1.808C1.341,-1.911 0.646,-2.169 0.088,-2.03" style="fill:rgb(235,99,100);fill-rule:nonzero;stroke:rgb(1,1,2);stroke-width:1px;"/>
            </g>
            <g transform="matrix(2.66667,0,0,2.66667,197.516,212.671)">
                <path d="M0,-5.851C-0.378,-5.928 -0.621,-5.794 -0.987,-5.807C-1.367,-5.82 -1.579,-5.736 -1.858,-5.458C-2.406,-4.914 -2.438,-4.115 -2.572,-3.391C-2.635,-3.05 -2.722,-2.705 -2.764,-2.363C-2.787,-2.179 -2.742,-2.074 -2.732,-1.894C-2.722,-1.697 -2.777,-1.505 -2.717,-1.3C-2.551,-0.746 -2.061,-0.825 -1.625,-0.659C-1.237,-0.511 -0.865,-0.374 -0.442,-0.41C-0.051,-0.443 0.204,-0.312 0.566,-0.179C0.741,-0.114 0.937,-0.088 1.123,-0.094C1.203,-0.096 1.267,-0.131 1.349,-0.118C1.467,-0.098 1.548,0.019 1.674,0.047C1.852,0.086 2.041,-0.002 2.225,0.022C2.451,0.05 2.529,0.088 2.742,0.014C2.954,-0.059 3.078,-0.107 3.298,-0.122C3.515,-0.136 3.688,-0.264 3.853,-0.406C4.363,-0.851 4.734,-1.719 4.695,-2.397C4.675,-2.743 4.75,-3.081 4.687,-3.43C4.626,-3.765 4.804,-4.138 4.656,-4.436C4.5,-4.754 4.117,-5.122 3.805,-5.271C3.483,-5.424 2.934,-5.424 2.584,-5.487C2.396,-5.521 2.229,-5.545 2.054,-5.612C1.771,-5.72 1.651,-5.68 1.355,-5.709C1.181,-5.726 0.998,-5.78 0.832,-5.823C0.6,-5.884 0.374,-5.89 0.128,-5.939" style="fill:rgb(235,99,100);fill-rule:nonzero;stroke:rgb(1,1,2);stroke-width:1px;"/>
            </g>
            <g transform="matrix(2.66667,0,0,2.66667,200.909,206.707)">
                <path d="M0,-2.042C-0.255,-2.035 -0.554,-2.027 -0.795,-1.942C-1.128,-1.826 -1.216,-1.699 -1.341,-1.402C-1.465,-1.109 -1.488,-0.928 -1.494,-0.619C-1.502,-0.158 -1.203,-0.141 -0.812,-0.072C-0.181,0.039 0.762,0.108 0.886,-0.766C0.968,-1.342 0.714,-2.108 0.021,-2.15" style="fill:rgb(251,239,22);fill-rule:nonzero;stroke:rgb(1,1,2);stroke-width:1px;"/>
            </g>
            <g transform="matrix(2.66667,0,0,2.66667,240.846,203.54)">
                <path d="M0,-14.944C-0.29,-15 -0.763,-14.513 -0.995,-14.353C-1.447,-14.04 -1.922,-13.771 -2.368,-13.456C-2.729,-13.201 -2.925,-12.852 -3.294,-12.625C-3.71,-12.369 -4.018,-12.038 -4.344,-11.672C-4.609,-11.374 -4.833,-11.054 -5.106,-10.761C-5.405,-10.443 -5.697,-10.124 -5.977,-9.797C-6.11,-9.64 -6.135,-9.461 -6.227,-9.28C-6.291,-9.153 -6.447,-9.029 -6.48,-8.888C-6.565,-8.526 -6.259,-8.074 -5.984,-7.899C-5.865,-7.823 -5.728,-7.762 -5.594,-7.715C-5.423,-7.654 -5.25,-7.558 -5.075,-7.505C-4.72,-7.399 -4.273,-7.342 -3.914,-7.359C-3.262,-7.389 -3.875,-6.612 -4.085,-6.381C-4.412,-6.02 -4.724,-5.655 -5.013,-5.271C-5.294,-4.895 -5.573,-4.541 -5.905,-4.205C-6.252,-3.855 -6.674,-3.527 -6.872,-3.072C-7.019,-2.739 -7.104,-2.434 -7.168,-2.073C-7.205,-1.866 -7.28,-1.652 -7.122,-1.477C-6.963,-1.3 -6.604,-1.172 -6.401,-1.056C-5.994,-0.823 -5.576,-1.003 -5.169,-0.782C-5.006,-0.694 -4.874,-0.58 -4.695,-0.519C-4.433,-0.429 -4.179,-0.473 -3.913,-0.467C-3.733,-0.463 -3.564,-0.403 -3.388,-0.404C-3.214,-0.405 -3.07,-0.445 -2.899,-0.42C-2.472,-0.357 -2.073,-0.463 -1.648,-0.41C-1.249,-0.36 -0.845,-0.443 -0.458,-0.333C-0.045,-0.215 0.343,-0.288 0.75,-0.197C0.991,-0.143 1.221,0.031 1.467,0.033C1.612,0.034 1.735,0.008 1.886,0.02C2.301,0.056 2.624,-0.021 2.979,-0.228C3.352,-0.446 3.749,-0.54 3.816,-1.053C3.848,-1.294 3.709,-1.414 3.642,-1.624C3.518,-2.014 3.392,-2.231 3.071,-2.534C2.703,-2.881 2.394,-3.009 1.92,-3.099C1.721,-3.137 1.553,-3.172 1.349,-3.152C1.023,-3.121 0.838,-3.181 0.517,-3.224C0.297,-3.253 0.083,-3.216 -0.141,-3.251C-0.378,-3.288 -0.556,-3.394 -0.772,-3.474C-0.922,-3.529 -1.209,-3.485 -1.32,-3.593C-1.506,-3.773 -1.333,-4.093 -1.196,-4.237C-1.05,-4.393 -0.826,-4.536 -0.658,-4.678C-0.457,-4.851 -0.317,-5.056 -0.122,-5.234C0.414,-5.721 1.076,-6.033 1.653,-6.465C1.968,-6.701 2.18,-7.035 2.541,-7.212C2.854,-7.365 3.077,-7.453 3.328,-7.717C3.762,-8.175 4.362,-8.612 4.71,-9.138C4.942,-9.489 5.279,-10.157 5.211,-10.596C5.131,-11.117 4.381,-11.531 3.907,-11.544C2.428,-11.584 1.273,-10.215 0.042,-9.581C-0.16,-9.478 -0.307,-9.303 -0.495,-9.195C-0.728,-9.062 -0.916,-9.172 -1.153,-9.272C-1.447,-9.396 -1.745,-9.455 -2.038,-9.574C-2.233,-9.652 -2.591,-9.663 -2.7,-9.844C-2.318,-10.4 -1.616,-10.834 -1.102,-11.264C-0.779,-11.534 -0.442,-11.796 -0.152,-12.102C0.13,-12.401 0.337,-12.765 0.651,-13.031C0.992,-13.319 1.631,-13.799 1.544,-14.315C1.44,-14.932 0.701,-14.966 0.216,-14.904" style="fill:rgb(235,99,100);fill-rule:nonzero;stroke:rgb(1,1,2);stroke-width:1px;"/>
            </g>
            <g transform="matrix(2.66667,0,0,2.66667,224.346,214.729)">
                <path d="M0,-3.098C-0.26,-3.41 -0.729,-3.009 -0.871,-2.787C-1.012,-2.568 -1.033,-2.325 -1.08,-2.076C-1.188,-1.503 -1.049,-0.619 -0.748,-0.104C-0.57,0.2 -0.24,0.312 0.066,0.073C0.307,-0.114 0.705,-0.645 0.729,-0.956C0.759,-1.332 0.7,-1.723 0.587,-2.078C0.534,-2.245 0.577,-2.368 0.545,-2.526C0.495,-2.77 0.289,-2.931 0.108,-3.078" style="fill:rgb(235,99,100);fill-rule:nonzero;stroke:rgb(1,1,2);stroke-width:1px;"/>
            </g>
            <g transform="matrix(2.66667,0,0,2.66667,232.586,215.378)">
                <path d="M0,-2.55C0.032,-2.584 0.065,-2.617 0.099,-2.652C-0.055,-3.033 -0.579,-2.69 -0.729,-2.507C-0.839,-2.372 -0.975,-1.971 -1.036,-1.792C-1.148,-1.465 -1.091,-1.318 -0.949,-1.026C-0.795,-0.706 -0.732,-0.378 -0.569,-0.059C-0.411,0.252 -0.282,0.483 0.109,0.329C0.485,0.179 0.819,-0.116 0.834,-0.525C0.848,-0.88 0.752,-1.285 0.728,-1.638C0.704,-1.963 0.493,-2.441 0.107,-2.53" style="fill:rgb(235,99,100);fill-rule:nonzero;stroke:rgb(1,1,2);stroke-width:1px;"/>
            </g>
            <g transform="matrix(2.66667,0,0,2.66667,242.529,217.052)">
                <path d="M0,-2.826C-0.159,-3.208 -0.653,-3.217 -0.954,-3.006C-1.239,-2.806 -1.148,-2.549 -1.079,-2.25C-1.031,-2.037 -1.102,-1.87 -1.088,-1.662C-1.076,-1.494 -0.985,-1.296 -0.951,-1.129C-0.882,-0.793 -0.876,-0.488 -0.651,-0.209C-0.168,0.391 0.651,0.133 0.822,-0.597C1.055,-1.595 0.062,-2.18 -0.304,-2.993" style="fill:rgb(235,99,100);fill-rule:nonzero;stroke:rgb(1,1,2);stroke-width:1px;"/>
            </g>
            <g transform="matrix(2.66667,0,0,2.66667,178.437,278.024)">
                <path d="M0,-25.428C-0.342,-25.202 -0.646,-24.956 -0.997,-24.741C-1.262,-24.579 -1.542,-24.457 -1.798,-24.283C-2.104,-24.074 -2.441,-23.911 -2.747,-23.702C-3.114,-23.452 -3.504,-23.27 -3.86,-23.014C-4.893,-22.278 -5.976,-21.63 -6.93,-20.791C-7.412,-20.367 -7.913,-20.061 -8.261,-19.503C-8.646,-18.886 -8.715,-18.318 -8.557,-17.61C-8.389,-16.854 -7.924,-16.498 -7.173,-16.596C-6.861,-16.636 -6.554,-16.66 -6.237,-16.701C-5.782,-16.76 -5.477,-16.978 -5.107,-17.241C-4.969,-17.34 -4.851,-17.479 -4.709,-17.574C-4.538,-17.689 -4.324,-17.708 -4.172,-17.853C-3.975,-18.041 -3.836,-18.286 -3.624,-18.479C-3.267,-18.802 -2.949,-19.199 -2.524,-19.43C-2.415,-19.489 -2.299,-19.508 -2.19,-19.577C-2.054,-19.662 -1.798,-20.035 -1.632,-20.032C-1.517,-20.03 -1.549,-19.953 -1.471,-19.905C-1.443,-19.859 -1.417,-19.813 -1.39,-19.767C-1.28,-19.661 -1.15,-19.59 -1,-19.554C-0.725,-19.443 -0.453,-19.305 -0.177,-19.207C0.019,-19.138 0.252,-19.151 0.453,-19.1C0.699,-19.038 0.867,-18.954 1.127,-18.943C1.474,-18.926 1.831,-18.865 2.171,-18.786C2.494,-18.711 2.685,-18.513 2.972,-18.405C3.203,-18.318 3.51,-18.309 3.755,-18.266C3.962,-18.229 4.152,-18.203 4.35,-18.132C4.526,-18.068 4.646,-17.966 4.84,-17.947C4.969,-17.934 5.084,-17.976 5.21,-17.974C5.434,-17.969 5.64,-17.91 5.861,-17.904C6.381,-17.888 7.362,-17.923 7.753,-17.512C8.077,-17.17 7.692,-16.86 7.363,-16.734C7.111,-16.637 6.895,-16.586 6.666,-16.438C6.357,-16.238 6.11,-16.072 5.773,-15.912C5.447,-15.758 5.141,-15.558 4.819,-15.393C4.451,-15.203 4.104,-14.941 3.706,-14.812C3.475,-14.738 3.236,-14.705 3.009,-14.616C2.867,-14.561 2.703,-14.422 2.546,-14.425C2.323,-14.429 2.239,-14.645 2.068,-14.784C1.752,-15.041 1.407,-15.289 1.08,-15.532C0.898,-15.665 0.717,-15.653 0.532,-15.754C0.356,-15.852 0.263,-16.033 0.108,-16.155C-0.402,-16.554 -1.105,-17.014 -1.742,-17.16C-2.044,-17.23 -2.324,-17.284 -2.628,-17.214C-2.879,-17.157 -3.334,-16.965 -3.502,-16.768C-3.605,-16.647 -3.638,-16.489 -3.705,-16.35C-3.818,-16.118 -4.003,-15.942 -4.013,-15.67C-4.026,-15.329 -3.948,-14.863 -3.795,-14.552C-3.452,-13.856 -2.869,-13.221 -2.324,-12.689C-2.101,-12.47 -1.629,-12.382 -2.026,-12.08C-2.482,-11.734 -3.02,-11.416 -3.529,-11.146C-4.095,-10.847 -4.502,-10.435 -5.009,-10.053C-5.391,-9.765 -5.811,-9.557 -6.203,-9.282C-6.594,-9.009 -6.98,-8.713 -7.396,-8.479C-8.179,-8.038 -8.864,-7.481 -9.578,-6.935C-10.354,-6.342 -10.816,-5.616 -11.157,-4.701C-11.271,-4.397 -11.526,-4.052 -11.348,-3.765C-11.082,-3.338 -10.444,-2.8 -9.961,-2.607C-9.501,-2.423 -8.891,-2.548 -8.43,-2.645C-7.908,-2.754 -7.343,-2.9 -6.843,-3.091C-6.385,-3.267 -6.024,-3.597 -5.602,-3.832C-5.177,-4.07 -4.788,-4.318 -4.388,-4.598C-4.037,-4.843 -3.644,-4.973 -3.278,-5.188C-2.771,-5.487 -2.274,-5.86 -1.791,-6.199C-1.13,-6.661 -0.467,-7.108 0.196,-7.57C0.531,-7.802 0.863,-8.01 1.19,-8.254C1.46,-8.455 2.07,-9.082 2.39,-8.724C2.481,-8.621 2.591,-8.317 2.637,-8.232C2.805,-7.925 3.021,-7.645 3.218,-7.357C3.563,-6.848 3.954,-6.286 4.389,-5.855C5.037,-5.211 5.542,-4.502 6.118,-3.796C6.395,-3.458 6.687,-3.137 6.942,-2.782C7.098,-2.566 7.229,-2.278 7.411,-2.079C7.589,-1.884 7.822,-1.777 8.041,-1.636C8.241,-1.507 8.375,-1.338 8.559,-1.205C8.993,-0.891 9.455,-0.656 9.961,-0.474C10.174,-0.397 10.39,-0.329 10.6,-0.244C10.881,-0.132 11.227,0.103 11.535,0.109C12.005,0.117 12.577,-0.087 12.956,-0.333C13.468,-0.666 13.84,-1.029 14.011,-1.623C14.089,-1.897 14.044,-2.19 14.071,-2.471C14.101,-2.78 14.121,-3.084 14.129,-3.393C14.136,-3.633 14.177,-3.906 14.14,-4.143C14.086,-4.481 13.886,-4.868 13.764,-5.19C13.604,-5.61 13.424,-6.025 13.216,-6.421C12.854,-7.111 12.37,-7.724 12.008,-8.409C11.829,-8.747 11.67,-9.075 11.442,-9.384C11.247,-9.65 10.993,-9.847 10.777,-10.092C10.493,-10.415 10.146,-10.586 9.849,-10.898C9.697,-11.056 9.575,-11.192 9.394,-11.322C9.226,-11.442 8.965,-11.538 8.877,-11.738C9.022,-11.9 9.389,-12.032 9.565,-12.117C9.939,-12.297 10.293,-12.443 10.647,-12.665C10.978,-12.872 11.284,-13.121 11.627,-13.305C11.896,-13.449 12.162,-13.564 12.421,-13.729C13.392,-14.347 14.464,-14.913 15.092,-15.93C15.512,-16.61 15.454,-17.359 15.168,-18.087C15.002,-18.511 14.762,-18.755 14.408,-19.013C14.064,-19.263 13.74,-19.621 13.365,-19.823C12.435,-20.323 11.455,-20.642 10.422,-20.832C9.226,-21.053 8.026,-21.164 6.829,-21.382C5.747,-21.579 4.746,-21.988 3.666,-22.187C3.281,-22.258 2.896,-22.328 2.513,-22.4C2.307,-22.438 2.1,-22.494 1.893,-22.52C1.704,-22.543 1.465,-22.449 1.303,-22.544C1.508,-22.967 2.199,-23.09 2.493,-23.462C2.766,-23.807 2.864,-24.148 2.609,-24.532C2.163,-25.203 1.201,-25.545 0.5,-25.113" style="fill:rgb(235,99,100);fill-rule:nonzero;stroke:rgb(1,1,2);stroke-width:1px;"/>
            </g>
            <g transform="matrix(-2.05037,1.70502,1.70502,2.05037,178.347,221.603)">
                <path d="M-0.776,-0.324C-0.594,-0.204 -0.07,-0.125 0.081,-0.324" style="fill:rgb(235,99,100);fill-rule:nonzero;stroke:rgb(1,1,2);stroke-width:1px;"/>
            </g>
        </g>
        <g>
            <g transform="matrix(2.66667,0,0,2.66667,65.0651,6.57314)">
                <path d="M0,29.334C-0.086,28.444 -0.943,27.845 -1.686,27.655C-1.999,27.575 -2.302,27.643 -2.612,27.61C-2.875,27.583 -3.106,27.39 -3.365,27.329C-3.735,27.241 -4.124,27.221 -4.491,27.12C-4.747,27.049 -4.969,26.865 -5.21,26.759C-5.439,26.658 -5.687,26.655 -5.929,26.595C-6.154,26.538 -6.332,26.402 -6.564,26.346C-6.417,25.593 -5.961,24.931 -5.812,24.179C-5.745,23.838 -5.758,23.312 -5.607,23.02C-5.446,22.708 -4.852,22.881 -4.596,22.89C-4.222,22.902 -3.857,22.913 -3.486,22.955C-2.973,23.013 -2.439,23.052 -1.966,22.772C-1.523,22.509 -1.082,22.005 -1.087,21.432C-1.091,20.964 -1.301,20.303 -1.654,20.03C-1.924,19.823 -2.187,19.923 -2.52,19.883C-2.742,19.856 -2.97,19.795 -3.188,19.749C-3.639,19.653 -4.054,19.369 -4.48,19.19C-4.661,19.115 -4.851,19.075 -5.029,18.999C-5.334,18.87 -5.326,18.758 -5.255,18.419C-5.135,17.853 -4.848,17.369 -4.714,16.821C-4.635,16.499 -4.672,16.331 -4.317,16.396C-4.061,16.443 -3.812,16.606 -3.544,16.658C-3.194,16.724 -2.849,16.677 -2.499,16.728C-2.253,16.764 -2.019,16.851 -1.771,16.872C-1.412,16.902 -1.083,16.765 -0.728,16.743C-0.37,16.719 -0.154,16.62 0.123,16.343C0.526,15.94 0.718,15.365 0.571,14.784C0.462,14.35 -0.008,14.233 -0.362,14.132C-0.644,14.053 -0.836,13.847 -1.091,13.707C-1.226,13.632 -1.533,13.597 -1.619,13.476C-1.6,13.214 -1.276,12.933 -1.143,12.705C-0.934,12.351 -0.679,12.039 -0.455,11.694C-0.299,11.453 -0.187,11.184 -0.024,10.949C0.122,10.738 0.306,10.547 0.329,10.269L0.223,10.248C0.876,10.366 1.555,10.157 2.204,10.266C2.34,10.289 2.502,10.376 2.643,10.338C2.769,10.304 2.938,10.137 3.051,10.073C3.188,9.994 3.413,9.959 3.509,9.802C3.594,9.663 3.608,9.445 3.678,9.289C3.84,8.919 3.86,8.479 3.863,8.078C3.867,7.67 3.489,7.338 3.184,7.16C2.836,6.956 2.464,6.981 2.132,6.749C1.904,6.589 1.714,6.537 1.448,6.494C1.313,6.473 1.048,6.494 1.024,6.302C1.312,5.946 1.485,5.558 1.72,5.163C1.929,4.811 2.142,4.501 2.303,4.118C2.449,3.772 2.682,3.473 2.813,3.122C2.952,2.749 3.043,2.071 2.635,1.875C2.118,1.628 1.592,2.093 1.235,2.47C0.801,2.929 0.411,3.473 0.006,3.966C-0.229,4.253 -0.428,4.571 -0.625,4.889C-0.741,5.078 -0.77,5.402 -0.913,5.551C-1.074,5.718 -1.692,5.599 -1.828,5.383C-1.956,5.181 -1.853,5.029 -1.77,4.831C-1.661,4.572 -1.637,4.297 -1.534,4.037C-1.339,3.538 -1.173,2.965 -1.074,2.434C-0.998,2.026 -1.021,1.603 -0.9,1.197C-0.828,0.955 -0.721,0.8 -0.709,0.546C-0.696,0.277 -0.645,0.018 -0.622,-0.253C-0.583,-0.71 -0.56,-1.321 -1.096,-1.156C-2.009,-0.875 -2.423,0.183 -2.803,1.02C-2.912,1.26 -2.94,1.514 -3.049,1.754C-3.143,1.965 -3.288,2.183 -3.343,2.41C-3.436,2.795 -3.315,3.188 -3.477,3.594C-3.534,3.741 -3.601,3.89 -3.659,4.032C-3.774,4.314 -3.808,4.574 -3.883,4.855C-4.001,5.296 -4.341,4.877 -4.606,4.842C-4.821,4.813 -4.991,4.921 -5.011,4.645C-5.023,4.469 -4.904,4.229 -4.88,4.051C-4.812,3.564 -4.907,3.065 -4.823,2.574C-4.677,1.72 -4.474,0.919 -4.462,0.047C-4.454,-0.547 -4.526,-2.393 -5.42,-1.874C-5.86,-1.619 -6.077,-1.144 -6.267,-0.671C-6.407,-0.319 -6.399,0.072 -6.53,0.427C-6.673,0.813 -6.807,1.196 -6.839,1.615C-6.86,1.9 -6.845,2.167 -6.896,2.452C-6.949,2.744 -7.042,3.029 -7.046,3.327C-7.05,3.591 -7.093,3.847 -7.101,4.107C-7.105,4.274 -7.014,4.494 -7.156,4.623C-7.277,4.732 -7.405,4.639 -7.544,4.619C-7.653,4.603 -7.841,4.659 -7.919,4.594C-8.077,4.462 -8.045,3.816 -8.07,3.607C-8.109,3.287 -8.107,2.954 -8.154,2.634C-8.263,1.905 -8.402,0.968 -8.873,0.42C-9.116,0.137 -9.477,-0.106 -9.845,0.052C-10.154,0.184 -10.367,0.48 -10.465,0.816C-10.676,1.544 -10.572,2.18 -10.395,2.886C-10.232,3.533 -9.913,4.294 -9.51,4.832C-9.876,4.689 -10.467,4.891 -10.791,4.835C-11.115,4.779 -11.46,4.769 -11.765,4.676C-12.081,4.581 -12.337,4.692 -12.668,4.745C-13.029,4.803 -13.229,4.844 -13.574,5.02C-13.831,5.15 -14.165,5.209 -14.389,5.395C-14.896,5.818 -15.044,6.79 -14.841,7.377C-14.745,7.652 -14.655,8.012 -14.411,8.134C-14.14,8.27 -13.688,8.263 -13.39,8.322C-13.008,8.397 -12.652,8.41 -12.265,8.419C-12.072,8.424 -11.978,8.364 -11.798,8.351C-11.565,8.333 -11.396,8.453 -11.182,8.516C-10.904,8.598 -10.491,8.381 -10.319,8.67C-10.231,8.82 -10.284,8.898 -10.299,9.063C-10.321,9.323 -10.286,9.543 -10.216,9.793C-10.02,10.489 -9.741,11.121 -9.616,11.838C-9.901,11.78 -10.188,11.72 -10.475,11.672C-10.835,11.614 -11.254,11.803 -11.628,11.901C-12.432,12.113 -13.483,12.356 -13.789,13.332C-13.911,13.721 -13.995,14.247 -13.904,14.636C-13.84,14.911 -13.701,15.118 -13.549,15.34C-13.282,15.728 -13.006,15.778 -12.584,15.858C-12.111,15.947 -11.663,15.801 -11.201,15.883C-11.048,15.911 -10.912,15.956 -10.756,15.948C-10.438,15.933 -10.116,15.759 -9.8,15.784C-9.569,15.803 -9.398,15.972 -9.186,16.043C-9.019,16.099 -8.825,16.113 -8.651,16.112C-8.351,16.11 -8.242,16.028 -8.29,16.445C-8.325,16.761 -8.418,17.094 -8.481,17.407C-8.539,17.69 -8.664,17.912 -8.751,18.178C-8.81,18.356 -8.764,18.756 -8.899,18.896C-9.076,19.077 -9.258,18.803 -9.431,18.756C-9.7,18.682 -10.04,18.831 -10.316,18.857C-10.78,18.901 -11.291,18.984 -11.747,18.925C-11.933,18.901 -12.144,18.888 -12.332,18.927C-12.577,18.978 -12.778,19.237 -12.977,19.421C-13.497,19.903 -13.519,20.434 -13.533,21.114C-13.538,21.376 -13.457,21.559 -13.324,21.769C-13.131,22.074 -12.953,22.083 -12.616,22.145C-12.426,22.179 -12.229,22.24 -12.037,22.261C-11.847,22.281 -11.663,22.218 -11.473,22.24C-11.074,22.287 -10.662,22.334 -10.265,22.299C-10.109,22.286 -9.936,22.208 -9.845,22.395C-9.754,22.581 -9.986,22.863 -10.03,23.051C-10.168,23.633 -10.357,24.178 -10.473,24.771C-10.542,25.126 -10.546,25.879 -10.801,26.122C-10.979,26.292 -11.408,26.146 -11.63,26.146C-11.927,26.147 -12.219,26.072 -12.515,26.123C-13.008,26.206 -13.466,26.127 -13.965,26.142C-14.225,26.15 -14.433,26.256 -14.695,26.219C-15.004,26.176 -15.314,26.044 -15.626,26.027C-16.049,26.004 -16.515,26.104 -16.896,26.319C-17.475,26.646 -17.646,27.561 -17.65,28.192C-17.656,29.036 -17.165,29.552 -16.562,29.976C-16.319,30.146 -16.13,30.31 -15.82,30.33C-15.449,30.354 -15.04,30.397 -14.667,30.37C-13.966,30.317 -13.199,30.196 -12.513,30.384C-12.272,30.45 -12.092,30.625 -11.841,30.651C-11.675,30.668 -11.635,30.615 -11.5,30.614C-11.236,30.613 -11,30.685 -10.728,30.738C-9.859,30.91 -8.967,31.17 -8.075,31.167C-7.29,31.164 -6.453,31.201 -5.687,31.357C-5.152,31.467 -4.583,31.632 -4.037,31.654C-3.626,31.671 -3.215,31.598 -2.811,31.672C-2.538,31.722 -2.324,31.727 -2.043,31.704C-1.474,31.657 -1.104,31.435 -0.611,31.142C0.046,30.752 0.069,30.062 0,29.334" style="fill:rgb(235,99,100);fill-rule:nonzero;"/>
            </g>
            <g transform="matrix(2.66667,0,0,2.66667,65.0651,6.57314)">
                <path d="M0,29.334C-0.086,28.444 -0.943,27.845 -1.686,27.655C-1.999,27.575 -2.302,27.643 -2.612,27.61C-2.875,27.583 -3.106,27.39 -3.365,27.329C-3.735,27.241 -4.124,27.221 -4.491,27.12C-4.747,27.049 -4.969,26.865 -5.21,26.759C-5.439,26.658 -5.687,26.655 -5.929,26.595C-6.154,26.538 -6.332,26.402 -6.564,26.346C-6.417,25.593 -5.961,24.931 -5.812,24.179C-5.745,23.838 -5.758,23.312 -5.607,23.02C-5.446,22.708 -4.852,22.881 -4.596,22.89C-4.222,22.902 -3.857,22.913 -3.486,22.955C-2.973,23.013 -2.439,23.052 -1.966,22.772C-1.523,22.509 -1.082,22.005 -1.087,21.432C-1.091,20.964 -1.301,20.303 -1.654,20.03C-1.924,19.823 -2.187,19.923 -2.52,19.883C-2.742,19.856 -2.97,19.795 -3.188,19.749C-3.639,19.653 -4.054,19.369 -4.48,19.19C-4.661,19.115 -4.851,19.075 -5.029,18.999C-5.334,18.87 -5.326,18.758 -5.255,18.419C-5.135,17.853 -4.848,17.369 -4.714,16.821C-4.635,16.499 -4.672,16.331 -4.317,16.396C-4.061,16.443 -3.812,16.606 -3.544,16.658C-3.194,16.724 -2.849,16.677 -2.499,16.728C-2.253,16.764 -2.019,16.851 -1.771,16.872C-1.412,16.902 -1.083,16.765 -0.728,16.743C-0.37,16.719 -0.154,16.62 0.123,16.343C0.526,15.94 0.718,15.365 0.571,14.784C0.462,14.35 -0.008,14.233 -0.362,14.132C-0.644,14.053 -0.836,13.847 -1.091,13.707C-1.226,13.632 -1.533,13.597 -1.619,13.476C-1.6,13.214 -1.276,12.933 -1.143,12.705C-0.934,12.351 -0.679,12.039 -0.455,11.694C-0.299,11.453 -0.187,11.184 -0.024,10.949C0.122,10.738 0.306,10.547 0.329,10.269L0.223,10.248C0.876,10.366 1.555,10.157 2.204,10.266C2.34,10.289 2.502,10.376 2.643,10.338C2.769,10.304 2.938,10.137 3.051,10.073C3.188,9.994 3.413,9.959 3.509,9.802C3.594,9.663 3.608,9.445 3.678,9.289C3.84,8.919 3.86,8.479 3.863,8.078C3.867,7.67 3.489,7.338 3.184,7.16C2.836,6.956 2.464,6.981 2.132,6.749C1.904,6.589 1.714,6.537 1.448,6.494C1.313,6.473 1.048,6.494 1.024,6.302C1.312,5.946 1.485,5.558 1.72,5.163C1.929,4.811 2.142,4.501 2.303,4.118C2.449,3.772 2.682,3.473 2.813,3.122C2.952,2.749 3.043,2.071 2.635,1.875C2.118,1.628 1.592,2.093 1.235,2.47C0.801,2.929 0.411,3.473 0.006,3.966C-0.229,4.253 -0.428,4.571 -0.625,4.889C-0.741,5.078 -0.77,5.402 -0.913,5.551C-1.074,5.718 -1.692,5.599 -1.828,5.383C-1.956,5.181 -1.853,5.029 -1.77,4.831C-1.661,4.572 -1.637,4.297 -1.534,4.037C-1.339,3.538 -1.173,2.965 -1.074,2.434C-0.998,2.026 -1.021,1.603 -0.9,1.197C-0.828,0.955 -0.721,0.8 -0.709,0.546C-0.696,0.277 -0.645,0.018 -0.622,-0.253C-0.583,-0.71 -0.56,-1.321 -1.096,-1.156C-2.009,-0.875 -2.423,0.183 -2.803,1.02C-2.912,1.26 -2.94,1.514 -3.049,1.754C-3.143,1.965 -3.288,2.183 -3.343,2.41C-3.436,2.795 -3.315,3.188 -3.477,3.594C-3.534,3.741 -3.601,3.89 -3.659,4.032C-3.774,4.314 -3.808,4.574 -3.883,4.855C-4.001,5.296 -4.341,4.877 -4.606,4.842C-4.821,4.813 -4.991,4.921 -5.011,4.645C-5.023,4.469 -4.904,4.229 -4.88,4.051C-4.812,3.564 -4.907,3.065 -4.823,2.574C-4.677,1.72 -4.474,0.919 -4.462,0.047C-4.454,-0.547 -4.526,-2.393 -5.42,-1.874C-5.86,-1.619 -6.077,-1.144 -6.267,-0.671C-6.407,-0.319 -6.399,0.072 -6.53,0.427C-6.673,0.813 -6.807,1.196 -6.839,1.615C-6.86,1.9 -6.845,2.167 -6.896,2.452C-6.949,2.744 -7.042,3.029 -7.046,3.327C-7.05,3.591 -7.093,3.847 -7.101,4.107C-7.105,4.274 -7.014,4.494 -7.156,4.623C-7.277,4.732 -7.405,4.639 -7.544,4.619C-7.653,4.603 -7.841,4.659 -7.919,4.594C-8.077,4.462 -8.045,3.816 -8.07,3.607C-8.109,3.287 -8.107,2.954 -8.154,2.634C-8.263,1.905 -8.402,0.968 -8.873,0.42C-9.116,0.137 -9.477,-0.106 -9.845,0.052C-10.154,0.184 -10.367,0.48 -10.465,0.816C-10.676,1.544 -10.572,2.18 -10.395,2.886C-10.232,3.533 -9.913,4.294 -9.51,4.832C-9.876,4.689 -10.467,4.891 -10.791,4.835C-11.115,4.779 -11.46,4.769 -11.765,4.676C-12.081,4.581 -12.337,4.692 -12.668,4.745C-13.029,4.803 -13.229,4.844 -13.574,5.02C-13.831,5.15 -14.165,5.209 -14.389,5.395C-14.896,5.818 -15.044,6.79 -14.841,7.377C-14.745,7.652 -14.655,8.012 -14.411,8.134C-14.14,8.27 -13.688,8.263 -13.39,8.322C-13.008,8.397 -12.652,8.41 -12.265,8.419C-12.072,8.424 -11.978,8.364 -11.798,8.351C-11.565,8.333 -11.396,8.453 -11.182,8.516C-10.904,8.598 -10.491,8.381 -10.319,8.67C-10.231,8.82 -10.284,8.898 -10.299,9.063C-10.321,9.323 -10.286,9.543 -10.216,9.793C-10.02,10.489 -9.741,11.121 -9.616,11.838C-9.901,11.78 -10.188,11.72 -10.475,11.672C-10.835,11.614 -11.254,11.803 -11.628,11.901C-12.432,12.113 -13.483,12.356 -13.789,13.332C-13.911,13.721 -13.995,14.247 -13.904,14.636C-13.84,14.911 -13.701,15.118 -13.549,15.34C-13.282,15.728 -13.006,15.778 -12.584,15.858C-12.111,15.947 -11.663,15.801 -11.201,15.883C-11.048,15.911 -10.912,15.956 -10.756,15.948C-10.438,15.933 -10.116,15.759 -9.8,15.784C-9.569,15.803 -9.398,15.972 -9.186,16.043C-9.019,16.099 -8.825,16.113 -8.651,16.112C-8.351,16.11 -8.242,16.028 -8.29,16.445C-8.325,16.761 -8.418,17.094 -8.481,17.407C-8.539,17.69 -8.664,17.912 -8.751,18.178C-8.81,18.356 -8.764,18.756 -8.899,18.896C-9.076,19.077 -9.258,18.803 -9.431,18.756C-9.7,18.682 -10.04,18.831 -10.316,18.857C-10.78,18.901 -11.291,18.984 -11.747,18.925C-11.933,18.901 -12.144,18.888 -12.332,18.927C-12.577,18.978 -12.778,19.237 -12.977,19.421C-13.497,19.903 -13.519,20.434 -13.533,21.114C-13.538,21.376 -13.457,21.559 -13.324,21.769C-13.131,22.074 -12.953,22.083 -12.616,22.145C-12.426,22.179 -12.229,22.24 -12.037,22.261C-11.847,22.281 -11.663,22.218 -11.473,22.24C-11.074,22.287 -10.662,22.334 -10.265,22.299C-10.109,22.286 -9.936,22.208 -9.845,22.395C-9.754,22.581 -9.986,22.863 -10.03,23.051C-10.168,23.633 -10.357,24.178 -10.473,24.771C-10.542,25.126 -10.546,25.879 -10.801,26.122C-10.979,26.292 -11.408,26.146 -11.63,26.146C-11.927,26.147 -12.219,26.072 -12.515,26.123C-13.008,26.206 -13.466,26.127 -13.965,26.142C-14.225,26.15 -14.433,26.256 -14.695,26.219C-15.004,26.176 -15.314,26.044 -15.626,26.027C-16.049,26.004 -16.515,26.104 -16.896,26.319C-17.475,26.646 -17.646,27.561 -17.65,28.192C-17.656,29.036 -17.165,29.552 -16.562,29.976C-16.319,30.146 -16.13,30.31 -15.82,30.33C-15.449,30.354 -15.04,30.397 -14.667,30.37C-13.966,30.317 -13.199,30.196 -12.513,30.384C-12.272,30.45 -12.092,30.625 -11.841,30.651C-11.675,30.668 -11.635,30.615 -11.5,30.614C-11.236,30.613 -11,30.685 -10.728,30.738C-9.859,30.91 -8.967,31.17 -8.075,31.167C-7.29,31.164 -6.453,31.201 -5.687,31.357C-5.152,31.467 -4.583,31.632 -4.037,31.654C-3.626,31.671 -3.215,31.598 -2.811,31.672C-2.538,31.722 -2.324,31.727 -2.043,31.704C-1.474,31.657 -1.104,31.435 -0.611,31.142C0.046,30.752 0.069,30.062 0,29.334Z" style="fill:none;fill-rule:nonzero;stroke:rgb(1,1,2);stroke-width:1px;"/>
            </g>
            <g transform="matrix(2.66667,0,0,2.66667,53.7891,37.2153)">
                <path d="M0,-0.419C-0.232,-0.024 -0.556,0.285 -0.799,0.667C-0.966,0.931 -1.219,1.535 -1.612,1.447L-2.063,1.48C-1.968,1.039 -2.073,0.701 -2.105,0.259C-2.12,0.056 -2.09,-0.104 -2.047,-0.304C-2.002,-0.515 -2.027,-0.61 -2.035,-0.81C-2.04,-0.967 -1.992,-1.103 -1.995,-1.263C-1.998,-1.412 -2.107,-1.711 -1.96,-1.842C-1.834,-1.954 -1.568,-1.811 -1.429,-1.78C-1.148,-1.718 -0.902,-1.776 -0.624,-1.754C-0.399,-1.736 0.111,-1.642 0.268,-1.464C0.521,-1.177 0.174,-0.715 0,-0.419" style="fill:rgb(251,239,22);fill-rule:nonzero;"/>
            </g>
            <g transform="matrix(2.66667,0,0,2.66667,53.7891,37.2153)">
                <path d="M0,-0.419C-0.232,-0.024 -0.556,0.285 -0.799,0.667C-0.966,0.931 -1.219,1.535 -1.612,1.447L-2.063,1.48C-1.968,1.039 -2.073,0.701 -2.105,0.259C-2.12,0.056 -2.09,-0.104 -2.047,-0.304C-2.002,-0.515 -2.027,-0.61 -2.035,-0.81C-2.04,-0.967 -1.992,-1.103 -1.995,-1.263C-1.998,-1.412 -2.107,-1.711 -1.96,-1.842C-1.834,-1.954 -1.568,-1.811 -1.429,-1.78C-1.148,-1.718 -0.902,-1.776 -0.624,-1.754C-0.399,-1.736 0.111,-1.642 0.268,-1.464C0.521,-1.177 0.174,-0.715 0,-0.419Z" style="fill:none;fill-rule:nonzero;stroke:rgb(1,1,2);stroke-width:1px;"/>
            </g>
            <g transform="matrix(2.66667,0,0,2.66667,106.156,79.9958)">
                <path d="M0,-15.053C-0.074,-15.303 -0.367,-15.104 -0.533,-15.163C-0.648,-15.205 -0.709,-15.292 -0.833,-15.315C-0.899,-15.328 -1.081,-15.266 -1.146,-15.269C-1.328,-15.279 -1.525,-15.349 -1.705,-15.385C-2.008,-15.445 -2.216,-15.434 -2.52,-15.433C-2.688,-15.432 -2.84,-15.513 -3.005,-15.523C-3.216,-15.535 -3.408,-15.433 -3.612,-15.418C-3.813,-15.403 -3.991,-15.482 -4.186,-15.51C-4.324,-15.53 -4.437,-15.487 -4.569,-15.486C-4.729,-15.485 -4.864,-15.546 -5.021,-15.559C-5.357,-15.586 -5.644,-15.384 -5.952,-15.247C-6.292,-15.096 -6.362,-14.861 -6.589,-14.576C-6.914,-14.169 -7.042,-13.631 -7.143,-13.091C-7.248,-12.527 -6.927,-11.915 -6.527,-11.577C-6.104,-11.218 -5.731,-11.096 -5.208,-10.989C-4.911,-10.928 -4.671,-10.777 -4.383,-10.699C-4.076,-10.616 -3.814,-10.687 -3.512,-10.662C-3.287,-10.644 -3.081,-10.537 -2.851,-10.548C-2.656,-10.557 -2.482,-10.655 -2.292,-10.653C-2.157,-10.652 -2.029,-10.614 -1.894,-10.609C-1.624,-10.599 -1.342,-10.624 -1.079,-10.639C-0.901,-10.649 -0.744,-10.561 -0.57,-10.559C-0.293,-10.557 -0.091,-10.716 -0.028,-10.292C0.023,-9.946 -0.191,-9.585 -0.248,-9.243C-0.291,-8.981 -0.237,-8.71 -0.307,-8.459C-0.378,-8.201 -0.49,-7.996 -0.542,-7.721C-0.603,-7.397 -0.642,-7.035 -0.76,-6.729C-0.874,-6.432 -0.949,-6.203 -1.013,-5.877C-1.068,-5.587 -1.097,-5.276 -1.179,-4.993C-1.264,-4.7 -1.393,-4.523 -1.448,-4.21C-1.51,-3.863 -1.718,-3.516 -1.739,-3.173C-1.751,-2.992 -1.705,-2.863 -1.763,-2.687C-1.85,-2.421 -1.931,-2.418 -1.943,-2.124C-1.956,-1.802 -1.966,-1.557 -2.027,-1.229C-2.086,-0.921 -2.226,-0.701 -2.306,-0.403C-2.431,0.058 -2.466,0.549 -2.574,1.014C-2.684,1.487 -2.987,2.024 -3.438,2.191C-3.831,2.337 -4.602,2.156 -4.983,1.991C-5.5,1.767 -5.838,1.87 -6.27,2.327C-6.749,2.836 -7.03,3.181 -6.942,3.92C-6.878,4.46 -6.501,5.011 -6.129,5.349C-5.855,5.597 -5.55,5.858 -5.252,6.072C-4.972,6.274 -4.643,6.317 -4.312,6.371C-4.054,6.413 -3.806,6.416 -3.553,6.482C-3.326,6.542 -3.106,6.601 -2.873,6.648C-2.372,6.748 -1.872,6.774 -1.361,6.703C-0.777,6.622 -0.056,6.284 0.372,5.81C0.643,5.511 0.81,5.086 1.043,4.753C1.35,4.318 1.547,3.927 1.73,3.43C1.926,2.901 2.026,2.361 2.226,1.83C2.345,1.514 2.381,1.163 2.444,0.832C2.519,0.446 2.641,0.155 2.75,-0.216C2.935,-0.84 3.107,-1.429 3.232,-2.079C3.404,-2.979 3.679,-3.835 3.863,-4.733C3.938,-5.092 3.894,-5.434 3.954,-5.791C4.046,-6.333 4.17,-6.872 4.272,-7.412C4.313,-7.625 4.343,-7.856 4.395,-8.069C4.454,-8.313 4.61,-8.521 4.658,-8.763C4.717,-9.064 4.63,-9.353 4.708,-9.659C4.75,-9.824 4.865,-10.256 4.98,-10.377C5.148,-10.553 5.607,-10.33 5.83,-10.288C6.477,-10.165 7.229,-9.891 7.892,-10.082C8.036,-10.124 8.247,-10.283 8.357,-10.338C8.6,-10.461 8.84,-10.511 9.027,-10.739C9.327,-11.103 9.536,-11.58 9.743,-12.011C10.028,-12.604 9.976,-13.68 9.549,-14.172C9.018,-14.785 8.221,-14.918 7.481,-14.952C7.14,-14.969 6.824,-15.013 6.477,-14.986C6.234,-14.967 5.955,-14.869 5.716,-14.905C5.619,-15.148 5.877,-15.72 5.966,-15.964C6.083,-16.285 6.164,-16.549 6.23,-16.894C6.281,-17.164 6.357,-17.442 6.396,-17.714C6.439,-18.015 6.4,-18.297 6.449,-18.599C6.501,-18.917 6.637,-19.252 6.626,-19.575C6.618,-19.819 6.49,-20.025 6.471,-20.266C6.437,-20.681 6.339,-20.708 6.121,-21.024C5.972,-21.241 5.868,-21.478 5.653,-21.631C5.378,-21.827 5.075,-21.796 4.755,-21.761C4.118,-21.693 3.589,-21.545 3.051,-21.128C2.216,-20.482 1.715,-19.407 1.401,-18.39C1.049,-17.241 0.567,-16.166 0.32,-14.991" style="fill:rgb(235,99,100);fill-rule:nonzero;stroke:rgb(1,1,2);stroke-width:1px;"/>
            </g>
            <g transform="matrix(2.66667,0,0,2.66667,91.4454,76.2649)">
                <path d="M0,-6.381C-0.244,-6.425 -0.469,-6.513 -0.716,-6.409C-0.91,-6.328 -1.272,-5.995 -1.421,-5.811C-1.549,-5.652 -1.725,-5.277 -1.796,-5.082C-1.9,-4.796 -1.942,-4.484 -1.867,-4.2C-1.71,-3.604 -1.595,-2.959 -1.481,-2.341C-1.421,-2.006 -1.229,-1.715 -1.136,-1.385C-1.045,-1.065 -1.041,-0.723 -0.915,-0.416C-0.783,-0.094 -0.663,0.072 -0.32,0.1C0.058,0.132 0.482,-0.205 0.726,-0.524C0.93,-0.791 0.975,-1.146 1.037,-1.467C1.067,-1.623 1.12,-1.791 1.14,-1.948C1.17,-2.196 1.06,-2.41 1.064,-2.647C1.066,-2.754 1.107,-2.859 1.101,-2.96C1.091,-3.087 1.008,-3.19 0.979,-3.314C0.903,-3.625 0.94,-3.975 0.857,-4.282C0.815,-4.436 0.704,-4.553 0.662,-4.703C0.603,-4.913 0.689,-5.091 0.657,-5.288C0.623,-5.498 0.463,-5.686 0.366,-5.859C0.274,-6.023 0.218,-6.208 0.107,-6.36" style="fill:rgb(235,99,100);fill-rule:nonzero;stroke:rgb(1,1,2);stroke-width:1px;"/>
            </g>
        </g>
        <g>
            <g transform="matrix(2.66667,0,0,2.66667,38.9139,168.955)">
                <path d="M0,-2.628C0.007,-2.871 -0.032,-3.065 0.026,-3.309C0.084,-3.549 0.218,-3.734 0.276,-3.977C0.404,-4.5 0.478,-5.047 0.585,-5.575C0.656,-5.925 0.632,-6.195 0.654,-6.537C0.685,-6.994 0.831,-7.515 0.933,-7.964C1.054,-8.501 1.314,-8.989 1.335,-9.546C1.347,-9.849 1.312,-10.178 1.299,-10.478C1.283,-10.826 1.179,-11.19 1.136,-11.538C1.104,-11.802 1.044,-12.137 0.908,-12.359C0.784,-12.561 0.585,-12.639 0.444,-12.825C0.269,-13.059 0.139,-13.344 -0.076,-13.546C-0.486,-13.93 -1.34,-13.866 -1.864,-14.002C-2.161,-14.079 -2.404,-14.238 -2.712,-14.294C-3.068,-14.358 -3.424,-14.431 -3.779,-14.501C-4.072,-14.558 -4.346,-14.646 -4.645,-14.581C-4.893,-14.528 -5.06,-14.505 -5.312,-14.557C-5.546,-14.606 -5.82,-14.705 -6.057,-14.711C-6.317,-14.718 -6.597,-14.504 -6.851,-14.615L-7.62,-14.644C-7.76,-14.529 -8.039,-14.568 -8.199,-14.518C-8.434,-14.443 -8.656,-14.346 -8.879,-14.226C-9.38,-13.956 -9.82,-13.525 -10.155,-13.03C-10.392,-12.679 -10.513,-12.352 -10.678,-11.962C-10.936,-11.355 -11.155,-10.733 -11.279,-10.081C-11.489,-8.976 -11.706,-7.872 -11.925,-6.769C-12.013,-6.323 -12.038,-5.887 -12.079,-5.441C-12.1,-5.21 -12.042,-5.014 -12.086,-4.78C-12.143,-4.475 -12.303,-4.233 -12.369,-3.931C-12.429,-3.659 -12.494,-3.378 -12.501,-3.101C-12.509,-2.8 -12.574,-2.725 -12.663,-2.44C-12.83,-1.907 -12.756,-1.35 -12.864,-0.809C-12.973,-0.27 -13.074,0.269 -13.18,0.809C-13.247,1.154 -13.313,1.5 -13.382,1.845C-13.471,2.283 -13.445,2.699 -13.517,3.131C-13.56,3.387 -13.632,3.637 -13.674,3.892C-13.729,4.225 -13.694,4.55 -13.749,4.883C-13.787,5.113 -13.871,5.347 -13.893,5.578C-13.923,5.902 -13.905,6.174 -13.96,6.505C-14.051,7.06 -13.958,7.608 -14.062,8.171C-14.174,8.778 -13.965,9.536 -13.675,10.049C-13.416,10.506 -13.106,10.887 -12.635,11.092C-12.175,11.292 -11.604,11.317 -11.115,11.412C-10.644,11.504 -10.212,11.583 -9.77,11.768C-9.344,11.946 -8.892,11.934 -8.441,11.903C-8.167,11.885 -7.987,11.914 -7.712,11.959C-7.462,12 -7.225,11.944 -6.98,11.973C-6.48,12.029 -5.97,12.09 -5.466,12.043C-4.995,12 -4.468,11.92 -4.024,11.71C-3.527,11.474 -3.264,10.876 -3.021,10.379C-2.727,9.778 -2.633,9.144 -2.492,8.492C-2.427,8.19 -2.28,7.931 -2.205,7.634C-2.143,7.382 -2.11,7.116 -2.061,6.861C-1.928,6.181 -1.682,5.536 -1.558,4.86C-1.425,4.133 -1.277,3.408 -1.136,2.683C-1.064,2.318 -1.032,1.914 -0.895,1.568C-0.781,1.286 -0.706,1.053 -0.647,0.745C-0.503,-0.024 -0.349,-0.79 -0.199,-1.557C-0.132,-1.903 -0.01,-2.279 0,-2.628" style="fill:rgb(235,99,100);fill-rule:nonzero;"/>
            </g>
            <g transform="matrix(2.66667,0,0,2.66667,38.9139,168.955)">
                <path d="M0,-2.628C0.007,-2.871 -0.032,-3.065 0.026,-3.309C0.084,-3.549 0.218,-3.734 0.276,-3.977C0.404,-4.5 0.478,-5.047 0.585,-5.575C0.656,-5.925 0.632,-6.195 0.654,-6.537C0.685,-6.994 0.831,-7.515 0.933,-7.964C1.054,-8.501 1.314,-8.989 1.335,-9.546C1.347,-9.849 1.312,-10.178 1.299,-10.478C1.283,-10.826 1.179,-11.19 1.136,-11.538C1.104,-11.802 1.044,-12.137 0.908,-12.359C0.784,-12.561 0.585,-12.639 0.444,-12.825C0.269,-13.059 0.139,-13.344 -0.076,-13.546C-0.486,-13.93 -1.34,-13.866 -1.864,-14.002C-2.161,-14.079 -2.404,-14.238 -2.712,-14.294C-3.068,-14.358 -3.424,-14.431 -3.779,-14.501C-4.072,-14.558 -4.346,-14.646 -4.645,-14.581C-4.893,-14.528 -5.06,-14.505 -5.312,-14.557C-5.546,-14.606 -5.82,-14.705 -6.057,-14.711C-6.317,-14.718 -6.597,-14.504 -6.851,-14.615L-7.62,-14.644C-7.76,-14.529 -8.039,-14.568 -8.199,-14.518C-8.434,-14.443 -8.656,-14.346 -8.879,-14.226C-9.38,-13.956 -9.82,-13.525 -10.155,-13.03C-10.392,-12.679 -10.513,-12.352 -10.678,-11.962C-10.936,-11.355 -11.155,-10.733 -11.279,-10.081C-11.489,-8.976 -11.706,-7.872 -11.925,-6.769C-12.013,-6.323 -12.038,-5.887 -12.079,-5.441C-12.1,-5.21 -12.042,-5.014 -12.086,-4.78C-12.143,-4.475 -12.303,-4.233 -12.369,-3.931C-12.429,-3.659 -12.494,-3.378 -12.501,-3.101C-12.509,-2.8 -12.574,-2.725 -12.663,-2.44C-12.83,-1.907 -12.756,-1.35 -12.864,-0.809C-12.973,-0.27 -13.074,0.269 -13.18,0.809C-13.247,1.154 -13.313,1.5 -13.382,1.845C-13.471,2.283 -13.445,2.699 -13.517,3.131C-13.56,3.387 -13.632,3.637 -13.674,3.892C-13.729,4.225 -13.694,4.55 -13.749,4.883C-13.787,5.113 -13.871,5.347 -13.893,5.578C-13.923,5.902 -13.905,6.174 -13.96,6.505C-14.051,7.06 -13.958,7.608 -14.062,8.171C-14.174,8.778 -13.965,9.536 -13.675,10.049C-13.416,10.506 -13.106,10.887 -12.635,11.092C-12.175,11.292 -11.604,11.317 -11.115,11.412C-10.644,11.504 -10.212,11.583 -9.77,11.768C-9.344,11.946 -8.892,11.934 -8.441,11.903C-8.167,11.885 -7.987,11.914 -7.712,11.959C-7.462,12 -7.225,11.944 -6.98,11.973C-6.48,12.029 -5.97,12.09 -5.466,12.043C-4.995,12 -4.468,11.92 -4.024,11.71C-3.527,11.474 -3.264,10.876 -3.021,10.379C-2.727,9.778 -2.633,9.144 -2.492,8.492C-2.427,8.19 -2.28,7.931 -2.205,7.634C-2.143,7.382 -2.11,7.116 -2.061,6.861C-1.928,6.181 -1.682,5.536 -1.558,4.86C-1.425,4.133 -1.277,3.408 -1.136,2.683C-1.064,2.318 -1.032,1.914 -0.895,1.568C-0.781,1.286 -0.706,1.053 -0.647,0.745C-0.503,-0.024 -0.349,-0.79 -0.199,-1.557C-0.132,-1.903 -0.01,-2.279 0,-2.628Z" style="fill:none;fill-rule:nonzero;stroke:rgb(1,1,2);stroke-width:1px;"/>
            </g>
            <g transform="matrix(2.66667,0,0,2.66667,18.8177,144.745)">
                <path d="M0,0.259C0.212,-0.217 0.583,-0.556 0.942,-0.915C1.373,-1.345 1.908,-1.612 2.415,-1.902C2.715,-2.074 2.892,-2.109 3.215,-2.139C3.394,-2.156 3.774,-2.125 3.922,-2.244L3.747,-1.915C4.248,-1.92 4.58,-1.176 4.394,-0.706C4.274,-0.407 4.048,-0.105 3.896,0.187C3.738,0.488 3.492,0.718 3.246,0.941C3.064,1.105 2.865,1.265 2.644,1.348C2.369,1.451 2.126,1.579 1.851,1.704C1.341,1.934 0.578,2.503 0.076,2.101C-0.439,1.689 -0.245,0.807 0,0.259" style="fill:rgb(255,242,0);fill-rule:nonzero;"/>
            </g>
            <g transform="matrix(2.66667,0,0,2.66667,18.8177,144.745)">
                <path d="M0,0.259C0.212,-0.217 0.583,-0.556 0.942,-0.915C1.373,-1.345 1.908,-1.612 2.415,-1.902C2.715,-2.074 2.892,-2.109 3.215,-2.139C3.394,-2.156 3.774,-2.125 3.922,-2.244L3.747,-1.915C4.248,-1.92 4.58,-1.176 4.394,-0.706C4.274,-0.407 4.048,-0.105 3.896,0.187C3.738,0.488 3.492,0.718 3.246,0.941C3.064,1.105 2.865,1.265 2.644,1.348C2.369,1.451 2.126,1.579 1.851,1.704C1.341,1.934 0.578,2.503 0.076,2.101C-0.439,1.689 -0.245,0.807 0,0.259Z" style="fill:none;fill-rule:nonzero;stroke:rgb(1,1,2);stroke-width:1px;"/>
            </g>
            <g transform="matrix(2.66667,0,0,2.66667,24.3619,185.58)">
                <path d="M0,-1.929C-0.121,-1.655 -0.367,-1.327 -0.545,-1.08C-0.726,-0.828 -0.999,-0.758 -1.238,-0.592C-1.736,-0.246 -2.234,0.119 -2.725,0.487C-3.073,0.748 -3.813,1.363 -4.185,0.999C-4.809,0.388 -4.292,-0.728 -3.812,-1.288C-3.644,-1.483 -3.404,-1.633 -3.218,-1.818C-3.006,-2.029 -2.798,-2.236 -2.555,-2.399C-2.301,-2.57 -2.035,-2.722 -1.785,-2.901C-1.563,-3.059 -1.341,-3.292 -1.058,-3.241L-0.607,-3.275C-0.312,-2.889 0.271,-2.544 0,-1.929" style="fill:rgb(255,242,0);fill-rule:nonzero;"/>
            </g>
            <g transform="matrix(2.66667,0,0,2.66667,24.3619,185.58)">
                <path d="M0,-1.929C-0.121,-1.655 -0.367,-1.327 -0.545,-1.08C-0.726,-0.828 -0.999,-0.758 -1.238,-0.592C-1.736,-0.246 -2.234,0.119 -2.725,0.487C-3.073,0.748 -3.813,1.363 -4.185,0.999C-4.809,0.388 -4.292,-0.728 -3.812,-1.288C-3.644,-1.483 -3.404,-1.633 -3.218,-1.818C-3.006,-2.029 -2.798,-2.236 -2.555,-2.399C-2.301,-2.57 -2.035,-2.722 -1.785,-2.901C-1.563,-3.059 -1.341,-3.292 -1.058,-3.241L-0.607,-3.275C-0.312,-2.889 0.271,-2.544 0,-1.929Z" style="fill:none;fill-rule:nonzero;stroke:rgb(1,1,2);stroke-width:1px;"/>
            </g>
            <g transform="matrix(2.66667,0,0,2.66667,28.1275,168.006)">
                <path d="M0,-1.493C-0.255,-0.925 -0.654,-0.434 -1.162,-0.108C-1.448,0.076 -1.748,0.176 -2.014,0.413C-2.243,0.617 -2.432,0.829 -2.679,1.009C-3.171,1.37 -3.624,1.709 -4.226,1.56C-4.646,1.456 -4.912,0.739 -4.749,0.303C-4.571,-0.174 -4.139,-0.627 -3.834,-1.006C-3.479,-1.447 -3.037,-1.782 -2.622,-2.152C-2.256,-2.48 -1.383,-3.202 -0.9,-3L-0.625,-2.704C-0.093,-3.04 0.179,-1.891 0,-1.493" style="fill:rgb(255,242,0);fill-rule:nonzero;"/>
            </g>
            <g transform="matrix(2.66667,0,0,2.66667,28.1275,168.006)">
                <path d="M0,-1.493C-0.255,-0.925 -0.654,-0.434 -1.162,-0.108C-1.448,0.076 -1.748,0.176 -2.014,0.413C-2.243,0.617 -2.432,0.829 -2.679,1.009C-3.171,1.37 -3.624,1.709 -4.226,1.56C-4.646,1.456 -4.912,0.739 -4.749,0.303C-4.571,-0.174 -4.139,-0.627 -3.834,-1.006C-3.479,-1.447 -3.037,-1.782 -2.622,-2.152C-2.256,-2.48 -1.383,-3.202 -0.9,-3L-0.625,-2.704C-0.093,-3.04 0.179,-1.891 0,-1.493Z" style="fill:none;fill-rule:nonzero;stroke:rgb(1,1,2);stroke-width:1px;"/>
            </g>
            <g transform="matrix(2.66667,0,0,2.66667,95.5494,192.562)">
                <path d="M0,-18.055C0.044,-18.381 -0.051,-18.657 -0.051,-18.973C-0.051,-19.194 0.012,-19.471 -0.033,-19.692C-0.196,-20.506 -1.081,-20.559 -1.646,-20.824C-1.963,-20.972 -2.301,-21.186 -2.631,-21.296C-3.033,-21.43 -3.435,-21.358 -3.84,-21.399C-4.481,-21.463 -5.107,-21.695 -5.746,-21.783C-6.117,-21.834 -6.483,-21.811 -6.854,-21.878C-7.289,-21.957 -7.837,-22.003 -8.283,-21.941C-8.933,-21.851 -9.573,-22.027 -10.224,-22.047C-10.487,-22.055 -10.821,-21.936 -11.072,-21.988C-11.204,-22.016 -11.229,-22.093 -11.343,-22.13C-11.556,-22.201 -11.715,-22.17 -11.951,-22.138C-12.122,-22.014 -12.24,-22.136 -12.41,-22.086C-12.495,-22.061 -12.593,-21.967 -12.658,-21.918C-12.93,-21.717 -13.101,-21.481 -13.278,-21.178C-13.52,-20.766 -13.64,-20.296 -13.732,-19.818C-13.938,-18.762 -14.144,-17.706 -14.35,-16.651C-14.474,-16.015 -14.628,-15.441 -14.838,-14.839C-14.951,-14.513 -15.025,-14.206 -15.121,-13.869C-15.275,-13.326 -15.539,-12.863 -15.643,-12.3C-15.764,-11.649 -15.894,-11.001 -16.02,-10.352C-16.089,-9.999 -16.161,-9.648 -16.227,-9.294C-16.296,-8.917 -16.464,-8.594 -16.55,-8.223C-16.648,-7.796 -16.684,-7.349 -16.793,-6.925C-16.898,-6.515 -17.057,-6.182 -17.137,-5.757C-17.292,-4.929 -17.459,-4.102 -17.62,-3.276C-17.729,-2.719 -17.836,-2.161 -17.945,-1.604C-18.067,-0.985 -18.072,-0.39 -18.193,0.237C-18.419,1.397 -18.832,3.146 -17.706,3.879C-17.335,4.12 -16.837,4.146 -16.407,4.094C-16.09,4.056 -15.782,4.013 -15.474,3.915C-14.997,3.764 -14.852,3.596 -14.473,3.287C-14.201,3.067 -13.839,2.936 -13.518,2.835C-13.371,2.789 -13.229,2.783 -13.088,2.729C-12.798,2.618 -12.574,2.338 -12.351,2.122C-11.744,1.535 -11.085,1.18 -10.681,0.365C-10.385,-0.23 -10.272,-1.338 -11.037,-1.521C-11.314,-1.587 -11.588,-1.551 -11.857,-1.436C-11.952,-1.396 -12.059,-1.286 -12.167,-1.268C-12.352,-1.237 -12.508,-1.309 -12.701,-1.266C-12.844,-1.483 -12.678,-1.93 -12.627,-2.178C-12.567,-2.473 -12.555,-2.73 -12.549,-3.019C-12.541,-3.41 -12.354,-3.681 -12.255,-4.045C-12.132,-4.494 -12.198,-4.963 -12.108,-5.418C-11.991,-6.018 -11.899,-6.611 -11.678,-7.177C-11.571,-7.449 -11.575,-7.742 -11.466,-8.007C-11.366,-8.251 -11.243,-8.564 -11.101,-8.788C-10.726,-9.378 -10.134,-9.105 -9.642,-8.982C-9.039,-8.831 -8.31,-8.644 -7.689,-8.693C-7.123,-8.737 -6.491,-8.734 -5.933,-8.629C-5.637,-8.574 -5.381,-8.619 -5.084,-8.588C-4.795,-8.557 -4.524,-8.438 -4.229,-8.44C-3.577,-8.445 -3.01,-8.889 -2.573,-9.396C-2.392,-9.608 -2.277,-9.819 -2.144,-10.066C-1.957,-10.411 -1.917,-10.73 -1.78,-11.094C-1.517,-11.798 -1.325,-12.558 -1.16,-13.299C-1.064,-13.726 -0.879,-14.116 -0.8,-14.547C-0.736,-14.894 -0.678,-15.239 -0.575,-15.576C-0.329,-16.376 -0.114,-17.221 0,-18.055" style="fill:rgb(235,99,100);fill-rule:nonzero;"/>
            </g>
            <g transform="matrix(2.66667,0,0,2.66667,95.5494,192.562)">
                <path d="M0,-18.055C0.044,-18.381 -0.051,-18.657 -0.051,-18.973C-0.051,-19.194 0.012,-19.471 -0.033,-19.692C-0.196,-20.506 -1.081,-20.559 -1.646,-20.824C-1.963,-20.972 -2.301,-21.186 -2.631,-21.296C-3.033,-21.43 -3.435,-21.358 -3.84,-21.399C-4.481,-21.463 -5.107,-21.695 -5.746,-21.783C-6.117,-21.834 -6.483,-21.811 -6.854,-21.878C-7.289,-21.957 -7.837,-22.003 -8.283,-21.941C-8.933,-21.851 -9.573,-22.027 -10.224,-22.047C-10.487,-22.055 -10.821,-21.936 -11.072,-21.988C-11.204,-22.016 -11.229,-22.093 -11.343,-22.13C-11.556,-22.201 -11.715,-22.17 -11.951,-22.138C-12.122,-22.014 -12.24,-22.136 -12.41,-22.086C-12.495,-22.061 -12.593,-21.967 -12.658,-21.918C-12.93,-21.717 -13.101,-21.481 -13.278,-21.178C-13.52,-20.766 -13.64,-20.296 -13.732,-19.818C-13.938,-18.762 -14.144,-17.706 -14.35,-16.651C-14.474,-16.015 -14.628,-15.441 -14.838,-14.839C-14.951,-14.513 -15.025,-14.206 -15.121,-13.869C-15.275,-13.326 -15.539,-12.863 -15.643,-12.3C-15.764,-11.649 -15.894,-11.001 -16.02,-10.352C-16.089,-9.999 -16.161,-9.648 -16.227,-9.294C-16.296,-8.917 -16.464,-8.594 -16.55,-8.223C-16.648,-7.796 -16.684,-7.349 -16.793,-6.925C-16.898,-6.515 -17.057,-6.182 -17.137,-5.757C-17.292,-4.929 -17.459,-4.102 -17.62,-3.276C-17.729,-2.719 -17.836,-2.161 -17.945,-1.604C-18.067,-0.985 -18.072,-0.39 -18.193,0.237C-18.419,1.397 -18.832,3.146 -17.706,3.879C-17.335,4.12 -16.837,4.146 -16.407,4.094C-16.09,4.056 -15.782,4.013 -15.474,3.915C-14.997,3.764 -14.852,3.596 -14.473,3.287C-14.201,3.067 -13.839,2.936 -13.518,2.835C-13.371,2.789 -13.229,2.783 -13.088,2.729C-12.798,2.618 -12.574,2.338 -12.351,2.122C-11.744,1.535 -11.085,1.18 -10.681,0.365C-10.385,-0.23 -10.272,-1.338 -11.037,-1.521C-11.314,-1.587 -11.588,-1.551 -11.857,-1.436C-11.952,-1.396 -12.059,-1.286 -12.167,-1.268C-12.352,-1.237 -12.508,-1.309 -12.701,-1.266C-12.844,-1.483 -12.678,-1.93 -12.627,-2.178C-12.567,-2.473 -12.555,-2.73 -12.549,-3.019C-12.541,-3.41 -12.354,-3.681 -12.255,-4.045C-12.132,-4.494 -12.198,-4.963 -12.108,-5.418C-11.991,-6.018 -11.899,-6.611 -11.678,-7.177C-11.571,-7.449 -11.575,-7.742 -11.466,-8.007C-11.366,-8.251 -11.243,-8.564 -11.101,-8.788C-10.726,-9.378 -10.134,-9.105 -9.642,-8.982C-9.039,-8.831 -8.31,-8.644 -7.689,-8.693C-7.123,-8.737 -6.491,-8.734 -5.933,-8.629C-5.637,-8.574 -5.381,-8.619 -5.084,-8.588C-4.795,-8.557 -4.524,-8.438 -4.229,-8.44C-3.577,-8.445 -3.01,-8.889 -2.573,-9.396C-2.392,-9.608 -2.277,-9.819 -2.144,-10.066C-1.957,-10.411 -1.917,-10.73 -1.78,-11.094C-1.517,-11.798 -1.325,-12.558 -1.16,-13.299C-1.064,-13.726 -0.879,-14.116 -0.8,-14.547C-0.736,-14.894 -0.678,-15.239 -0.575,-15.576C-0.329,-16.376 -0.114,-17.221 0,-18.055Z" style="fill:none;fill-rule:nonzero;stroke:rgb(1,1,2);stroke-width:1px;"/>
            </g>
            <g transform="matrix(2.66667,0,0,2.66667,70.0571,142.446)">
                <path d="M0,0.844C-0.222,0.45 -0.098,-0.239 0.216,-0.565C0.643,-1.007 1.153,-1.215 1.712,-1.093L1.835,-0.586C2.16,-0.695 2.548,-0.822 2.862,-0.693C3.007,-0.633 3.136,-0.548 3.296,-0.534C3.439,-0.522 3.578,-0.587 3.721,-0.575C3.944,-0.557 4.099,-0.382 4.334,-0.34C4.578,-0.296 4.948,-0.302 5.116,-0.113C5.254,0.042 5.351,0.37 5.403,0.584C5.499,0.972 5.451,1.266 5.192,1.555C4.74,2.059 4.009,1.993 3.424,1.934C3.228,1.914 3.093,1.873 2.905,1.815C2.737,1.763 2.531,1.775 2.375,1.704C2.085,1.573 1.862,1.448 1.527,1.405C0.89,1.323 0.379,1.518 0,0.844" style="fill:white;fill-rule:nonzero;"/>
            </g>
            <g transform="matrix(2.66667,0,0,2.66667,70.0571,142.446)">
                <path d="M0,0.844C-0.222,0.45 -0.098,-0.239 0.216,-0.565C0.643,-1.007 1.153,-1.215 1.712,-1.093L1.835,-0.586C2.16,-0.695 2.548,-0.822 2.862,-0.693C3.007,-0.633 3.136,-0.548 3.296,-0.534C3.439,-0.522 3.578,-0.587 3.721,-0.575C3.944,-0.557 4.099,-0.382 4.334,-0.34C4.578,-0.296 4.948,-0.302 5.116,-0.113C5.254,0.042 5.351,0.37 5.403,0.584C5.499,0.972 5.451,1.266 5.192,1.555C4.74,2.059 4.009,1.993 3.424,1.934C3.228,1.914 3.093,1.873 2.905,1.815C2.737,1.763 2.531,1.775 2.375,1.704C2.085,1.573 1.862,1.448 1.527,1.405C0.89,1.323 0.379,1.518 0,0.844Z" style="fill:rgb(251,239,22);fill-rule:nonzero;stroke:rgb(1,1,2);stroke-width:1px;"/>
            </g>
            <g transform="matrix(2.66667,0,0,2.66667,80.2734,154.034)">
                <path d="M0,2.353C-0.564,2.614 -1.197,2.61 -1.774,2.492C-2.425,2.359 -3.09,2.481 -3.737,2.352C-4.002,2.3 -4.253,2.306 -4.416,2.044C-4.553,1.823 -4.57,1.536 -4.538,1.273C-4.454,0.596 -4.032,0.288 -3.506,-0.029C-3.313,-0.144 -3.129,-0.151 -2.921,-0.181C-2.737,-0.207 -2.395,-0.131 -2.241,-0.261L-2.051,-0.103C-1.856,-0.078 -1.691,-0.195 -1.504,-0.215C-1.334,-0.232 -1.152,-0.203 -0.982,-0.198C-0.66,-0.188 -0.332,-0.162 -0.019,-0.074C0.188,-0.017 0.505,0.107 0.644,0.286C0.722,0.387 0.737,0.551 0.791,0.667C0.858,0.815 0.988,0.959 1.017,1.127C1.131,1.797 0.436,2.152 0,2.353" style="fill:rgb(251,239,22);fill-rule:nonzero;"/>
            </g>
            <g transform="matrix(2.66667,0,0,2.66667,80.2734,154.034)">
                <path d="M0,2.353C-0.564,2.614 -1.197,2.61 -1.774,2.492C-2.425,2.359 -3.09,2.481 -3.737,2.352C-4.002,2.3 -4.253,2.306 -4.416,2.044C-4.553,1.823 -4.57,1.536 -4.538,1.273C-4.454,0.596 -4.032,0.288 -3.506,-0.029C-3.313,-0.144 -3.129,-0.151 -2.921,-0.181C-2.737,-0.207 -2.395,-0.131 -2.241,-0.261L-2.051,-0.103C-1.856,-0.078 -1.691,-0.195 -1.504,-0.215C-1.334,-0.232 -1.152,-0.203 -0.982,-0.198C-0.66,-0.188 -0.332,-0.162 -0.019,-0.074C0.188,-0.017 0.505,0.107 0.644,0.286C0.722,0.387 0.737,0.551 0.791,0.667C0.858,0.815 0.988,0.959 1.017,1.127C1.131,1.797 0.436,2.152 0,2.353Z" style="fill:none;fill-rule:nonzero;stroke:rgb(1,1,2);stroke-width:1px;"/>
            </g>
            <g transform="matrix(2.66667,0,0,2.66667,91.2969,206.826)">
                <path d="M0,-12.404C-0.423,-12.551 -1.108,-12.251 -1.424,-11.931C-1.648,-11.703 -1.771,-11.434 -2.003,-11.221C-2.211,-11.03 -2.375,-10.809 -2.57,-10.603C-2.769,-10.393 -2.813,-10.195 -3.062,-10.328C-3.277,-10.444 -3.43,-10.735 -3.608,-10.902C-3.848,-11.128 -4.178,-11.195 -4.443,-11.357C-4.542,-11.417 -4.605,-11.54 -4.699,-11.602C-4.828,-11.687 -4.994,-11.72 -5.132,-11.797C-5.42,-11.958 -5.598,-12.078 -5.936,-11.963C-6.197,-11.873 -6.438,-11.637 -6.622,-11.422C-6.781,-11.237 -6.953,-11.011 -7.052,-10.782C-7.239,-10.347 -7.07,-10.046 -6.921,-9.634C-6.667,-8.934 -6.467,-8.218 -5.999,-7.645C-5.554,-7.099 -5.249,-6.441 -4.808,-5.894C-4.568,-5.598 -4.389,-5.261 -4.134,-4.98C-3.882,-4.702 -3.764,-4.487 -3.603,-4.149C-3.282,-3.48 -2.923,-2.679 -2.447,-2.12C-2.229,-1.863 -2.001,-1.67 -1.81,-1.378C-1.6,-1.057 -1.345,-0.878 -1.066,-0.634C-0.842,-0.439 -0.782,-0.238 -0.507,-0.16C-0.411,-0.133 -0.308,-0.13 -0.21,-0.107C-0.008,-0.06 0.152,0.06 0.347,0.104C0.495,0.138 0.638,0.086 0.789,0.082C0.85,0.081 0.923,0.147 0.985,0.14C1.316,0.106 1.657,-0.139 1.882,-0.4C2.086,-0.635 2.173,-0.82 2.238,-1.134C2.271,-1.287 2.312,-1.451 2.336,-1.607C2.385,-1.916 2.267,-2.086 2.21,-2.367C2.14,-2.71 2.137,-3.003 2.002,-3.333C1.86,-3.677 1.684,-4.002 1.528,-4.339C1.226,-4.998 0.685,-5.485 0.352,-6.135C0.188,-6.454 0.062,-6.774 -0.129,-7.082C-0.294,-7.349 -0.534,-7.643 -0.621,-7.954C-0.651,-8.066 -0.655,-8.191 -0.688,-8.307C-0.783,-8.376 -0.819,-8.472 -0.798,-8.593C-0.732,-8.694 -0.648,-8.765 -0.546,-8.809C-0.225,-9.014 0.115,-9.164 0.417,-9.416C0.867,-9.791 1.256,-10.338 1.373,-10.927C1.441,-11.269 1.507,-11.629 1.276,-11.916C1.2,-12.01 0.989,-12.166 0.879,-12.244C0.629,-12.422 0.508,-12.363 0.214,-12.362" style="fill:rgb(235,99,100);fill-rule:nonzero;stroke:rgb(1,1,2);stroke-width:1px;"/>
            </g>
        </g>
    </g>
</svg>
