<?xml version="1.0" encoding="UTF-8" standalone="no"?>
<!DOCTYPE svg PUBLIC "-//W3C//DTD SVG 1.1//EN" "http://www.w3.org/Graphics/SVG/1.1/DTD/svg11.dtd">
<svg width="100%" height="100%" viewBox="0 0 518 376" version="1.1" xmlns="http://www.w3.org/2000/svg" xmlns:xlink="http://www.w3.org/1999/xlink" xml:space="preserve" xmlns:serif="http://www.serif.com/" style="fill-rule:evenodd;clip-rule:evenodd;stroke-linecap:round;stroke-linejoin:round;stroke-miterlimit:10;">
    <g transform="matrix(2.66667,0,0,2.66667,536.254,159.685)">
        <path d="M0,82.582C0.001,81.907 0.077,81.197 -0.05,80.528C-0.148,80.009 -0.228,79.644 -0.224,79.102C-0.217,78.108 -0.142,77.074 -0.337,76.102C-0.516,75.214 -0.42,74.331 -0.44,73.426C-0.455,72.81 -0.591,72.228 -0.652,71.618C-0.733,70.814 -0.715,70.008 -0.838,69.201C-0.954,68.439 -1.071,67.682 -1.193,66.926L-1.193,36.668C-1.527,36.445 -1.827,36.288 -2.143,35.995C-2.425,35.733 -2.75,35.544 -3.076,35.336C-3.746,34.908 -4.439,34.521 -5.08,34.042C-6.799,32.753 -8.297,31.25 -9.92,29.851C-12.83,27.342 -15.853,24.929 -18.916,22.606C-20.268,21.582 -21.664,20.632 -22.969,19.539C-23.62,18.994 -24.21,18.316 -24.963,17.901C-25.465,17.625 -25.939,17.438 -26.382,17.061C-28.068,15.621 -29.546,13.857 -31.165,12.338C-32.613,10.979 -33.964,9.402 -35.522,8.164C-36.118,7.689 -36.653,7.212 -37.191,6.67C-37.751,6.105 -38.102,5.388 -38.636,4.838C-39.075,4.386 -39.406,4.141 -39.649,3.511C-39.769,3.201 -39.878,2.794 -40.069,2.503C-40.459,1.911 -41.144,1.383 -41.617,0.852C-42.177,0.223 -42.741,-0.411 -43.334,-1.011C-44.426,-2.115 -45.633,-2.689 -47.147,-2.945C-48.405,-3.159 -49.883,-2.964 -51.161,-2.964C-52.521,-2.964 -53.774,-3.057 -55.111,-3.225C-57.041,-3.467 -58.813,-3.944 -60.268,-5.304C-61.112,-6.093 -61.853,-7.019 -62.223,-8.122C-62.648,-9.39 -62.688,-10.528 -62.706,-11.844C-62.71,-12.115 -62.676,-12.373 -62.623,-12.623C-62.945,-12.63 -63.268,-12.64 -63.589,-12.709C-64.037,-12.806 -64.651,-12.828 -65.1,-12.709C-66.107,-12.44 -67.234,-12.314 -68.305,-12.321C-68.886,-12.325 -69.342,-12.13 -69.888,-12.1C-70.396,-12.071 -70.892,-12.153 -71.396,-12.056C-71.989,-11.94 -72.671,-11.795 -73.248,-11.822C-73.891,-11.852 -74.353,-12.303 -75.002,-12.329C-76.051,-12.374 -77.118,-12.322 -78.169,-12.322C-78.578,-12.322 -79.063,-12.24 -79.463,-12.311C-79.951,-12.397 -80.244,-12.543 -80.769,-12.539C-80.783,-12.539 -80.798,-12.54 -80.813,-12.54C-80.835,-12.485 -80.854,-12.427 -80.879,-12.373C-81.361,-11.32 -81.898,-10.304 -82.609,-9.385C-83.528,-8.197 -84.438,-7.436 -85.774,-6.765C-87.656,-5.82 -89.856,-5.577 -91.927,-5.575C-93.074,-5.575 -94.281,-5.46 -95.416,-5.595C-96.63,-5.738 -97.87,-5.73 -99.006,-6.225C-99.929,-6.627 -100.846,-7.057 -101.617,-7.704C-101.993,-8.021 -102.408,-8.272 -102.754,-8.625C-103.105,-8.985 -103.273,-9.371 -103.783,-9.048C-104.229,-8.765 -104.606,-7.895 -104.901,-7.473C-105.281,-6.929 -105.69,-6.416 -106.092,-5.888C-107.674,-3.808 -109.227,-1.645 -111.011,0.271C-111.83,1.151 -112.703,2.157 -113.286,3.217C-113.886,4.306 -114.594,5.23 -115.307,6.246C-116.125,7.411 -116.939,8.52 -117.642,9.759C-118.073,10.52 -118.674,11.173 -119.111,11.929C-119.268,11.962 -119.424,11.995 -119.58,12.031C-122.363,12.68 -125.14,13.698 -127.671,15.022C-128.957,15.696 -130.179,16.498 -131.389,17.299C-132.204,17.838 -133.058,18.457 -133.646,19.254C-134.216,20.026 -134.913,21.373 -135.011,22.33C-135.096,23.168 -134.73,23.935 -134.788,24.776C-134.752,24.608 -134.728,24.438 -134.698,24.269L-134.771,24.845C-134.713,25.294 -134.888,25.598 -134.749,26.059C-134.62,26.484 -134.449,26.952 -134.341,27.428C-134.235,27.889 -134.401,28.383 -134.271,28.838C-134.21,29.052 -134.106,29.17 -134.095,29.447C-134.083,29.707 -134.115,29.971 -134.102,30.23C-134.069,30.852 -133.867,31.395 -133.872,32.032C-133.876,32.597 -133.988,33.288 -133.884,33.835C-133.838,34.074 -133.678,34.259 -133.635,34.498C-133.575,34.835 -133.617,35.162 -133.535,35.514C-133.4,36.083 -133.209,36.737 -133.195,37.311C-133.168,38.475 -132.818,39.671 -132.574,40.799C-132.297,42.08 -132.299,43.434 -132.057,44.726C-132.005,45.001 -131.868,45.205 -131.846,45.499C-131.821,45.818 -131.901,46.152 -131.862,46.471C-131.814,46.853 -131.642,47.162 -131.617,47.553C-131.596,47.908 -131.694,48.303 -131.638,48.653C-131.579,49.011 -131.408,49.291 -131.393,49.665C-131.38,49.968 -131.435,50.266 -131.382,50.563C-131.261,51.25 -131.109,51.928 -130.974,52.613C-130.839,53.29 -130.824,53.991 -130.679,54.67C-130.587,55.096 -130.532,55.371 -130.509,55.82C-130.486,56.256 -130.303,56.621 -130.272,57.059C-130.226,57.717 -130.047,58.289 -130.06,58.976C-130.077,59.921 -129.745,60.78 -129.593,61.687C-129.554,61.919 -129.641,62.172 -129.616,62.406C-129.579,62.754 -129.407,63.045 -129.371,63.388C-129.312,63.962 -129.38,64.583 -129.38,65.161C-129.38,65.728 -129.45,66.331 -129.392,66.894C-129.353,67.265 -129.177,67.591 -129.144,67.966C-129.098,68.481 -129.221,68.983 -129.105,69.494C-128.77,70.977 -128.834,72.589 -128.714,74.121C-128.685,74.504 -128.508,74.838 -128.47,75.221C-128.442,75.493 -128.544,75.796 -128.493,76.063C-128.432,76.385 -128.269,76.61 -128.248,76.947C-128.226,77.317 -128.318,77.712 -128.269,78.078C-128.179,78.735 -127.997,79.395 -127.857,80.04C-127.784,80.38 -127.802,80.709 -127.808,81.055C-127.815,81.55 -127.726,81.932 -127.633,82.408C-127.508,83.051 -127.625,83.712 -127.591,84.362C-127.572,84.721 -127.448,85.006 -127.377,85.352C-127.287,85.792 -127.355,86.284 -127.357,86.735C-127.364,87.967 -126.934,89.144 -126.903,90.377C-126.891,90.941 -127.097,91.846 -126.684,92.306C-126.239,92.8 -125.191,92.681 -124.571,92.68C-123.839,92.678 -123.241,92.831 -122.541,92.916C-122.057,92.975 -121.561,92.857 -121.072,92.923C-120.601,92.986 -120.179,93.125 -119.699,93.134C-118.386,93.159 -117.04,93.183 -115.727,93.137C-114.996,93.111 -114.289,92.911 -113.553,92.893C-112.421,92.863 -111.287,92.983 -110.157,92.853C-108.296,92.642 -106.468,92.676 -104.589,92.687C-103.735,92.693 -102.919,92.528 -102.072,92.474C-100.803,92.393 -99.513,92.455 -98.241,92.455C-92.972,92.455 -87.794,92.38 -82.563,93.134C-80.18,93.478 -77.725,93.788 -75.322,93.603C-73.024,93.426 -70.735,93.943 -68.442,94.055C-65.725,94.186 -63.02,94.462 -60.309,94.667C-60.311,94.794 -60.313,94.921 -60.313,95.046L-60.313,95.41C-60.054,95.158 -59.761,94.939 -59.46,94.726C-58.094,94.82 -56.725,94.894 -55.353,94.913C-51.267,94.97 -47.205,95.375 -43.12,95.375C-41.909,95.375 -40.698,95.37 -39.488,95.374C-37.214,95.381 -34.994,95.007 -32.723,94.927C-31.095,94.869 -29.457,94.682 -27.828,94.692C-26.926,94.698 -26.014,94.743 -25.112,94.713C-24.247,94.684 -23.4,94.491 -22.533,94.465C-21.175,94.424 -19.815,94.553 -18.458,94.432C-16.675,94.271 -14.892,94.009 -13.113,93.821C-11.816,93.686 -10.505,93.746 -9.213,93.472C-8.453,93.311 -7.862,93.182 -7.088,93.141C-6.704,93.12 -6.387,92.947 -6.016,92.893C-5.569,92.826 -5.123,92.942 -4.674,92.859C-3.883,92.712 -3.144,92.329 -2.375,92.109C-2.146,92.043 -1.765,92.086 -1.567,91.994C-1.147,91.799 -1.085,90.953 -1.003,90.564C-0.642,88.854 -0.071,87.057 0.012,85.3C0.054,84.402 -0.002,83.481 0,82.582" style="fill:rgb(38,156,192);fill-rule:nonzero;"/>
    </g>
    <g transform="matrix(2.66667,0,0,2.66667,536.254,159.685)">
        <path d="M0,82.582C0.001,81.907 0.077,81.197 -0.05,80.528C-0.148,80.009 -0.228,79.644 -0.224,79.102C-0.217,78.108 -0.142,77.074 -0.337,76.102C-0.516,75.214 -0.42,74.331 -0.44,73.426C-0.455,72.81 -0.591,72.228 -0.652,71.618C-0.733,70.814 -0.715,70.008 -0.838,69.201C-0.954,68.439 -1.071,67.682 -1.193,66.926L-1.193,36.668C-1.527,36.445 -1.827,36.288 -2.143,35.995C-2.425,35.733 -2.75,35.544 -3.076,35.336C-3.746,34.908 -4.439,34.521 -5.08,34.042C-6.799,32.753 -8.297,31.25 -9.92,29.851C-12.83,27.342 -15.853,24.929 -18.916,22.606C-20.268,21.582 -21.664,20.632 -22.969,19.539C-23.62,18.994 -24.21,18.316 -24.963,17.901C-25.465,17.625 -25.939,17.438 -26.382,17.061C-28.068,15.621 -29.546,13.857 -31.165,12.338C-32.613,10.979 -33.964,9.402 -35.522,8.164C-36.118,7.689 -36.653,7.212 -37.191,6.67C-37.751,6.105 -38.102,5.388 -38.636,4.838C-39.075,4.386 -39.406,4.141 -39.649,3.511C-39.769,3.201 -39.878,2.794 -40.069,2.503C-40.459,1.911 -41.144,1.383 -41.617,0.852C-42.177,0.223 -42.741,-0.411 -43.334,-1.011C-44.426,-2.115 -45.633,-2.689 -47.147,-2.945C-48.405,-3.159 -49.883,-2.964 -51.161,-2.964C-52.521,-2.964 -53.774,-3.057 -55.111,-3.225C-57.041,-3.467 -58.813,-3.944 -60.268,-5.304C-61.112,-6.093 -61.853,-7.019 -62.223,-8.122C-62.648,-9.39 -62.688,-10.528 -62.706,-11.844C-62.71,-12.115 -62.676,-12.373 -62.623,-12.623C-62.945,-12.63 -63.268,-12.64 -63.589,-12.709C-64.037,-12.806 -64.651,-12.828 -65.1,-12.709C-66.107,-12.44 -67.234,-12.314 -68.305,-12.321C-68.886,-12.325 -69.342,-12.13 -69.888,-12.1C-70.396,-12.071 -70.892,-12.153 -71.396,-12.056C-71.989,-11.94 -72.671,-11.795 -73.248,-11.822C-73.891,-11.852 -74.353,-12.303 -75.002,-12.329C-76.051,-12.374 -77.118,-12.322 -78.169,-12.322C-78.578,-12.322 -79.063,-12.24 -79.463,-12.311C-79.951,-12.397 -80.244,-12.543 -80.769,-12.539C-80.783,-12.539 -80.798,-12.54 -80.813,-12.54C-80.835,-12.485 -80.854,-12.427 -80.879,-12.373C-81.361,-11.32 -81.898,-10.304 -82.609,-9.385C-83.528,-8.197 -84.438,-7.436 -85.774,-6.765C-87.656,-5.82 -89.856,-5.577 -91.927,-5.575C-93.074,-5.575 -94.281,-5.46 -95.416,-5.595C-96.63,-5.738 -97.87,-5.73 -99.006,-6.225C-99.929,-6.627 -100.846,-7.057 -101.617,-7.704C-101.993,-8.021 -102.408,-8.272 -102.754,-8.625C-103.105,-8.985 -103.273,-9.371 -103.783,-9.048C-104.229,-8.765 -104.606,-7.895 -104.901,-7.473C-105.281,-6.929 -105.69,-6.416 -106.092,-5.888C-107.674,-3.808 -109.227,-1.645 -111.011,0.271C-111.83,1.151 -112.703,2.157 -113.286,3.217C-113.886,4.306 -114.594,5.23 -115.307,6.246C-116.125,7.411 -116.939,8.52 -117.642,9.759C-118.073,10.52 -118.674,11.173 -119.111,11.929C-119.268,11.962 -119.424,11.995 -119.58,12.031C-122.363,12.68 -125.14,13.698 -127.671,15.022C-128.957,15.696 -130.179,16.498 -131.389,17.299C-132.204,17.838 -133.058,18.457 -133.646,19.254C-134.216,20.026 -134.913,21.373 -135.011,22.33C-135.096,23.168 -134.73,23.935 -134.788,24.776C-134.752,24.608 -134.728,24.438 -134.698,24.269L-134.771,24.845C-134.713,25.294 -134.888,25.598 -134.749,26.059C-134.62,26.484 -134.449,26.952 -134.341,27.428C-134.235,27.889 -134.401,28.383 -134.271,28.838C-134.21,29.052 -134.106,29.17 -134.095,29.447C-134.083,29.707 -134.115,29.971 -134.102,30.23C-134.069,30.852 -133.867,31.395 -133.872,32.032C-133.876,32.597 -133.988,33.288 -133.884,33.835C-133.838,34.074 -133.678,34.259 -133.635,34.498C-133.575,34.835 -133.617,35.162 -133.535,35.514C-133.4,36.083 -133.209,36.737 -133.195,37.311C-133.168,38.475 -132.818,39.671 -132.574,40.799C-132.297,42.08 -132.299,43.434 -132.057,44.726C-132.005,45.001 -131.868,45.205 -131.846,45.499C-131.821,45.818 -131.901,46.152 -131.862,46.471C-131.814,46.853 -131.642,47.162 -131.617,47.553C-131.596,47.908 -131.694,48.303 -131.638,48.653C-131.579,49.011 -131.408,49.291 -131.393,49.665C-131.38,49.968 -131.435,50.266 -131.382,50.563C-131.261,51.25 -131.109,51.928 -130.974,52.613C-130.839,53.29 -130.824,53.991 -130.679,54.67C-130.587,55.096 -130.532,55.371 -130.509,55.82C-130.486,56.256 -130.303,56.621 -130.272,57.059C-130.226,57.717 -130.047,58.289 -130.06,58.976C-130.077,59.921 -129.745,60.78 -129.593,61.687C-129.554,61.919 -129.641,62.172 -129.616,62.406C-129.579,62.754 -129.407,63.045 -129.371,63.388C-129.312,63.962 -129.38,64.583 -129.38,65.161C-129.38,65.728 -129.45,66.331 -129.392,66.894C-129.353,67.265 -129.177,67.591 -129.144,67.966C-129.098,68.481 -129.221,68.983 -129.105,69.494C-128.77,70.977 -128.834,72.589 -128.714,74.121C-128.685,74.504 -128.508,74.838 -128.47,75.221C-128.442,75.493 -128.544,75.796 -128.493,76.063C-128.432,76.385 -128.269,76.61 -128.248,76.947C-128.226,77.317 -128.318,77.712 -128.269,78.078C-128.179,78.735 -127.997,79.395 -127.857,80.04C-127.784,80.38 -127.802,80.709 -127.808,81.055C-127.815,81.55 -127.726,81.932 -127.633,82.408C-127.508,83.051 -127.625,83.712 -127.591,84.362C-127.572,84.721 -127.448,85.006 -127.377,85.352C-127.287,85.792 -127.355,86.284 -127.357,86.735C-127.364,87.967 -126.934,89.144 -126.903,90.377C-126.891,90.941 -127.097,91.846 -126.684,92.306C-126.239,92.8 -125.191,92.681 -124.571,92.68C-123.839,92.678 -123.241,92.831 -122.541,92.916C-122.057,92.975 -121.561,92.857 -121.072,92.923C-120.601,92.986 -120.179,93.125 -119.699,93.134C-118.386,93.159 -117.04,93.183 -115.727,93.137C-114.996,93.111 -114.289,92.911 -113.553,92.893C-112.421,92.863 -111.287,92.983 -110.157,92.853C-108.296,92.642 -106.468,92.676 -104.589,92.687C-103.735,92.693 -102.919,92.528 -102.072,92.474C-100.803,92.393 -99.513,92.455 -98.241,92.455C-92.972,92.455 -87.794,92.38 -82.563,93.134C-80.18,93.478 -77.725,93.788 -75.322,93.603C-73.024,93.426 -70.735,93.943 -68.442,94.055C-65.725,94.186 -63.02,94.462 -60.309,94.667C-60.311,94.794 -60.313,94.921 -60.313,95.046L-60.313,95.41C-60.054,95.158 -59.761,94.939 -59.46,94.726C-58.094,94.82 -56.725,94.894 -55.353,94.913C-51.267,94.97 -47.205,95.375 -43.12,95.375C-41.909,95.375 -40.698,95.37 -39.488,95.374C-37.214,95.381 -34.994,95.007 -32.723,94.927C-31.095,94.869 -29.457,94.682 -27.828,94.692C-26.926,94.698 -26.014,94.743 -25.112,94.713C-24.247,94.684 -23.4,94.491 -22.533,94.465C-21.175,94.424 -19.815,94.553 -18.458,94.432C-16.675,94.271 -14.892,94.009 -13.113,93.821C-11.816,93.686 -10.505,93.746 -9.213,93.472C-8.453,93.311 -7.862,93.182 -7.088,93.141C-6.704,93.12 -6.387,92.947 -6.016,92.893C-5.569,92.826 -5.123,92.942 -4.674,92.859C-3.883,92.712 -3.144,92.329 -2.375,92.109C-2.146,92.043 -1.765,92.086 -1.567,91.994C-1.147,91.799 -1.085,90.953 -1.003,90.564C-0.642,88.854 -0.071,87.057 0.012,85.3C0.054,84.402 -0.002,83.481 0,82.582Z" style="fill:none;fill-rule:nonzero;stroke:rgb(1,1,2);stroke-width:1px;"/>
    </g>
    <g transform="matrix(2.66667,0,0,2.66667,286.455,213.142)">
        <path d="M0,63.946C-0.2,62.964 -0.343,62.035 -0.908,61.171C-1.41,60.406 -2.285,59.657 -3,59.09C-3.48,58.709 -3.702,58.54 -4.035,58.054C-4.228,57.774 -4.479,57.576 -4.712,57.328C-6.265,55.672 -6.086,53.664 -6.086,51.561C-6.086,50.343 -6.229,49.037 -6.027,47.837C-5.818,46.587 -5.775,45.35 -5.818,44.08C-5.886,42.064 -6.906,40.107 -8.227,38.621C-9.168,37.562 -10.095,36.675 -11.381,36.04C-12.441,35.516 -13.235,35.206 -13.96,34.163C-14.702,33.093 -14.591,31.84 -14.784,30.633C-14.964,29.508 -15.131,28.294 -15.002,27.144C-14.913,26.353 -14.605,25.741 -14.772,24.911C-14.887,24.343 -15.054,23.77 -15.186,23.205C-15.405,22.26 -15.713,21.521 -16.215,20.677C-16.856,19.597 -17.646,18.5 -18.641,17.707C-19.27,17.206 -20.255,16.85 -21.03,16.592C-22.136,16.223 -23.21,15.41 -23.987,14.506C-24.391,14.036 -24.618,13.33 -24.881,12.757C-25.275,11.891 -25.418,10.789 -25.659,9.866C-25.854,9.117 -26.135,8.415 -26.279,7.661C-26.503,6.488 -26.383,5.396 -26.496,4.226C-26.581,3.358 -26.882,2.3 -27.184,1.483C-27.907,-0.479 -29.468,-1.929 -31.23,-2.987C-32.028,-3.465 -32.984,-3.795 -33.899,-3.962C-34.433,-4.059 -34.949,-3.973 -35.481,-4.07C-36.008,-4.164 -36.263,-4.297 -36.771,-4.229C-38.838,-3.951 -40.656,-2.862 -42.545,-2.109C-43.572,-1.699 -44.601,-1.142 -45.696,-0.917C-46.75,-0.701 -47.72,-1.01 -48.692,-1.388C-50.445,-2.07 -52.003,-3.117 -53.857,-3.489C-55.89,-3.895 -57.794,-4.224 -59.855,-3.816C-61.457,-3.498 -62.832,-3.045 -64.22,-2.18C-65.34,-1.482 -66.203,-0.708 -67.145,0.228C-67.526,0.608 -67.939,0.974 -68.305,1.368C-68.71,1.805 -68.697,2.077 -68.97,2.533C-69.237,2.979 -69.724,3.302 -70.047,3.711C-70.402,4.159 -70.637,4.55 -71.086,4.902C-71.72,5.401 -72.278,5.874 -72.854,6.461C-73.659,7.279 -74.438,7.765 -75.445,8.287C-76.299,8.73 -77.358,9.324 -78.292,9.55C-79.817,9.921 -81.255,10.583 -82.81,10.852C-83.728,11.011 -84.513,10.946 -85.429,11.24C-86.098,11.455 -86.675,11.782 -87.328,12.032C-88.105,12.328 -88.953,12.579 -89.676,12.987C-90.611,13.515 -91.544,14.492 -92.331,15.215C-92.976,15.807 -93.589,16.489 -94.086,17.214C-94.317,17.55 -94.427,17.897 -94.631,18.238C-94.918,18.717 -95.383,19.029 -95.653,19.539C-95.923,20.045 -96.039,20.606 -96.228,21.142C-96.476,21.846 -96.689,22.409 -96.688,23.172C-96.686,23.997 -97.032,24.659 -97.14,25.485C-97.306,26.753 -97.755,27.971 -97.726,29.243C-97.708,30.054 -97.827,30.561 -98.063,31.321C-98.474,32.646 -98.677,34.098 -99.357,35.346C-99.915,36.37 -100.996,36.798 -101.846,37.424C-102.9,38.2 -103.793,39.392 -104.483,40.507C-104.954,41.266 -105.109,42.155 -105.589,42.925C-106.023,43.623 -106.168,44.388 -106.44,45.154C-106.682,45.836 -106.82,46.656 -106.904,47.38C-106.997,48.173 -106.669,48.888 -106.616,49.664C-106.523,51.014 -106.345,52.211 -106.042,53.547C-105.852,54.383 -105.601,55.221 -105.321,56.026C-105.035,56.848 -104.943,57.806 -104.608,58.586C-104.342,59.206 -104.269,59.438 -104.274,60.15C-104.284,61.244 -104.356,62.236 -104.521,63.278C-104.69,64.347 -105.376,65.354 -105.597,66.421C-105.666,66.756 -105.547,67.164 -105.569,67.507C-105.586,67.759 -105.65,68.001 -105.715,68.243L-0.293,68.243C-0.25,67.869 -0.194,67.499 -0.129,67.134C0.079,65.972 0.235,65.107 0,63.946" style="fill:rgb(53,147,57);fill-rule:nonzero;"/>
    </g>
    <g transform="matrix(2.66667,0,0,2.66667,286.455,213.142)">
        <path d="M0,63.946C-0.2,62.964 -0.343,62.035 -0.908,61.171C-1.41,60.406 -2.285,59.657 -3,59.09C-3.48,58.709 -3.702,58.54 -4.035,58.054C-4.228,57.774 -4.479,57.576 -4.712,57.328C-6.265,55.672 -6.086,53.664 -6.086,51.561C-6.086,50.343 -6.229,49.037 -6.027,47.837C-5.818,46.587 -5.775,45.35 -5.818,44.08C-5.886,42.064 -6.906,40.107 -8.227,38.621C-9.168,37.562 -10.095,36.675 -11.381,36.04C-12.441,35.516 -13.235,35.206 -13.96,34.163C-14.702,33.093 -14.591,31.84 -14.784,30.633C-14.964,29.508 -15.131,28.294 -15.002,27.144C-14.913,26.353 -14.605,25.741 -14.772,24.911C-14.887,24.343 -15.054,23.77 -15.186,23.205C-15.405,22.26 -15.713,21.521 -16.215,20.677C-16.856,19.597 -17.646,18.5 -18.641,17.707C-19.27,17.206 -20.255,16.85 -21.03,16.592C-22.136,16.223 -23.21,15.41 -23.987,14.506C-24.391,14.036 -24.618,13.33 -24.881,12.757C-25.275,11.891 -25.418,10.789 -25.659,9.866C-25.854,9.117 -26.135,8.415 -26.279,7.661C-26.503,6.488 -26.383,5.396 -26.496,4.226C-26.581,3.358 -26.882,2.3 -27.184,1.483C-27.907,-0.479 -29.468,-1.929 -31.23,-2.987C-32.028,-3.465 -32.984,-3.795 -33.899,-3.962C-34.433,-4.059 -34.949,-3.973 -35.481,-4.07C-36.008,-4.164 -36.263,-4.297 -36.771,-4.229C-38.838,-3.951 -40.656,-2.862 -42.545,-2.109C-43.572,-1.699 -44.601,-1.142 -45.696,-0.917C-46.75,-0.701 -47.72,-1.01 -48.692,-1.388C-50.445,-2.07 -52.003,-3.117 -53.857,-3.489C-55.89,-3.895 -57.794,-4.224 -59.855,-3.816C-61.457,-3.498 -62.832,-3.045 -64.22,-2.18C-65.34,-1.482 -66.203,-0.708 -67.145,0.228C-67.526,0.608 -67.939,0.974 -68.305,1.368C-68.71,1.805 -68.697,2.077 -68.97,2.533C-69.237,2.979 -69.724,3.302 -70.047,3.711C-70.402,4.159 -70.637,4.55 -71.086,4.902C-71.72,5.401 -72.278,5.874 -72.854,6.461C-73.659,7.279 -74.438,7.765 -75.445,8.287C-76.299,8.73 -77.358,9.324 -78.292,9.55C-79.817,9.921 -81.255,10.583 -82.81,10.852C-83.728,11.011 -84.513,10.946 -85.429,11.24C-86.098,11.455 -86.675,11.782 -87.328,12.032C-88.105,12.328 -88.953,12.579 -89.676,12.987C-90.611,13.515 -91.544,14.492 -92.331,15.215C-92.976,15.807 -93.589,16.489 -94.086,17.214C-94.317,17.55 -94.427,17.897 -94.631,18.238C-94.918,18.717 -95.383,19.029 -95.653,19.539C-95.923,20.045 -96.039,20.606 -96.228,21.142C-96.476,21.846 -96.689,22.409 -96.688,23.172C-96.686,23.997 -97.032,24.659 -97.14,25.485C-97.306,26.753 -97.755,27.971 -97.726,29.243C-97.708,30.054 -97.827,30.561 -98.063,31.321C-98.474,32.646 -98.677,34.098 -99.357,35.346C-99.915,36.37 -100.996,36.798 -101.846,37.424C-102.9,38.2 -103.793,39.392 -104.483,40.507C-104.954,41.266 -105.109,42.155 -105.589,42.925C-106.023,43.623 -106.168,44.388 -106.44,45.154C-106.682,45.836 -106.82,46.656 -106.904,47.38C-106.997,48.173 -106.669,48.888 -106.616,49.664C-106.523,51.014 -106.345,52.211 -106.042,53.547C-105.852,54.383 -105.601,55.221 -105.321,56.026C-105.035,56.848 -104.943,57.806 -104.608,58.586C-104.342,59.206 -104.269,59.438 -104.274,60.15C-104.284,61.244 -104.356,62.236 -104.521,63.278C-104.69,64.347 -105.376,65.354 -105.597,66.421C-105.666,66.756 -105.547,67.164 -105.569,67.507C-105.586,67.759 -105.65,68.001 -105.715,68.243L-0.293,68.243C-0.25,67.869 -0.194,67.499 -0.129,67.134C0.079,65.972 0.235,65.107 0,63.946Z" style="fill:none;fill-rule:nonzero;stroke:rgb(1,1,2);stroke-width:1px;"/>
    </g>
    <g transform="matrix(2.66667,0,0,2.66667,423.585,61.0533)">
        <path d="M0,-0.143L-0.178,-0.054C-0.184,-0.037 -0.187,-0.018 -0.192,0C-0.128,-0.047 -0.063,-0.095 0,-0.143Z" style="fill:white;fill-rule:nonzero;stroke:rgb(1,1,2);stroke-width:1px;"/>
    </g>
    <g transform="matrix(2.66667,0,0,2.66667,532.684,140.337)">
        <path d="M0,-2.509C-0.797,-2.91 -1.57,-3.222 -2.399,-3.543C-2.88,-3.729 -3.319,-3.922 -3.752,-4.148C-3.863,-4.206 -4.043,-4.17 -4.141,-4.238C-4.298,-4.349 -4.413,-4.558 -4.559,-4.685C-4.869,-4.956 -5.241,-5.116 -5.551,-5.384C-5.875,-5.664 -6.01,-6.041 -6.3,-6.322C-6.549,-6.565 -6.984,-6.717 -7.29,-6.836C-7.659,-6.981 -7.897,-7.136 -8.21,-7.302C-8.484,-7.448 -8.741,-7.466 -9.05,-7.585C-9.45,-7.738 -9.881,-7.973 -10.275,-8.161C-11.151,-8.579 -11.733,-9.315 -12.616,-9.695C-13.022,-9.87 -13.348,-9.791 -13.77,-9.843C-14.289,-9.905 -14.771,-10.19 -15.184,-10.501C-15.521,-10.755 -15.662,-11.137 -15.93,-11.394C-16.231,-11.684 -16.88,-11.698 -17.294,-11.837C-17.702,-11.973 -18.093,-12.146 -18.49,-12.302C-19.191,-12.578 -19.302,-12.659 -19.758,-13.282C-20.049,-13.68 -20.031,-13.942 -20.02,-14.435C-20.003,-15.048 -19.94,-15.163 -19.478,-15.623C-19.102,-15.997 -18.671,-16.23 -18.279,-16.585C-17.685,-17.124 -17.367,-17.795 -16.876,-18.418C-16.215,-19.257 -15.726,-20.286 -15.142,-21.196C-14.346,-22.436 -14.056,-23.825 -13.365,-25.086C-12.705,-26.292 -12.348,-27.564 -11.751,-28.797C-11.156,-30.027 -10.968,-31.283 -10.608,-32.581C-10.256,-33.856 -9.736,-35.057 -10.224,-36.348C-10.753,-37.751 -11.794,-38.139 -13.227,-38.143C-13.789,-38.144 -14.278,-38.144 -14.797,-37.882C-15.404,-37.575 -15.808,-36.936 -16.414,-36.675C-16.454,-37.367 -15.806,-38.153 -15.604,-38.803C-15.386,-39.502 -15.459,-40.196 -15.451,-40.919C-15.443,-41.678 -15.594,-42.318 -16.137,-42.887C-16.843,-43.628 -17.982,-43.409 -18.878,-43.208C-19.369,-43.098 -19.812,-42.874 -20.286,-42.756C-20.631,-42.671 -20.981,-42.787 -21.32,-42.688C-22.188,-42.433 -22.899,-41.538 -23.612,-41.022C-23.892,-40.82 -24.456,-40.218 -24.829,-40.371C-25.155,-40.505 -25.036,-41.389 -25.031,-41.675C-25.012,-42.614 -25.082,-43.69 -25.47,-44.566C-26.296,-46.433 -29.203,-45.763 -30.691,-45.335C-31.263,-45.171 -31.522,-44.93 -31.937,-44.507C-32.347,-44.087 -32.826,-43.765 -33.267,-43.377C-34.441,-42.343 -35.387,-41.211 -36.241,-39.906C-36.876,-38.935 -37.525,-37.962 -38.101,-36.963C-38.662,-35.989 -39.027,-34.94 -39.601,-33.996C-40.091,-33.189 -40.36,-32.28 -40.696,-31.399C-40.904,-30.853 -40.924,-30.324 -41.09,-29.785L-40.912,-29.874C-40.976,-29.826 -41.04,-29.779 -41.104,-29.732C-41.099,-29.749 -41.096,-29.768 -41.09,-29.785L-41.347,-29.656C-41.374,-29.934 -41.855,-30.084 -42.059,-30.256C-42.23,-30.402 -42.386,-30.585 -42.544,-30.745C-42.723,-30.927 -42.911,-31.036 -43.089,-31.174C-43.354,-31.381 -43.616,-31.659 -43.898,-31.888C-45.011,-32.787 -46.158,-33.754 -47.658,-33.791C-48.477,-33.811 -49.232,-34.079 -50.04,-34.129C-50.499,-34.157 -51.149,-33.949 -51.579,-33.791C-51.967,-33.65 -52.271,-33.648 -52.663,-33.586C-53.337,-33.48 -54.278,-33.104 -54.839,-32.791C-55,-32.701 -55.07,-32.567 -55.271,-32.48C-55.402,-32.421 -55.56,-32.407 -55.698,-32.344C-56.242,-32.097 -56.838,-31.44 -57.185,-30.962C-57.865,-30.024 -58.553,-29.012 -58.93,-27.901C-59.237,-26.993 -59.186,-26.394 -58.713,-25.538C-58.451,-25.065 -58.238,-24.324 -57.849,-23.984C-57.618,-23.782 -57.115,-23.619 -56.814,-23.553C-56.354,-23.451 -55.769,-23.564 -55.286,-23.564C-54.634,-23.564 -53.965,-23.506 -53.316,-23.552C-52.866,-23.584 -52.456,-23.803 -52.006,-23.804C-51.718,-23.804 -51.451,-23.679 -51.178,-23.616C-50.718,-23.511 -50.242,-23.434 -49.791,-23.303C-48.67,-22.978 -47.56,-22.37 -46.531,-21.827C-45.996,-21.546 -45.377,-21.406 -44.855,-21.12C-44.37,-20.853 -44.136,-20.264 -43.746,-19.864C-43.309,-19.415 -42.917,-19.033 -42.6,-18.504C-42.303,-18.009 -41.918,-17.589 -41.718,-17.035C-41.373,-16.084 -41.13,-15.026 -40.961,-14.031C-40.738,-12.717 -41.052,-11.596 -41.564,-10.387C-42.611,-7.92 -45.084,-6.128 -47.494,-5.115C-48.466,-4.707 -49.47,-4.91 -50.45,-5.224C-51.572,-5.583 -52.392,-6.228 -53.306,-6.916C-54.879,-8.103 -57.609,-9.052 -59.428,-7.889C-60.617,-7.128 -61.387,-5.996 -61.367,-4.588C-61.35,-3.273 -61.31,-2.134 -60.884,-0.866C-60.514,0.237 -59.773,1.163 -58.929,1.952C-57.474,3.311 -55.702,3.789 -53.772,4.031C-52.436,4.199 -51.183,4.292 -49.822,4.292C-48.544,4.292 -47.066,4.096 -45.809,4.31C-44.294,4.567 -43.087,5.14 -41.995,6.245C-41.402,6.845 -40.838,7.478 -40.278,8.107C-39.805,8.638 -39.12,9.167 -38.73,9.759C-38.539,10.05 -38.43,10.457 -38.311,10.766C-38.067,11.396 -37.736,11.641 -37.297,12.094C-36.763,12.643 -36.412,13.361 -35.853,13.926C-35.314,14.468 -34.779,14.945 -34.184,15.42C-32.625,16.658 -31.274,18.235 -29.826,19.594C-28.207,21.113 -26.729,22.877 -25.043,24.316C-24.601,24.694 -24.126,24.881 -23.624,25.157C-22.871,25.572 -22.281,26.25 -21.63,26.795C-20.325,27.887 -18.929,28.838 -17.577,29.862C-14.514,32.184 -11.491,34.597 -8.581,37.106C-6.958,38.506 -5.46,40.009 -3.741,41.298C-3.101,41.777 -2.407,42.164 -1.737,42.592C-1.411,42.8 -1.086,42.989 -0.804,43.251C-0.488,43.544 -0.188,43.701 0.146,43.924L0.146,-2.446C0.098,-2.467 0.046,-2.487 0,-2.509" style="fill:rgb(38,156,192);fill-rule:nonzero;"/>
    </g>
    <g transform="matrix(2.66667,0,0,2.66667,532.684,140.337)">
        <path d="M0,-2.509C-0.797,-2.91 -1.57,-3.222 -2.399,-3.543C-2.88,-3.729 -3.319,-3.922 -3.752,-4.148C-3.863,-4.206 -4.043,-4.17 -4.141,-4.238C-4.298,-4.349 -4.413,-4.558 -4.559,-4.685C-4.869,-4.956 -5.241,-5.116 -5.551,-5.384C-5.875,-5.664 -6.01,-6.041 -6.3,-6.322C-6.549,-6.565 -6.984,-6.717 -7.29,-6.836C-7.659,-6.981 -7.897,-7.136 -8.21,-7.302C-8.484,-7.448 -8.741,-7.466 -9.05,-7.585C-9.45,-7.738 -9.881,-7.973 -10.275,-8.161C-11.151,-8.579 -11.733,-9.315 -12.616,-9.695C-13.022,-9.87 -13.348,-9.791 -13.77,-9.843C-14.289,-9.905 -14.771,-10.19 -15.184,-10.501C-15.521,-10.755 -15.662,-11.137 -15.93,-11.394C-16.231,-11.684 -16.88,-11.698 -17.294,-11.837C-17.702,-11.973 -18.093,-12.146 -18.49,-12.302C-19.191,-12.578 -19.302,-12.659 -19.758,-13.282C-20.049,-13.68 -20.031,-13.942 -20.02,-14.435C-20.003,-15.048 -19.94,-15.163 -19.478,-15.623C-19.102,-15.997 -18.671,-16.23 -18.279,-16.585C-17.685,-17.124 -17.367,-17.795 -16.876,-18.418C-16.215,-19.257 -15.726,-20.286 -15.142,-21.196C-14.346,-22.436 -14.056,-23.825 -13.365,-25.086C-12.705,-26.292 -12.348,-27.564 -11.751,-28.797C-11.156,-30.027 -10.968,-31.283 -10.608,-32.581C-10.256,-33.856 -9.736,-35.057 -10.224,-36.348C-10.753,-37.751 -11.794,-38.139 -13.227,-38.143C-13.789,-38.144 -14.278,-38.144 -14.797,-37.882C-15.404,-37.575 -15.808,-36.936 -16.414,-36.675C-16.454,-37.367 -15.806,-38.153 -15.604,-38.803C-15.386,-39.502 -15.459,-40.196 -15.451,-40.919C-15.443,-41.678 -15.594,-42.318 -16.137,-42.887C-16.843,-43.628 -17.982,-43.409 -18.878,-43.208C-19.369,-43.098 -19.812,-42.874 -20.286,-42.756C-20.631,-42.671 -20.981,-42.787 -21.32,-42.688C-22.188,-42.433 -22.899,-41.538 -23.612,-41.022C-23.892,-40.82 -24.456,-40.218 -24.829,-40.371C-25.155,-40.505 -25.036,-41.389 -25.031,-41.675C-25.012,-42.614 -25.082,-43.69 -25.47,-44.566C-26.296,-46.433 -29.203,-45.763 -30.691,-45.335C-31.263,-45.171 -31.522,-44.93 -31.937,-44.507C-32.347,-44.087 -32.826,-43.765 -33.267,-43.377C-34.441,-42.343 -35.387,-41.211 -36.241,-39.906C-36.876,-38.935 -37.525,-37.962 -38.101,-36.963C-38.662,-35.989 -39.027,-34.94 -39.601,-33.996C-40.091,-33.189 -40.36,-32.28 -40.696,-31.399C-40.904,-30.853 -40.924,-30.324 -41.09,-29.785L-40.912,-29.874C-40.976,-29.826 -41.04,-29.779 -41.104,-29.732C-41.099,-29.749 -41.096,-29.768 -41.09,-29.785L-41.347,-29.656C-41.374,-29.934 -41.855,-30.084 -42.059,-30.256C-42.23,-30.402 -42.386,-30.585 -42.544,-30.745C-42.723,-30.927 -42.911,-31.036 -43.089,-31.174C-43.354,-31.381 -43.616,-31.659 -43.898,-31.888C-45.011,-32.787 -46.158,-33.754 -47.658,-33.791C-48.477,-33.811 -49.232,-34.079 -50.04,-34.129C-50.499,-34.157 -51.149,-33.949 -51.579,-33.791C-51.967,-33.65 -52.271,-33.648 -52.663,-33.586C-53.337,-33.48 -54.278,-33.104 -54.839,-32.791C-55,-32.701 -55.07,-32.567 -55.271,-32.48C-55.402,-32.421 -55.56,-32.407 -55.698,-32.344C-56.242,-32.097 -56.838,-31.44 -57.185,-30.962C-57.865,-30.024 -58.553,-29.012 -58.93,-27.901C-59.237,-26.993 -59.186,-26.394 -58.713,-25.538C-58.451,-25.065 -58.238,-24.324 -57.849,-23.984C-57.618,-23.782 -57.115,-23.619 -56.814,-23.553C-56.354,-23.451 -55.769,-23.564 -55.286,-23.564C-54.634,-23.564 -53.965,-23.506 -53.316,-23.552C-52.866,-23.584 -52.456,-23.803 -52.006,-23.804C-51.718,-23.804 -51.451,-23.679 -51.178,-23.616C-50.718,-23.511 -50.242,-23.434 -49.791,-23.303C-48.67,-22.978 -47.56,-22.37 -46.531,-21.827C-45.996,-21.546 -45.377,-21.406 -44.855,-21.12C-44.37,-20.853 -44.136,-20.264 -43.746,-19.864C-43.309,-19.415 -42.917,-19.033 -42.6,-18.504C-42.303,-18.009 -41.918,-17.589 -41.718,-17.035C-41.373,-16.084 -41.13,-15.026 -40.961,-14.031C-40.738,-12.717 -41.052,-11.596 -41.564,-10.387C-42.611,-7.92 -45.084,-6.128 -47.494,-5.115C-48.466,-4.707 -49.47,-4.91 -50.45,-5.224C-51.572,-5.583 -52.392,-6.228 -53.306,-6.916C-54.879,-8.103 -57.609,-9.052 -59.428,-7.889C-60.617,-7.128 -61.387,-5.996 -61.367,-4.588C-61.35,-3.273 -61.31,-2.134 -60.884,-0.866C-60.514,0.237 -59.773,1.163 -58.929,1.952C-57.474,3.311 -55.702,3.789 -53.772,4.031C-52.436,4.199 -51.183,4.292 -49.822,4.292C-48.544,4.292 -47.066,4.096 -45.809,4.31C-44.294,4.567 -43.087,5.14 -41.995,6.245C-41.402,6.845 -40.838,7.478 -40.278,8.107C-39.805,8.638 -39.12,9.167 -38.73,9.759C-38.539,10.05 -38.43,10.457 -38.311,10.766C-38.067,11.396 -37.736,11.641 -37.297,12.094C-36.763,12.643 -36.412,13.361 -35.853,13.926C-35.314,14.468 -34.779,14.945 -34.184,15.42C-32.625,16.658 -31.274,18.235 -29.826,19.594C-28.207,21.113 -26.729,22.877 -25.043,24.316C-24.601,24.694 -24.126,24.881 -23.624,25.157C-22.871,25.572 -22.281,26.25 -21.63,26.795C-20.325,27.887 -18.929,28.838 -17.577,29.862C-14.514,32.184 -11.491,34.597 -8.581,37.106C-6.958,38.506 -5.46,40.009 -3.741,41.298C-3.101,41.777 -2.407,42.164 -1.737,42.592C-1.411,42.8 -1.086,42.989 -0.804,43.251C-0.488,43.544 -0.188,43.701 0.146,43.924L0.146,-2.446C0.098,-2.467 0.046,-2.487 0,-2.509Z" style="fill:none;fill-rule:nonzero;stroke:rgb(1,1,2);stroke-width:1px;"/>
    </g>
    <g transform="matrix(2.66667,0,0,2.66667,232.074,212.463)">
        <path d="M0,-0.406C-0.062,-0.271 -0.126,-0.14 -0.185,0C-0.104,-0.132 -0.046,-0.268 0,-0.406Z" style="fill:white;fill-rule:nonzero;stroke:rgb(1,1,2);stroke-width:1px;"/>
    </g>
    <g transform="matrix(2.66667,0,0,2.66667,430.723,97.7101)">
        <path d="M0,-24.775C-0.189,-25.109 -0.423,-25.164 -0.67,-25.412C-0.979,-25.724 -0.98,-25.959 -1.195,-26.3C-1.489,-26.768 -1.947,-27.124 -2.246,-27.604C-2.617,-28.198 -2.932,-28.273 -3.493,-28.682C-3.957,-29.02 -4.379,-29.477 -4.847,-29.786C-5.146,-29.984 -5.543,-29.988 -5.819,-30.2C-5.978,-30.322 -6.056,-30.548 -6.195,-30.7C-6.632,-31.172 -7.266,-31.269 -7.771,-31.626C-8.104,-31.86 -8.423,-32.113 -8.765,-32.334C-9.756,-32.971 -10.781,-33.47 -11.854,-33.954C-12.462,-34.228 -12.982,-34.742 -13.601,-34.961C-14.185,-35.168 -14.908,-35.107 -15.521,-35.265C-16.059,-35.404 -16.542,-35.722 -17.051,-35.933C-17.5,-36.121 -17.901,-36.114 -18.4,-36.091C-18.752,-36.076 -19.113,-35.916 -19.444,-35.906C-19.864,-35.893 -19.694,-35.986 -19.978,-36.033C-20.513,-36.123 -21.062,-36.087 -21.609,-36.087C-22.483,-36.087 -23.488,-36.221 -24.348,-36.068C-24.847,-35.979 -25.232,-35.858 -25.744,-35.868C-26.205,-35.878 -26.4,-35.733 -26.833,-35.64C-27.194,-35.562 -27.633,-35.686 -28.002,-35.66C-28.392,-35.631 -28.856,-35.531 -29.23,-35.44C-30.62,-35.102 -32.039,-34.671 -33.35,-34.187C-34.468,-33.775 -35.641,-33.478 -36.733,-33.04C-37.657,-32.669 -38.456,-32.151 -39.41,-31.789C-40.963,-31.199 -42.195,-30.294 -43.437,-29.171C-43.848,-28.799 -44.063,-28.407 -44.375,-27.945C-44.379,-27.938 -44.385,-27.932 -44.39,-27.926C-43.868,-27.209 -43.537,-26.028 -43.598,-25.179C-43.662,-24.271 -43.983,-23.226 -44.651,-22.59C-45.218,-22.049 -45.956,-21.822 -46.652,-21.506C-47.131,-21.29 -47.512,-20.984 -47.94,-20.684C-48.338,-20.406 -48.811,-20.27 -49.203,-19.994C-49.686,-19.655 -50.082,-19.147 -50.498,-18.732C-51.084,-18.145 -51.805,-17.544 -52.178,-16.792C-51.359,-16.982 -50.678,-17.652 -49.939,-18.041C-49.388,-18.331 -48.802,-18.422 -48.179,-18.544C-47.604,-18.655 -46.981,-18.884 -46.397,-18.921C-45.685,-18.965 -44.946,-18.634 -44.273,-18.453C-43.754,-18.312 -43.207,-18.252 -42.71,-18.041C-42.227,-17.836 -41.953,-17.509 -41.561,-17.192C-41.294,-16.975 -41,-16.895 -40.767,-16.638C-40.356,-16.187 -40.083,-15.339 -39.895,-14.776C-39.583,-13.844 -39.149,-12.959 -39.035,-11.968C-38.94,-11.138 -39.243,-10.582 -39.454,-9.81C-39.678,-8.993 -40.348,-8.129 -41.104,-7.691C-41.829,-7.271 -42.435,-7.174 -43.167,-7.491C-44.106,-7.895 -44.941,-8.373 -45.76,-8.993C-47.17,-10.06 -49.329,-10.249 -51.054,-9.923C-52.909,-9.574 -54.785,-8.958 -56.307,-7.775C-58.119,-6.365 -59.117,-4.014 -58.778,-1.752C-58.621,-0.703 -58.461,0.75 -57.869,1.632C-57.086,2.798 -55.71,3.99 -54.365,4.412C-53.374,4.721 -51.916,5.04 -50.888,4.896C-49.679,4.725 -48.736,4.252 -47.602,3.84C-46.634,3.489 -45.644,2.829 -44.578,3.01C-43.565,3.182 -42.36,3.668 -41.624,4.38C-41.293,4.701 -40.939,4.999 -40.795,5.444C-40.661,5.856 -40.565,6.31 -40.444,6.732C-40.282,7.298 -40.468,7.81 -40.587,8.389C-40.744,9.158 -40.93,9.972 -41.238,10.701C-41.224,10.701 -41.209,10.702 -41.194,10.702C-40.67,10.698 -40.377,10.844 -39.889,10.93C-39.488,11 -39.004,10.918 -38.595,10.918C-37.544,10.918 -36.477,10.867 -35.428,10.912C-34.778,10.938 -34.316,11.389 -33.674,11.418C-33.097,11.446 -32.415,11.3 -31.821,11.185C-31.317,11.087 -30.821,11.169 -30.313,11.141C-29.768,11.111 -29.312,10.915 -28.73,10.919C-27.66,10.927 -26.533,10.8 -25.525,10.532C-25.077,10.413 -24.463,10.435 -24.015,10.532C-23.693,10.601 -23.371,10.611 -23.049,10.618C-22.831,9.57 -22.152,8.71 -21.192,8.096C-19.374,6.933 -16.644,7.882 -15.07,9.069C-14.156,9.757 -13.337,10.402 -12.215,10.761C-11.234,11.075 -10.23,11.278 -9.259,10.87C-6.849,9.857 -4.376,8.065 -3.329,5.598C-2.816,4.389 -2.503,3.268 -2.726,1.954C-2.895,0.959 -3.138,-0.099 -3.482,-1.05C-3.683,-1.604 -4.067,-2.024 -4.364,-2.519C-4.682,-3.048 -5.073,-3.43 -5.511,-3.879C-5.9,-4.279 -6.135,-4.868 -6.62,-5.135C-7.142,-5.421 -7.761,-5.561 -8.296,-5.842C-9.324,-6.385 -10.435,-6.993 -11.556,-7.318C-12.007,-7.449 -12.482,-7.526 -12.942,-7.631C-13.216,-7.694 -13.482,-7.819 -13.771,-7.819C-14.221,-7.818 -14.631,-7.599 -15.081,-7.567C-15.729,-7.521 -16.398,-7.579 -17.051,-7.579C-17.533,-7.579 -18.118,-7.466 -18.579,-7.568C-18.88,-7.634 -19.383,-7.797 -19.613,-7.999C-20.003,-8.339 -20.216,-9.08 -20.478,-9.553C-20.95,-10.409 -21.002,-11.008 -20.694,-11.916C-20.317,-13.027 -19.63,-14.039 -18.949,-14.977C-18.603,-15.455 -18.007,-16.112 -17.463,-16.359C-17.324,-16.422 -17.167,-16.436 -17.035,-16.495C-16.835,-16.582 -16.765,-16.716 -16.604,-16.806C-16.043,-17.119 -15.102,-17.495 -14.428,-17.601C-14.035,-17.663 -13.731,-17.665 -13.344,-17.806C-12.914,-17.964 -12.264,-18.172 -11.805,-18.144C-10.997,-18.094 -10.241,-17.826 -9.423,-17.806C-7.923,-17.769 -6.775,-16.802 -5.663,-15.903C-5.381,-15.674 -5.118,-15.396 -4.854,-15.189C-4.676,-15.051 -4.487,-14.942 -4.309,-14.76C-4.15,-14.6 -3.995,-14.417 -3.823,-14.271C-3.62,-14.099 -3.139,-13.949 -3.111,-13.671L-2.854,-13.8C-2.688,-14.339 -2.669,-14.868 -2.461,-15.414C-2.125,-16.296 -1.855,-17.204 -1.365,-18.011C-0.792,-18.955 -0.427,-20.004 0.135,-20.978C0.411,-21.459 0.706,-21.932 1.008,-22.404C0.921,-22.77 0.858,-23.064 0.647,-23.46C0.419,-23.889 0.237,-24.355 0,-24.775" style="fill:rgb(66,176,53);fill-rule:nonzero;"/>
    </g>
    <g transform="matrix(2.66667,0,0,2.66667,430.723,97.7101)">
        <path d="M0,-24.775C-0.189,-25.109 -0.423,-25.164 -0.67,-25.412C-0.979,-25.724 -0.98,-25.959 -1.195,-26.3C-1.489,-26.768 -1.947,-27.124 -2.246,-27.604C-2.617,-28.198 -2.932,-28.273 -3.493,-28.682C-3.957,-29.02 -4.379,-29.477 -4.847,-29.786C-5.146,-29.984 -5.543,-29.988 -5.819,-30.2C-5.978,-30.322 -6.056,-30.548 -6.195,-30.7C-6.632,-31.172 -7.266,-31.269 -7.771,-31.626C-8.104,-31.86 -8.423,-32.113 -8.765,-32.334C-9.756,-32.971 -10.781,-33.47 -11.854,-33.954C-12.462,-34.228 -12.982,-34.742 -13.601,-34.961C-14.185,-35.168 -14.908,-35.107 -15.521,-35.265C-16.059,-35.404 -16.542,-35.722 -17.051,-35.933C-17.5,-36.121 -17.901,-36.114 -18.4,-36.091C-18.752,-36.076 -19.113,-35.916 -19.444,-35.906C-19.864,-35.893 -19.694,-35.986 -19.978,-36.033C-20.513,-36.123 -21.062,-36.087 -21.609,-36.087C-22.483,-36.087 -23.488,-36.221 -24.348,-36.068C-24.847,-35.979 -25.232,-35.858 -25.744,-35.868C-26.205,-35.878 -26.4,-35.733 -26.833,-35.64C-27.194,-35.562 -27.633,-35.686 -28.002,-35.66C-28.392,-35.631 -28.856,-35.531 -29.23,-35.44C-30.62,-35.102 -32.039,-34.671 -33.35,-34.187C-34.468,-33.775 -35.641,-33.478 -36.733,-33.04C-37.657,-32.669 -38.456,-32.151 -39.41,-31.789C-40.963,-31.199 -42.195,-30.294 -43.437,-29.171C-43.848,-28.799 -44.063,-28.407 -44.375,-27.945C-44.379,-27.938 -44.385,-27.932 -44.39,-27.926C-43.868,-27.209 -43.537,-26.028 -43.598,-25.179C-43.662,-24.271 -43.983,-23.226 -44.651,-22.59C-45.218,-22.049 -45.956,-21.822 -46.652,-21.506C-47.131,-21.29 -47.512,-20.984 -47.94,-20.684C-48.338,-20.406 -48.811,-20.27 -49.203,-19.994C-49.686,-19.655 -50.082,-19.147 -50.498,-18.732C-51.084,-18.145 -51.805,-17.544 -52.178,-16.792C-51.359,-16.982 -50.678,-17.652 -49.939,-18.041C-49.388,-18.331 -48.802,-18.422 -48.179,-18.544C-47.604,-18.655 -46.981,-18.884 -46.397,-18.921C-45.685,-18.965 -44.946,-18.634 -44.273,-18.453C-43.754,-18.312 -43.207,-18.252 -42.71,-18.041C-42.227,-17.836 -41.953,-17.509 -41.561,-17.192C-41.294,-16.975 -41,-16.895 -40.767,-16.638C-40.356,-16.187 -40.083,-15.339 -39.895,-14.776C-39.583,-13.844 -39.149,-12.959 -39.035,-11.968C-38.94,-11.138 -39.243,-10.582 -39.454,-9.81C-39.678,-8.993 -40.348,-8.129 -41.104,-7.691C-41.829,-7.271 -42.435,-7.174 -43.167,-7.491C-44.106,-7.895 -44.941,-8.373 -45.76,-8.993C-47.17,-10.06 -49.329,-10.249 -51.054,-9.923C-52.909,-9.574 -54.785,-8.958 -56.307,-7.775C-58.119,-6.365 -59.117,-4.014 -58.778,-1.752C-58.621,-0.703 -58.461,0.75 -57.869,1.632C-57.086,2.798 -55.71,3.99 -54.365,4.412C-53.374,4.721 -51.916,5.04 -50.888,4.896C-49.679,4.725 -48.736,4.252 -47.602,3.84C-46.634,3.489 -45.644,2.829 -44.578,3.01C-43.565,3.182 -42.36,3.668 -41.624,4.38C-41.293,4.701 -40.939,4.999 -40.795,5.444C-40.661,5.856 -40.565,6.31 -40.444,6.732C-40.282,7.298 -40.468,7.81 -40.587,8.389C-40.744,9.158 -40.93,9.972 -41.238,10.701C-41.224,10.701 -41.209,10.702 -41.194,10.702C-40.67,10.698 -40.377,10.844 -39.889,10.93C-39.488,11 -39.004,10.918 -38.595,10.918C-37.544,10.918 -36.477,10.867 -35.428,10.912C-34.778,10.938 -34.316,11.389 -33.674,11.418C-33.097,11.446 -32.415,11.3 -31.821,11.185C-31.317,11.087 -30.821,11.169 -30.313,11.141C-29.768,11.111 -29.312,10.915 -28.73,10.919C-27.66,10.927 -26.533,10.8 -25.525,10.532C-25.077,10.413 -24.463,10.435 -24.015,10.532C-23.693,10.601 -23.371,10.611 -23.049,10.618C-22.831,9.57 -22.152,8.71 -21.192,8.096C-19.374,6.933 -16.644,7.882 -15.07,9.069C-14.156,9.757 -13.337,10.402 -12.215,10.761C-11.234,11.075 -10.23,11.278 -9.259,10.87C-6.849,9.857 -4.376,8.065 -3.329,5.598C-2.816,4.389 -2.503,3.268 -2.726,1.954C-2.895,0.959 -3.138,-0.099 -3.482,-1.05C-3.683,-1.604 -4.067,-2.024 -4.364,-2.519C-4.682,-3.048 -5.073,-3.43 -5.511,-3.879C-5.9,-4.279 -6.135,-4.868 -6.62,-5.135C-7.142,-5.421 -7.761,-5.561 -8.296,-5.842C-9.324,-6.385 -10.435,-6.993 -11.556,-7.318C-12.007,-7.449 -12.482,-7.526 -12.942,-7.631C-13.216,-7.694 -13.482,-7.819 -13.771,-7.819C-14.221,-7.818 -14.631,-7.599 -15.081,-7.567C-15.729,-7.521 -16.398,-7.579 -17.051,-7.579C-17.533,-7.579 -18.118,-7.466 -18.579,-7.568C-18.88,-7.634 -19.383,-7.797 -19.613,-7.999C-20.003,-8.339 -20.216,-9.08 -20.478,-9.553C-20.95,-10.409 -21.002,-11.008 -20.694,-11.916C-20.317,-13.027 -19.63,-14.039 -18.949,-14.977C-18.603,-15.455 -18.007,-16.112 -17.463,-16.359C-17.324,-16.422 -17.167,-16.436 -17.035,-16.495C-16.835,-16.582 -16.765,-16.716 -16.604,-16.806C-16.043,-17.119 -15.102,-17.495 -14.428,-17.601C-14.035,-17.663 -13.731,-17.665 -13.344,-17.806C-12.914,-17.964 -12.264,-18.172 -11.805,-18.144C-10.997,-18.094 -10.241,-17.826 -9.423,-17.806C-7.923,-17.769 -6.775,-16.802 -5.663,-15.903C-5.381,-15.674 -5.118,-15.396 -4.854,-15.189C-4.676,-15.051 -4.487,-14.942 -4.309,-14.76C-4.15,-14.6 -3.995,-14.417 -3.823,-14.271C-3.62,-14.099 -3.139,-13.949 -3.111,-13.671L-2.854,-13.8C-2.688,-14.339 -2.669,-14.868 -2.461,-15.414C-2.125,-16.296 -1.855,-17.204 -1.365,-18.011C-0.792,-18.955 -0.427,-20.004 0.135,-20.978C0.411,-21.459 0.706,-21.932 1.008,-22.404C0.921,-22.77 0.858,-23.064 0.647,-23.46C0.419,-23.889 0.237,-24.355 0,-24.775Z" style="fill:none;fill-rule:nonzero;stroke:rgb(1,1,2);stroke-width:1px;"/>
    </g>
    <g transform="matrix(2.66667,0,0,2.66667,297.077,100.605)">
        <path d="M0,-6.923C-0.532,-6.923 -1.045,-6.933 -1.522,-6.814C-2.028,-6.688 -2.439,-6.427 -2.938,-6.164C-3.849,-5.684 -4.81,-4.887 -5.174,-3.876C-5.554,-2.825 -5.411,-2.061 -4.653,-1.272C-3.941,-0.53 -2.793,-0.426 -1.746,-0.601C-0.21,-0.859 1.127,-1.49 2.72,-1.483C3.311,-1.48 4.004,-1.594 4.57,-1.44C5.344,-1.228 5.888,-0.752 6.534,-0.335C7.174,0.079 7.579,0.664 8.489,0.467C9.328,0.284 9.751,-0.25 10.118,-0.948C10.942,-2.513 9.492,-4.119 8.499,-5.188C8.001,-5.723 7.074,-6.152 6.426,-6.493C5.797,-6.825 5.01,-7.154 4.304,-7.141C3.438,-7.124 2.592,-7.402 1.735,-7.521C1.322,-7.577 1.037,-7.587 0.642,-7.418C0.377,-7.305 -0.275,-7.128 -0.436,-6.923" style="fill:white;fill-rule:nonzero;stroke:rgb(1,1,2);stroke-width:1px;"/>
    </g>
    <g transform="matrix(2.66667,0,0,2.66667,292.434,98.0605)">
        <path d="M0,-4.881C-1.034,-4.902 -2.554,-3.772 -2.839,-2.716C-2.979,-2.197 -2.917,-0.986 -2.722,-0.527C-2.492,0.014 -1.58,0.511 -0.997,0.779C-0.25,1.124 0.527,1.042 1.312,0.619C2.162,0.161 2.892,-0.686 3.058,-1.664C3.223,-2.637 2.905,-4.09 2.355,-4.891C1.968,-5.456 0.122,-6.005 -0.349,-5.304C-0.305,-5.308 -0.261,-5.313 -0.217,-5.317" style="fill:rgb(1,1,2);fill-rule:nonzero;stroke:rgb(1,1,2);stroke-width:1px;"/>
    </g>
    <g transform="matrix(2.66667,0,0,2.66667,379.481,113.87)">
        <path d="M0,-9.286C-0.384,-9.749 -0.912,-9.289 -1.306,-9.067C-1.497,-8.96 -1.656,-8.857 -1.844,-8.717C-2.244,-8.415 -2.307,-8.229 -2.611,-7.859C-2.798,-7.634 -3.037,-7.533 -3.21,-7.294C-3.448,-6.963 -3.563,-6.417 -3.68,-6.03C-3.892,-5.328 -3.927,-5.072 -3.646,-4.329C-3.252,-3.289 -2.965,-2.782 -1.789,-2.492C-1.58,-2.441 -1.496,-2.333 -1.198,-2.32C-0.945,-2.309 -0.689,-2.327 -0.436,-2.323C-0.093,-2.318 0.002,-2.417 0.267,-2.492C0.566,-2.577 0.88,-2.541 1.195,-2.54C1.791,-2.539 2.444,-2.62 3.036,-2.551C3.651,-2.478 4.542,-2.121 5.114,-1.868C5.827,-1.554 6.238,-0.979 6.693,-0.359C7.204,0.338 8.081,0.708 8.971,0.746C11.063,0.834 12.639,-1.972 12.421,-3.802C12.322,-4.632 11.961,-5.175 11.533,-5.848C11.266,-6.267 11.141,-6.624 10.783,-7.006C10.315,-7.504 9.985,-7.694 9.363,-7.92C8.798,-8.125 8.36,-8.462 7.832,-8.725C7.389,-8.947 6.949,-8.978 6.486,-9.11C5.616,-9.359 4.813,-9.791 3.912,-9.95C3.312,-10.057 2.572,-9.939 1.959,-9.939C1.305,-9.939 0.224,-10.12 0,-9.286" style="fill:white;fill-rule:nonzero;stroke:rgb(1,1,2);stroke-width:1px;"/>
    </g>
    <g transform="matrix(2.66667,0,0,2.66667,380.416,108.885)">
        <path d="M0,-7.549C-0.47,-7.69 -1.644,-6.788 -2.019,-6.521C-2.331,-6.297 -2.463,-5.945 -2.666,-5.638C-2.935,-5.231 -3.286,-4.935 -3.486,-4.496C-3.811,-3.781 -3.818,-2.623 -3.593,-1.891C-3.282,-0.886 -2.573,-0.637 -1.729,-0.21C-1.331,-0.009 -1.202,0.141 -0.706,0.018C-0.3,-0.082 0.24,-0.31 0.647,-0.527C1.887,-1.186 3.187,-2.41 3.27,-3.892C3.34,-5.154 3.261,-6.484 1.921,-6.955C1.228,-7.198 0.488,-7.116 -0.233,-7.113C-0.472,-7.112 -0.745,-7.072 -0.979,-7.106C-1.251,-7.144 -1.471,-7.297 -1.741,-7.331" style="fill:rgb(1,1,2);fill-rule:nonzero;stroke:rgb(1,1,2);stroke-width:1px;"/>
    </g>
    <g transform="matrix(2.66667,0,0,2.66667,266.9,188.919)">
        <path d="M0,-17.409C0.074,-17.125 -0.17,-16.916 -0.226,-16.655C-0.294,-16.33 -0.18,-15.999 -0.266,-15.668C-0.44,-14.997 -0.435,-14.377 -0.435,-13.661C-0.435,-12.263 -0.421,-10.864 -0.435,-9.466C-0.441,-8.737 -0.219,-8.022 -0.026,-7.316C0.185,-6.543 0.351,-5.686 0.441,-4.896C0.543,-4.013 0.729,-3.062 0.974,-2.192C1.181,-1.458 1.613,-0.755 1.741,0" style="fill:none;fill-rule:nonzero;stroke:rgb(1,1,2);stroke-width:1px;"/>
    </g>
    <g transform="matrix(2.66667,0,0,2.66667,247.752,161.09)">
        <path d="M0,0.861C0.571,0.585 1.215,0.559 1.85,0.406C2.487,0.251 3.264,0 3.917,0.209" style="fill:white;fill-rule:nonzero;stroke:rgb(1,1,2);stroke-width:1px;"/>
    </g>
    <g transform="matrix(2.66667,0,0,2.66667,416.041,195.305)">
        <path d="M0,-12.622C0.059,-12.608 0.117,-12.594 0.176,-12.58C0.23,-12.047 0.628,-11.444 0.764,-10.892C1.048,-9.742 0.811,-8.544 0.626,-7.397C0.442,-6.253 0.194,-5.061 -0.207,-3.971C-0.726,-2.562 -1.595,-1.26 -2.394,0" style="fill:none;fill-rule:nonzero;stroke:rgb(1,1,2);stroke-width:1px;"/>
    </g>
    <g id="leman-mouse">
        <g transform="matrix(4.13056,0,0,4.13056,313.465,199.617)">
            <path d="M0,-13.91C-0.306,-13.91 -0.684,-13.965 -0.981,-13.893C-1.274,-13.823 -1.476,-13.598 -1.729,-13.474C-2.481,-13.106 -3.172,-12.701 -3.656,-11.951C-4.011,-11.402 -4.258,-10.801 -4.624,-10.258C-4.772,-10.039 -5.097,-9.807 -5.186,-9.556C-5.292,-9.257 -5.4,-8.786 -5.452,-8.47C-5.506,-8.143 -5.499,-7.925 -5.604,-7.598C-5.709,-7.275 -5.846,-6.932 -5.884,-6.6C-5.979,-5.754 -5.828,-4.745 -5.516,-3.959C-5.291,-3.395 -4.783,-3.083 -4.394,-2.648C-3.967,-2.171 -3.709,-1.792 -3.184,-1.394C-2.238,-0.681 -1.108,-0.22 0.007,0.182C0.515,0.363 0.986,0.66 1.534,0.687C1.962,0.708 2.408,0.671 2.837,0.671C3.416,0.671 3.996,0.661 4.575,0.67C5.286,0.681 5.597,0.477 6.273,0.278C7.956,-0.218 9.635,-0.903 10.904,-2.177C12.297,-3.574 12.945,-5.544 12.848,-7.496C12.806,-8.331 12.48,-9.317 12.021,-9.993C11.721,-10.435 11.378,-10.778 11.017,-11.187C10.641,-11.612 10.183,-12.363 9.682,-12.596C8.794,-13.007 7.753,-13.195 6.854,-13.61C5.936,-14.034 4.825,-14.325 3.809,-14.343C3.342,-14.35 2.953,-14.523 2.494,-14.57C2.031,-14.618 1.645,-14.468 1.199,-14.371C0.409,-14.2 -1.012,-13.908 -1.306,-13.039" style="fill:rgb(255,241,0);fill-rule:nonzero;stroke:rgb(1,1,2);stroke-width:0.65px;"/>
        </g>
        <g transform="matrix(4.13056,0,0,4.13056,324.251,179.46)">
            <path d="M0,-5.33C-0.813,-5.315 -1.549,-5.152 -2.236,-4.738C-2.517,-4.569 -2.79,-4.35 -3.046,-4.133C-3.444,-3.797 -3.406,-3.667 -3.529,-3.202C-3.595,-2.952 -3.734,-3.079 -3.716,-2.724C-3.705,-2.518 -3.555,-2.263 -3.48,-2.066C-3.299,-1.579 -3.132,-1.195 -2.774,-0.815C-1.902,0.116 -0.866,0.56 0.409,0.548C1.128,0.541 1.723,0.522 2.399,0.375C3.008,0.243 3.358,0.096 3.869,-0.321C4.989,-1.234 5.038,-2.562 4.298,-3.764C3.816,-4.545 2.619,-4.815 1.758,-5.059C1.103,-5.243 0.452,-5.42 -0.205,-5.606C-0.941,-5.816 -1.577,-5.89 -2.176,-5.33" style="fill:rgb(214,108,166);fill-rule:nonzero;stroke:rgb(1,1,2);stroke-width:0.65px;"/>
        </g>
    </g>
    <g transform="matrix(2.66667,0,0,2.66667,273.866,282.929)">
        <path d="M0,-2.611C0.37,-2.332 0.686,-1.743 0.826,-1.305C1.035,-0.65 0.431,-0.545 0.435,0" style="fill:none;fill-rule:nonzero;stroke:rgb(1,1,2);stroke-width:1px;"/>
    </g>
    <g transform="matrix(2.66667,0,0,2.66667,429.39,304.522)">
        <path d="M0,-20.936C-0.867,-21.061 -1.985,-20.042 -2.611,-19.582C-3.546,-18.898 -4.335,-18.008 -5.122,-17.127C-5.472,-16.737 -5.608,-16.269 -5.87,-15.822C-6.173,-15.306 -6.512,-14.805 -6.831,-14.299C-7.362,-13.457 -7.765,-12.512 -8.004,-11.579C-8.109,-11.165 -8.053,-10.702 -8.052,-10.273C-8.052,-10.027 -8.089,-9.753 -8.061,-9.511C-8.027,-9.232 -7.87,-9.023 -7.823,-8.749C-7.787,-8.539 -7.882,-8.308 -7.846,-8.097C-7.806,-7.864 -7.666,-7.674 -7.61,-7.444C-7.481,-6.908 -7.392,-6.513 -7.1,-6.03C-6.545,-5.113 -6.242,-3.823 -5.44,-3.102C-4.671,-2.41 -3.904,-1.753 -3.164,-1.022C-2.42,-0.289 -1.48,0.17 -0.479,0.455C0.813,0.823 2.195,1.488 3.542,1.478C4.859,1.468 6.19,1.546 7.506,1.486C8.455,1.443 9.318,0.979 10.231,0.765C11.141,0.551 11.517,0.11 12.285,-0.37C13.022,-0.829 13.729,-1.212 14.284,-1.889C14.518,-2.173 14.643,-2.425 14.79,-2.755C15.024,-3.281 15.402,-3.684 15.686,-4.185C16.11,-4.939 16.254,-5.778 16.539,-6.583C16.63,-6.841 16.783,-7.077 16.873,-7.329C16.996,-7.677 16.906,-7.97 16.962,-8.322C17.057,-8.924 17.195,-9.424 17.191,-10.06C17.187,-10.715 17.279,-11.419 17.203,-12.067C17.068,-13.205 16.61,-14.28 16.215,-15.369C16.006,-15.943 15.605,-16.423 15.475,-17.019C15.301,-17.81 14.807,-18.475 14.253,-19.076C13.764,-19.608 13.11,-19.882 12.511,-20.192C12.298,-20.302 12.137,-20.571 11.931,-20.67C11.613,-20.823 11.219,-20.866 10.88,-21.018C10.059,-21.389 9.346,-21.483 8.481,-21.637C7.816,-21.756 7.172,-22.047 6.528,-22.193C6.203,-22.266 5.906,-22.209 5.575,-22.233C5.232,-22.258 4.904,-22.482 4.569,-22.482C4.276,-22.482 3.873,-22.305 3.584,-22.242C3.281,-22.175 2.963,-22.11 2.659,-22.024C1.924,-21.816 1.238,-21.531 0.515,-21.26C-0.094,-21.033 -0.895,-20.831 -1.306,-20.284" style="fill:rgb(53,147,57);fill-rule:nonzero;stroke:rgb(1,1,2);stroke-width:1px;"/>
    </g>
    <g transform="matrix(2.66667,0,0,2.66667,435.773,296.897)">
        <path d="M0,-13.724C-1.244,-13.705 -2.129,-13.325 -3.039,-12.53C-4.031,-11.662 -5.051,-10.614 -5.392,-9.324C-5.464,-9.05 -5.424,-8.787 -5.489,-8.506C-5.578,-8.127 -5.781,-7.879 -5.614,-7.451C-5.525,-7.222 -5.301,-7.035 -5.218,-6.755C-5.131,-6.465 -5.096,-6.181 -4.957,-5.89C-4.708,-5.37 -4.482,-5.04 -4.331,-4.495C-4.137,-3.792 -3.742,-2.911 -3.256,-2.308C-2.89,-1.853 -2.572,-1.345 -2.138,-0.946C-1.284,-0.16 -0.157,-0.118 0.834,0.43C1.376,0.73 1.539,0.575 2.134,0.468C2.529,0.398 2.921,0.419 3.324,0.421C4.326,0.426 5.557,0.34 6.485,-0.059C7.312,-0.413 8.293,-1.145 8.943,-1.757C9.752,-2.52 10.111,-3.536 10.447,-4.566C10.686,-5.292 10.716,-5.991 10.668,-6.766C10.617,-7.597 10.267,-8.338 9.95,-9.1C9.479,-10.235 8.764,-10.881 7.728,-11.554C7.259,-11.858 6.758,-12.083 6.306,-12.417C5.847,-12.758 5.427,-13.106 4.853,-13.241C3.85,-13.476 2.907,-13.874 1.91,-14.111C1.385,-14.235 1.219,-14.006 0.762,-13.953C0.518,-13.923 -0.204,-14.454 -0.218,-13.942" style="fill:rgb(255,241,0);fill-rule:nonzero;stroke:rgb(1,1,2);stroke-width:1px;"/>
    </g>
    <g transform="matrix(2.66667,0,0,2.66667,440.416,262.996)">
        <path d="M0,4.647C0.121,4.208 -0.559,3.785 -0.658,3.34C-0.711,3.109 -0.822,2.807 -0.854,2.577C-0.897,2.26 -0.751,2.213 -0.701,1.987C-0.59,1.469 -0.598,1.115 -0.277,0.669C-0.11,0.437 0.373,0.09 0.646,0.06C1.207,0 1.542,0.553 1.745,0.959C1.949,1.368 2.2,2.156 2.144,2.634C2.056,3.381 1.56,4.134 0.81,4.227C0.325,4.287 -0.508,3.952 -0.653,4.647" style="fill:rgb(38,156,192);fill-rule:nonzero;stroke:rgb(1,1,2);stroke-width:1px;"/>
    </g>
    <g transform="matrix(2.66667,0,0,2.66667,439.835,273.431)">
        <path d="M0,1.604C0.019,0.729 -0.916,0.165 -1.567,-0.354C-2.054,-0.743 -2.661,-1.141 -3.317,-1.027C-3.827,-0.939 -4.444,-0.043 -4.354,0.515C-4.149,1.781 -2.785,1.504 -1.959,1.713C-1.693,1.78 0.457,2.745 0.222,1.9C0.221,1.947 0.219,1.993 0.218,2.04" style="fill:rgb(38,156,192);fill-rule:nonzero;stroke:rgb(1,1,2);stroke-width:1px;"/>
    </g>
    <g transform="matrix(-2.64397,-0.347181,-0.347181,2.64397,439.259,291.222)">
        <path d="M-0.212,-3.383C0.558,-3.499 0.787,-1.805 0.886,-1.312C1.042,-0.535 0.93,0.74 -0.212,0.773C-1.28,0.802 -1.643,-0.646 -1.561,-1.487C-1.495,-2.146 -1.318,-4.455 -0.127,-4.03" style="fill:rgb(38,156,192);fill-rule:nonzero;stroke:rgb(1,1,2);stroke-width:1px;"/>
    </g>
    <g transform="matrix(2.66667,0,0,2.66667,446.218,288.91)">
        <path d="M0,-2.677C0.554,-2.707 0.949,-0.842 1.222,-0.392C1.687,0.374 2.411,1.317 3.28,0.379C4.021,-0.421 2.952,-2.081 2.398,-2.737C2.054,-3.145 1.619,-3.434 1.088,-3.553C0.683,-3.644 0.387,-3.652 0.086,-3.994L0.218,-3.983" style="fill:rgb(38,156,192);fill-rule:nonzero;stroke:rgb(1,1,2);stroke-width:1px;"/>
    </g>
    <g transform="matrix(2.66667,0,0,2.66667,450.28,272.382)">
        <path d="M0,0.692C0.254,0.477 0.088,0.361 0.236,0.167C0.342,0.029 0.496,-0.068 0.653,-0.178C1.003,-0.422 1.106,-0.573 1.519,-0.619C2.508,-0.73 2.808,-0.19 3.192,0.648C2.615,1.228 1.618,1.351 0.854,1.349C0.669,1.348 0.174,1.422 -0.016,1.307C-0.295,1.138 -0.212,0.769 -0.653,0.91" style="fill:rgb(38,156,192);fill-rule:nonzero;stroke:rgb(1,1,2);stroke-width:1px;"/>
    </g>
    <g transform="matrix(2.66667,0,0,2.66667,276.155,306.22)">
        <path d="M0,-20.935C-0.867,-21.06 -1.984,-20.041 -2.611,-19.582C-3.545,-18.897 -4.335,-18.008 -5.121,-17.127C-5.471,-16.736 -5.607,-16.268 -5.87,-15.822C-6.173,-15.305 -6.512,-14.804 -6.83,-14.298C-7.361,-13.456 -7.765,-12.511 -8.003,-11.578C-8.109,-11.164 -8.052,-10.701 -8.052,-10.272C-8.052,-10.026 -8.088,-9.752 -8.06,-9.51C-8.027,-9.231 -7.869,-9.023 -7.823,-8.748C-7.787,-8.538 -7.882,-8.307 -7.846,-8.096C-7.806,-7.863 -7.666,-7.673 -7.61,-7.443C-7.48,-6.907 -7.392,-6.512 -7.099,-6.029C-6.545,-5.113 -6.241,-3.822 -5.439,-3.101C-4.67,-2.409 -3.904,-1.752 -3.163,-1.022C-2.42,-0.288 -1.479,0.17 -0.479,0.456C0.813,0.824 2.196,1.489 3.543,1.478C4.859,1.468 6.191,1.547 7.506,1.487C8.455,1.443 9.319,0.98 10.231,0.766C11.142,0.552 11.517,0.111 12.286,-0.369C13.023,-0.828 13.729,-1.212 14.285,-1.888C14.518,-2.172 14.644,-2.425 14.79,-2.754C15.024,-3.28 15.403,-3.683 15.686,-4.185C16.11,-4.938 16.254,-5.778 16.539,-6.582C16.63,-6.841 16.784,-7.076 16.873,-7.329C16.996,-7.676 16.907,-7.97 16.962,-8.321C17.058,-8.924 17.195,-9.423 17.192,-10.06C17.188,-10.714 17.279,-11.418 17.203,-12.066C17.069,-13.204 16.611,-14.28 16.215,-15.368C16.006,-15.942 15.606,-16.422 15.476,-17.018C15.302,-17.809 14.808,-18.474 14.254,-19.076C13.764,-19.607 13.111,-19.881 12.512,-20.192C12.298,-20.302 12.137,-20.57 11.932,-20.669C11.614,-20.823 11.22,-20.865 10.881,-21.017C10.06,-21.388 9.346,-21.482 8.482,-21.636C7.817,-21.755 7.173,-22.046 6.528,-22.192C6.204,-22.265 5.907,-22.208 5.576,-22.233C5.232,-22.257 4.905,-22.481 4.57,-22.481C4.277,-22.482 3.874,-22.305 3.585,-22.241C3.282,-22.174 2.964,-22.11 2.66,-22.024C1.925,-21.815 1.238,-21.53 0.516,-21.259C-0.093,-21.032 -0.894,-20.83 -1.306,-20.283" style="fill:rgb(53,147,57);fill-rule:nonzero;stroke:rgb(1,1,2);stroke-width:1px;"/>
    </g>
    <g transform="matrix(2.66667,0,0,2.66667,282.538,298.6)">
        <path d="M0,-13.726C-1.244,-13.707 -2.129,-13.326 -3.038,-12.531C-4.03,-11.663 -5.051,-10.615 -5.391,-9.325C-5.463,-9.051 -5.423,-8.788 -5.488,-8.508C-5.577,-8.129 -5.78,-7.881 -5.613,-7.452C-5.524,-7.223 -5.301,-7.037 -5.217,-6.756C-5.131,-6.467 -5.096,-6.183 -4.956,-5.891C-4.708,-5.371 -4.481,-5.041 -4.331,-4.497C-4.136,-3.793 -3.742,-2.912 -3.256,-2.309C-2.889,-1.854 -2.571,-1.346 -2.138,-0.947C-1.284,-0.161 -0.156,-0.119 0.835,0.429C1.377,0.729 1.54,0.574 2.135,0.467C2.53,0.396 2.922,0.418 3.325,0.42C4.326,0.424 5.557,0.338 6.486,-0.06C7.313,-0.414 8.293,-1.146 8.943,-1.759C9.752,-2.522 10.112,-3.538 10.448,-4.567C10.686,-5.294 10.716,-5.992 10.669,-6.767C10.618,-7.598 10.268,-8.339 9.95,-9.101C9.479,-10.236 8.764,-10.882 7.729,-11.555C7.26,-11.86 6.758,-12.085 6.307,-12.419C5.847,-12.759 5.428,-13.107 4.854,-13.242C3.851,-13.478 2.908,-13.875 1.91,-14.112C1.386,-14.236 1.219,-14.007 0.763,-13.954C0.519,-13.925 -0.204,-14.455 -0.217,-13.943" style="fill:rgb(255,241,0);fill-rule:nonzero;stroke:rgb(1,1,2);stroke-width:1px;"/>
    </g>
    <g transform="matrix(2.66667,0,0,2.66667,287.181,264.694)">
        <path d="M0,4.647C0.121,4.209 -0.558,3.786 -0.658,3.34C-0.71,3.11 -0.822,2.808 -0.854,2.578C-0.897,2.261 -0.75,2.214 -0.701,1.988C-0.589,1.469 -0.598,1.116 -0.277,0.67C-0.109,0.438 0.374,0.09 0.646,0.061C1.208,0 1.542,0.553 1.745,0.959C1.95,1.369 2.2,2.157 2.145,2.635C2.056,3.382 1.56,4.135 0.811,4.227C0.325,4.287 -0.508,3.952 -0.652,4.647" style="fill:rgb(38,156,192);fill-rule:nonzero;stroke:rgb(1,1,2);stroke-width:1px;"/>
    </g>
    <g transform="matrix(2.66667,0,0,2.66667,286.601,275.132)">
        <path d="M0,1.604C0.02,0.729 -0.916,0.165 -1.566,-0.354C-2.054,-0.743 -2.661,-1.141 -3.316,-1.028C-3.826,-0.939 -4.443,-0.043 -4.354,0.515C-4.149,1.781 -2.785,1.504 -1.958,1.712C-1.693,1.78 0.457,2.745 0.223,1.9C0.221,1.946 0.22,1.993 0.218,2.039" style="fill:rgb(38,156,192);fill-rule:nonzero;stroke:rgb(1,1,2);stroke-width:1px;"/>
    </g>
    <g transform="matrix(-2.64389,-0.347812,-0.347812,2.64389,286.024,292.922)">
        <path d="M-0.212,-3.384C0.557,-3.5 0.787,-1.806 0.886,-1.313C1.041,-0.536 0.93,0.739 -0.212,0.772C-1.281,0.801 -1.645,-0.647 -1.561,-1.489C-1.496,-2.148 -1.318,-4.456 -0.127,-4.03" style="fill:rgb(38,156,192);fill-rule:nonzero;stroke:rgb(1,1,2);stroke-width:1px;"/>
    </g>
    <g transform="matrix(2.66667,0,0,2.66667,292.986,290.613)">
        <path d="M0,-2.679C0.554,-2.708 0.948,-0.844 1.222,-0.394C1.687,0.373 2.41,1.316 3.279,0.378C4.021,-0.423 2.952,-2.082 2.398,-2.738C2.054,-3.146 1.619,-3.435 1.088,-3.554C0.683,-3.646 0.387,-3.653 0.086,-3.995C0.13,-3.991 0.174,-3.988 0.217,-3.985" style="fill:rgb(38,156,192);fill-rule:nonzero;stroke:rgb(1,1,2);stroke-width:1px;"/>
    </g>
    <g transform="matrix(2.66667,0,0,2.66667,297.046,274.077)">
        <path d="M0,0.694C0.255,0.479 0.088,0.363 0.237,0.169C0.343,0.031 0.496,-0.066 0.654,-0.176C1.004,-0.42 1.107,-0.571 1.519,-0.618C2.508,-0.729 2.809,-0.188 3.192,0.649C2.616,1.23 1.618,1.353 0.854,1.35C0.67,1.35 0.174,1.423 -0.015,1.309C-0.294,1.14 -0.211,0.771 -0.652,0.911" style="fill:rgb(38,156,192);fill-rule:nonzero;stroke:rgb(1,1,2);stroke-width:1px;"/>
    </g>
    <g transform="matrix(-1.68877,2.06377,2.06377,1.68877,436.851,64.2824)">
        <path d="M1.704,-5.595C2.255,-5.323 2.014,-4.765 1.872,-4.34C1.635,-3.629 1.627,-3.277 1.704,-2.502C1.776,-1.785 1.949,-1.331 2.167,-0.663C2.301,-0.251 2.175,0.596 2.653,0.805" style="fill:none;fill-rule:nonzero;stroke:rgb(1,1,2);stroke-width:1px;"/>
    </g>
    <g transform="matrix(-2.00913,-1.75342,-1.75342,2.00913,452.753,43.245)">
        <path d="M-1.645,-4.316C-1.441,-4.043 -1.565,-3.739 -1.623,-3.438C-1.733,-2.888 -1.625,-2.39 -1.645,-1.834C-1.663,-1.366 -1.717,-0.899 -1.676,-0.444C-1.648,-0.135 -1.451,0.319 -1.619,0.617" style="fill:white;fill-rule:nonzero;stroke:rgb(1,1,2);stroke-width:1px;"/>
    </g>
    <g transform="matrix(2.66667,0,0,2.66667,484.517,62.4115)">
        <path d="M0,-6.746C-0.937,-5.253 -1.986,-3.845 -2.964,-2.4C-3.329,-1.86 -3.697,-1.346 -4.139,-0.867C-4.378,-0.607 -4.675,-0.336 -4.787,0" style="fill:white;fill-rule:nonzero;stroke:rgb(1,1,2);stroke-width:1px;"/>
    </g>
    <g transform="matrix(2.66667,0,0,2.66667,259.358,57.1904)">
        <path d="M0,-11.752C-0.063,-11.455 -0.364,-11.331 -0.545,-11.106C-0.834,-10.747 -0.966,-10.35 -1.301,-10.011C-2.295,-9.004 -2.675,-7.549 -3.471,-6.365C-3.889,-5.746 -4.387,-5.226 -4.776,-4.576C-5.038,-4.139 -5.388,-3.843 -5.67,-3.429C-5.908,-3.079 -6.076,-2.683 -6.312,-2.329C-6.448,-2.123 -8.419,-0.02 -7.617,0" style="fill:none;fill-rule:nonzero;stroke:rgb(1,1,2);stroke-width:1px;"/>
    </g>
    <g transform="matrix(2.66667,0,0,2.66667,280.249,59.5117)">
        <path d="M0,-9.14C-0.418,-8.56 -0.813,-7.937 -1.316,-7.426C-1.688,-7.049 -2.071,-6.755 -2.394,-6.327C-3.095,-5.398 -3.698,-4.383 -4.406,-3.466C-4.918,-2.802 -5.512,-2.226 -5.97,-1.514C-6.151,-1.232 -6.343,-0.94 -6.491,-0.638C-6.606,-0.402 -6.485,-0.2 -6.746,0" style="fill:none;fill-rule:nonzero;stroke:rgb(1,1,2);stroke-width:1px;"/>
    </g>
    <g transform="matrix(0.646062,2.58722,2.58722,-0.646062,335.161,277.429)">
        <path d="M-1.092,-1.213C-0.203,-1.435 0.782,-1.877 1.6,-1.213" style="fill:none;fill-rule:nonzero;stroke:rgb(1,1,2);stroke-width:1px;"/>
    </g>
    <g transform="matrix(1.88562,1.88562,1.88562,-1.88562,345.243,263.06)">
        <path d="M-0.27,-0.653C0.162,-0.653 1.227,-0.462 1.576,-0.653" style="fill:none;fill-rule:nonzero;stroke:rgb(1,1,2);stroke-width:1px;"/>
    </g>
    <g transform="matrix(1.19147,2.38569,2.38569,-1.19147,358.21,261.582)">
        <path d="M-0.269,-0.436C0.055,-0.435 0.38,-0.436 0.704,-0.436" style="fill:none;fill-rule:nonzero;stroke:rgb(1,1,2);stroke-width:1px;"/>
    </g>
    <g transform="matrix(0,-2.66667,-2.66667,0,470.011,232.444)">
        <path d="M-0.218,0.218L0.218,0.218" style="fill:none;fill-rule:nonzero;stroke:rgb(1,1,2);stroke-width:1px;"/>
    </g>
    <g transform="matrix(2.66667,0,0,2.66667,326.629,228.325)">
        <path d="M0,-60.949C-0.114,-61.939 -0.548,-62.825 -0.859,-63.757C-1.048,-64.32 -1.321,-65.168 -1.731,-65.619C-1.965,-65.876 -2.259,-65.956 -2.525,-66.173C-2.918,-66.49 -3.191,-66.816 -3.675,-67.021C-4.172,-67.232 -4.719,-67.293 -5.238,-67.433C-5.911,-67.615 -6.649,-67.946 -7.362,-67.901C-7.946,-67.865 -8.568,-67.636 -9.144,-67.524C-9.767,-67.403 -10.353,-67.311 -10.904,-67.021C-11.643,-66.633 -12.324,-65.963 -13.143,-65.772C-12.77,-66.524 -12.049,-67.126 -11.463,-67.713C-11.047,-68.128 -10.65,-68.636 -10.168,-68.974C-9.775,-69.251 -9.303,-69.387 -8.905,-69.665C-8.477,-69.965 -8.096,-70.27 -7.617,-70.487C-6.921,-70.803 -6.183,-71.03 -5.616,-71.571C-4.948,-72.207 -4.627,-73.252 -4.562,-74.16C-4.499,-75.039 -4.855,-76.28 -5.409,-76.987C-5.813,-77.503 -6.363,-77.428 -6.953,-77.504C-7.812,-77.614 -8.649,-77.72 -9.521,-77.688C-11.052,-77.635 -12.68,-76.948 -13.991,-76.178C-15.281,-75.42 -16.706,-74.567 -17.835,-73.529C-16.456,-74.8 -14.607,-75.939 -14.157,-77.832C-13.947,-78.716 -13.973,-79.559 -14.331,-80.401C-14.651,-81.153 -15.128,-81.401 -15.908,-81.541C-18.056,-81.928 -20.02,-80.886 -21.753,-79.717C-22.053,-79.514 -22.354,-79.282 -22.651,-79.04C-22.923,-78.645 -23.217,-78.27 -23.486,-77.935C-23.999,-77.298 -24.638,-76.631 -25.378,-76.264C-25.15,-76.89 -24.428,-77.377 -23.974,-77.838C-23.573,-78.246 -23.119,-78.658 -22.651,-79.04C-22.327,-79.51 -22.036,-80.007 -21.864,-80.498C-21.465,-81.64 -21.965,-82.625 -22.888,-83.342C-23.515,-83.828 -24.579,-84.277 -25.397,-84.165C-25.855,-84.101 -26.421,-83.799 -26.861,-83.653C-27.26,-83.521 -27.686,-83.406 -28.054,-83.201C-28.326,-83.051 -28.532,-82.803 -28.812,-82.661C-29.053,-82.539 -29.344,-82.519 -29.586,-82.407C-30.084,-82.178 -30.59,-81.864 -31.06,-81.581C-31.466,-81.336 -31.913,-81.257 -32.291,-81.039C-32.755,-80.772 -33.161,-80.276 -33.611,-79.955C-34.185,-79.547 -34.529,-78.964 -35.073,-78.527C-35.516,-78.174 -35.927,-77.845 -36.335,-77.439C-36.958,-76.821 -37.428,-76.124 -38.062,-75.496C-38.964,-74.603 -39.516,-73.663 -40.242,-72.646C-40.564,-72.197 -41.03,-71.87 -41.347,-71.423C-41.685,-70.945 -41.672,-70.359 -41.973,-69.877C-42.575,-68.908 -43.37,-67.951 -43.691,-66.814C-43.917,-66.018 -43.9,-65.213 -44.1,-64.421C-44.383,-63.298 -44.377,-62.259 -44.377,-61.113C-44.377,-60.196 -44.438,-59.259 -44.394,-58.344C-44.371,-57.893 -44,-57.67 -43.97,-57.302C-43.938,-56.909 -44.186,-56.663 -44.378,-56.39C-44.831,-55.75 -45.169,-54.845 -45.673,-54.202C-45.956,-53.84 -46.387,-53.681 -46.668,-53.305C-46.985,-52.883 -47.261,-52.422 -47.577,-51.995C-48.028,-51.386 -48.577,-50.913 -49.059,-50.339C-49.425,-49.903 -49.698,-49.4 -50.095,-48.985C-50.843,-48.203 -51.28,-47.232 -51.992,-46.434C-53.304,-44.964 -54.709,-43.387 -56.265,-42.18C-56.693,-41.846 -56.787,-41.435 -57.102,-41.015C-57.314,-40.732 -57.612,-40.494 -57.864,-40.243C-58.666,-39.444 -59.473,-38.649 -60.284,-37.869C-62.051,-36.169 -64.081,-34.803 -65.813,-33.056C-66.647,-32.215 -67.454,-31.47 -68.215,-30.564C-68.746,-29.93 -69.438,-29.431 -69.955,-28.786C-72.009,-26.227 -74.383,-24.004 -76.572,-21.553C-76.563,-21.386 -76.541,-21.221 -76.511,-21.058C-76.626,-20.957 -76.737,-20.851 -76.832,-20.723C-77.175,-20.261 -77.586,-19.949 -77.943,-19.5C-78.734,-18.506 -79.763,-17.707 -80.54,-16.712C-80.935,-16.207 -81.136,-15.678 -81.593,-15.217C-82.08,-14.724 -82.529,-14.276 -82.935,-13.716C-84.343,-11.767 -85.594,-9.726 -86.934,-7.735C-87.424,-7.007 -87.991,-6.381 -88.457,-5.624C-89.024,-4.702 -89.298,-3.595 -89.91,-2.686C-90.482,-1.835 -90.825,-0.888 -91.313,0.014C-91.614,0.57 -91.716,1.145 -91.875,1.744C-92.053,2.415 -92.006,3.058 -92.149,3.727C-92.563,5.666 -92.354,7.893 -92.324,9.893C-92.311,10.822 -92.069,11.849 -91.824,12.75C-91.699,13.213 -91.45,13.7 -91.202,14.104C-91.073,14.314 -90.868,14.53 -90.791,14.778C-90.681,15.127 -90.768,15.31 -90.567,15.653C-90.228,16.238 -89.539,16.559 -89.169,17.123C-89.007,17.369 -88.92,17.69 -88.742,17.929C-88.539,18.202 -88.211,18.408 -87.972,18.649C-87.517,19.107 -87.017,19.58 -86.484,19.956C-86.015,20.287 -85.485,20.45 -85.005,20.786C-84.03,21.469 -82.704,21.599 -81.58,21.842C-81.084,21.949 -80.68,22.255 -80.206,22.415C-79.585,22.624 -78.824,22.816 -78.173,22.92C-76.837,23.133 -75.535,23.139 -74.176,23.139C-73.052,23.139 -71.748,23.328 -70.665,22.986C-69.943,22.758 -69.244,22.408 -68.565,22.076C-67.805,21.704 -67.226,21.202 -66.508,20.78C-65.841,20.388 -65.129,20.056 -64.461,19.665C-63.733,19.239 -63.258,18.566 -62.561,18.088C-61.98,17.693 -61.529,17.117 -60.978,16.67C-60.514,16.293 -60.162,16.039 -59.642,15.739C-58.635,15.155 -57.982,14.012 -57.059,13.305C-56.077,12.553 -54.963,11.661 -54.363,10.56C-53.76,9.449 -52.722,8.674 -52.118,7.527C-51.524,6.397 -50.777,5.382 -50.091,4.315C-49.359,3.175 -48.708,1.935 -47.943,0.817C-47.47,0.124 -46.948,-0.442 -46.635,-1.243C-46.429,-1.766 -46.197,-2.159 -45.89,-2.631C-45.532,-3.178 -45.188,-3.653 -44.876,-4.215C-44.567,-4.769 -44.411,-5.183 -44.201,-5.794C-44.039,-6.262 -43.857,-6.746 -43.639,-7.189C-43.405,-7.666 -43.378,-8.17 -43.146,-8.64C-43.05,-8.835 -42.96,-9.028 -42.875,-9.221C-42.129,-10.63 -41.376,-12.035 -40.684,-13.47C-40.246,-14.378 -39.527,-15.107 -39.032,-15.981C-38.33,-17.22 -37.516,-18.329 -36.697,-19.494C-35.984,-20.51 -35.276,-21.434 -34.677,-22.523C-34.094,-23.583 -33.221,-24.589 -32.401,-25.469C-30.617,-27.385 -29.064,-29.548 -27.482,-31.628C-27.081,-32.156 -26.672,-32.669 -26.292,-33.213C-25.997,-33.635 -25.62,-34.505 -25.174,-34.788C-24.664,-35.111 -24.496,-34.725 -24.145,-34.365C-23.799,-34.012 -23.384,-33.761 -23.008,-33.444C-22.236,-32.797 -21.319,-32.367 -20.396,-31.965C-19.261,-31.47 -18.021,-31.478 -16.807,-31.335C-15.672,-31.2 -14.465,-31.315 -13.317,-31.315C-11.247,-31.317 -9.047,-31.56 -7.165,-32.505C-5.828,-33.176 -4.919,-33.937 -4,-35.125C-3.289,-36.044 -2.752,-37.06 -2.27,-38.113C-1.916,-38.882 -1.721,-39.765 -1.552,-40.592C-1.433,-41.171 -1.247,-41.682 -1.409,-42.249C-1.53,-42.671 -1.626,-43.125 -1.76,-43.537C-1.904,-43.981 -2.258,-44.28 -2.589,-44.6C-3.325,-45.312 -4.53,-45.799 -5.543,-45.97C-6.608,-46.151 -7.599,-45.492 -8.566,-45.14C-9.701,-44.728 -10.644,-44.256 -11.853,-44.085C-12.881,-43.94 -14.339,-44.26 -15.33,-44.569C-16.675,-44.991 -18.051,-46.182 -18.834,-47.348C-19.426,-48.23 -19.586,-49.683 -19.743,-50.732C-20.082,-52.995 -19.084,-55.345 -17.271,-56.756C-15.75,-57.938 -13.874,-58.554 -12.019,-58.904C-10.294,-59.229 -8.135,-59.041 -6.725,-57.973C-5.906,-57.353 -5.071,-56.876 -4.132,-56.471C-3.399,-56.155 -2.794,-56.252 -2.069,-56.672C-1.312,-57.109 -0.643,-57.973 -0.419,-58.791C-0.208,-59.562 0.095,-60.119 0,-60.949" style="fill:rgb(38,156,192);fill-rule:nonzero;"/>
    </g>
    <g transform="matrix(2.66667,0,0,2.66667,326.629,228.325)">
        <path d="M0,-60.949C-0.114,-61.939 -0.548,-62.825 -0.859,-63.757C-1.048,-64.32 -1.321,-65.168 -1.731,-65.619C-1.965,-65.876 -2.259,-65.956 -2.525,-66.173C-2.918,-66.49 -3.191,-66.816 -3.675,-67.021C-4.172,-67.232 -4.719,-67.293 -5.238,-67.433C-5.911,-67.615 -6.649,-67.946 -7.362,-67.901C-7.946,-67.865 -8.568,-67.636 -9.144,-67.524C-9.767,-67.403 -10.353,-67.311 -10.904,-67.021C-11.643,-66.633 -12.324,-65.963 -13.143,-65.772C-12.77,-66.524 -12.049,-67.126 -11.463,-67.713C-11.047,-68.128 -10.65,-68.636 -10.168,-68.974C-9.775,-69.251 -9.303,-69.387 -8.905,-69.665C-8.477,-69.965 -8.096,-70.27 -7.617,-70.487C-6.921,-70.803 -6.183,-71.03 -5.616,-71.571C-4.948,-72.207 -4.627,-73.252 -4.562,-74.16C-4.499,-75.039 -4.855,-76.28 -5.409,-76.987C-5.813,-77.503 -6.363,-77.428 -6.953,-77.504C-7.812,-77.614 -8.649,-77.72 -9.521,-77.688C-11.052,-77.635 -12.68,-76.948 -13.991,-76.178C-15.281,-75.42 -16.706,-74.567 -17.835,-73.529C-16.456,-74.8 -14.607,-75.939 -14.157,-77.832C-13.947,-78.716 -13.973,-79.559 -14.331,-80.401C-14.651,-81.153 -15.128,-81.401 -15.908,-81.541C-18.056,-81.928 -20.02,-80.886 -21.753,-79.717C-22.053,-79.514 -22.354,-79.282 -22.651,-79.04C-22.923,-78.645 -23.217,-78.27 -23.486,-77.935C-23.999,-77.298 -24.638,-76.631 -25.378,-76.264C-25.15,-76.89 -24.428,-77.377 -23.974,-77.838C-23.573,-78.246 -23.119,-78.658 -22.651,-79.04C-22.327,-79.51 -22.036,-80.007 -21.864,-80.498C-21.465,-81.64 -21.965,-82.625 -22.888,-83.342C-23.515,-83.828 -24.579,-84.277 -25.397,-84.165C-25.855,-84.101 -26.421,-83.799 -26.861,-83.653C-27.26,-83.521 -27.686,-83.406 -28.054,-83.201C-28.326,-83.051 -28.532,-82.803 -28.812,-82.661C-29.053,-82.539 -29.344,-82.519 -29.586,-82.407C-30.084,-82.178 -30.59,-81.864 -31.06,-81.581C-31.466,-81.336 -31.913,-81.257 -32.291,-81.039C-32.755,-80.772 -33.161,-80.276 -33.611,-79.955C-34.185,-79.547 -34.529,-78.964 -35.073,-78.527C-35.516,-78.174 -35.927,-77.845 -36.335,-77.439C-36.958,-76.821 -37.428,-76.124 -38.062,-75.496C-38.964,-74.603 -39.516,-73.663 -40.242,-72.646C-40.564,-72.197 -41.03,-71.87 -41.347,-71.423C-41.685,-70.945 -41.672,-70.359 -41.973,-69.877C-42.575,-68.908 -43.37,-67.951 -43.691,-66.814C-43.917,-66.018 -43.9,-65.213 -44.1,-64.421C-44.383,-63.298 -44.377,-62.259 -44.377,-61.113C-44.377,-60.196 -44.438,-59.259 -44.394,-58.344C-44.371,-57.893 -44,-57.67 -43.97,-57.302C-43.938,-56.909 -44.186,-56.663 -44.378,-56.39C-44.831,-55.75 -45.169,-54.845 -45.673,-54.202C-45.956,-53.84 -46.387,-53.681 -46.668,-53.305C-46.985,-52.883 -47.261,-52.422 -47.577,-51.995C-48.028,-51.386 -48.577,-50.913 -49.059,-50.339C-49.425,-49.903 -49.698,-49.4 -50.095,-48.985C-50.843,-48.203 -51.28,-47.232 -51.992,-46.434C-53.304,-44.964 -54.709,-43.387 -56.265,-42.18C-56.693,-41.846 -56.787,-41.435 -57.102,-41.015C-57.314,-40.732 -57.612,-40.494 -57.864,-40.243C-58.666,-39.444 -59.473,-38.649 -60.284,-37.869C-62.051,-36.169 -64.081,-34.803 -65.813,-33.056C-66.647,-32.215 -67.454,-31.47 -68.215,-30.564C-68.746,-29.93 -69.438,-29.431 -69.955,-28.786C-72.009,-26.227 -74.383,-24.004 -76.572,-21.553C-76.563,-21.386 -76.541,-21.221 -76.511,-21.058C-76.626,-20.957 -76.737,-20.851 -76.832,-20.723C-77.175,-20.261 -77.586,-19.949 -77.943,-19.5C-78.734,-18.506 -79.763,-17.707 -80.54,-16.712C-80.935,-16.207 -81.136,-15.678 -81.593,-15.217C-82.08,-14.724 -82.529,-14.276 -82.935,-13.716C-84.343,-11.767 -85.594,-9.726 -86.934,-7.735C-87.424,-7.007 -87.991,-6.381 -88.457,-5.624C-89.024,-4.702 -89.298,-3.595 -89.91,-2.686C-90.482,-1.835 -90.825,-0.888 -91.313,0.014C-91.614,0.57 -91.716,1.145 -91.875,1.744C-92.053,2.415 -92.006,3.058 -92.149,3.727C-92.563,5.666 -92.354,7.893 -92.324,9.893C-92.311,10.822 -92.069,11.849 -91.824,12.75C-91.699,13.213 -91.45,13.7 -91.202,14.104C-91.073,14.314 -90.868,14.53 -90.791,14.778C-90.681,15.127 -90.768,15.31 -90.567,15.653C-90.228,16.238 -89.539,16.559 -89.169,17.123C-89.007,17.369 -88.92,17.69 -88.742,17.929C-88.539,18.202 -88.211,18.408 -87.972,18.649C-87.517,19.107 -87.017,19.58 -86.484,19.956C-86.015,20.287 -85.485,20.45 -85.005,20.786C-84.03,21.469 -82.704,21.599 -81.58,21.842C-81.084,21.949 -80.68,22.255 -80.206,22.415C-79.585,22.624 -78.824,22.816 -78.173,22.92C-76.837,23.133 -75.535,23.139 -74.176,23.139C-73.052,23.139 -71.748,23.328 -70.665,22.986C-69.943,22.758 -69.244,22.408 -68.565,22.076C-67.805,21.704 -67.226,21.202 -66.508,20.78C-65.841,20.388 -65.129,20.056 -64.461,19.665C-63.733,19.239 -63.258,18.566 -62.561,18.088C-61.98,17.693 -61.529,17.117 -60.978,16.67C-60.514,16.293 -60.162,16.039 -59.642,15.739C-58.635,15.155 -57.982,14.012 -57.059,13.305C-56.077,12.553 -54.963,11.661 -54.363,10.56C-53.76,9.449 -52.722,8.674 -52.118,7.527C-51.524,6.397 -50.777,5.382 -50.091,4.315C-49.359,3.175 -48.708,1.935 -47.943,0.817C-47.47,0.124 -46.948,-0.442 -46.635,-1.243C-46.429,-1.766 -46.197,-2.159 -45.89,-2.631C-45.532,-3.178 -45.188,-3.653 -44.876,-4.215C-44.567,-4.769 -44.411,-5.183 -44.201,-5.794C-44.039,-6.262 -43.857,-6.746 -43.639,-7.189C-43.405,-7.666 -43.378,-8.17 -43.146,-8.64C-43.05,-8.835 -42.96,-9.028 -42.875,-9.221C-42.129,-10.63 -41.376,-12.035 -40.684,-13.47C-40.246,-14.378 -39.527,-15.107 -39.032,-15.981C-38.33,-17.22 -37.516,-18.329 -36.697,-19.494C-35.984,-20.51 -35.276,-21.434 -34.677,-22.523C-34.094,-23.583 -33.221,-24.589 -32.401,-25.469C-30.617,-27.385 -29.064,-29.548 -27.482,-31.628C-27.081,-32.156 -26.672,-32.669 -26.292,-33.213C-25.997,-33.635 -25.62,-34.505 -25.174,-34.788C-24.664,-35.111 -24.496,-34.725 -24.145,-34.365C-23.799,-34.012 -23.384,-33.761 -23.008,-33.444C-22.236,-32.797 -21.319,-32.367 -20.396,-31.965C-19.261,-31.47 -18.021,-31.478 -16.807,-31.335C-15.672,-31.2 -14.465,-31.315 -13.317,-31.315C-11.247,-31.317 -9.047,-31.56 -7.165,-32.505C-5.828,-33.176 -4.919,-33.937 -4,-35.125C-3.289,-36.044 -2.752,-37.06 -2.27,-38.113C-1.916,-38.882 -1.721,-39.765 -1.552,-40.592C-1.433,-41.171 -1.247,-41.682 -1.409,-42.249C-1.53,-42.671 -1.626,-43.125 -1.76,-43.537C-1.904,-43.981 -2.258,-44.28 -2.589,-44.6C-3.325,-45.312 -4.53,-45.799 -5.543,-45.97C-6.608,-46.151 -7.599,-45.492 -8.566,-45.14C-9.701,-44.728 -10.644,-44.256 -11.853,-44.085C-12.881,-43.94 -14.339,-44.26 -15.33,-44.569C-16.675,-44.991 -18.051,-46.182 -18.834,-47.348C-19.426,-48.23 -19.586,-49.683 -19.743,-50.732C-20.082,-52.995 -19.084,-55.345 -17.271,-56.756C-15.75,-57.938 -13.874,-58.554 -12.019,-58.904C-10.294,-59.229 -8.135,-59.041 -6.725,-57.973C-5.906,-57.353 -5.071,-56.876 -4.132,-56.471C-3.399,-56.155 -2.794,-56.252 -2.069,-56.672C-1.312,-57.109 -0.643,-57.973 -0.419,-58.791C-0.208,-59.562 0.095,-60.119 0,-60.949Z" style="fill:none;fill-rule:nonzero;stroke:rgb(1,1,2);stroke-width:1px;"/>
    </g>
    <g transform="matrix(1.4793,2.21874,2.21874,-1.4793,111.588,313.497)">
        <path d="M-1.435,-2.66C0.123,-3.023 3.702,-4.583 4.937,-2.66" style="fill:none;fill-rule:nonzero;stroke:rgb(1,1,2);stroke-width:1px;"/>
    </g>
    <g transform="matrix(2.66667,0,0,2.66667,106.707,363.361)">
        <path d="M0,-4.279C0.324,-3.362 0.845,-1.047 1.817,-0.442C2.529,0 3.291,-0.144 4.124,-0.155" style="fill:none;fill-rule:nonzero;stroke:rgb(1,1,2);stroke-width:1px;"/>
    </g>
    <g transform="matrix(2.66667,0,0,2.66667,153.838,360.802)">
        <path d="M0,-3.908C0.611,-3.25 1.937,-0.896 1.781,0C1.776,-0.124 1.771,-0.249 1.768,-0.374" style="fill:none;fill-rule:nonzero;stroke:rgb(1,1,2);stroke-width:1px;"/>
    </g>
    <g transform="matrix(1.37199,2.28665,2.28665,-1.37199,180.343,309.42)">
        <path d="M-0.834,-1.472C0.049,-1.585 1.938,-2.319 2.601,-1.473" style="fill:none;fill-rule:nonzero;stroke:rgb(1,1,2);stroke-width:1px;"/>
    </g>
    <g transform="matrix(0.733,2.56395,2.56395,-0.733,215.461,297.587)">
        <path d="M-1.475,-2.168C-0.262,-2.162 1.667,-1.611 2.814,-2.168" style="fill:none;fill-rule:nonzero;stroke:rgb(1,1,2);stroke-width:1px;"/>
    </g>
    <g transform="matrix(-0.843274,2.52982,2.52982,0.843274,221.021,341.659)">
        <path d="M-1.226,-0.883L0.637,-0.883" style="fill:none;fill-rule:nonzero;stroke:rgb(1,1,2);stroke-width:1px;"/>
    </g>
    <g transform="matrix(1.88402,-1.88722,-1.88722,-1.88402,415.411,356.989)">
        <path d="M-0.122,0.295C0.155,0.295 0.433,0.295 0.711,0.295" style="fill:none;fill-rule:nonzero;stroke:rgb(1,1,2);stroke-width:1px;"/>
    </g>
    <g transform="matrix(2.66667,0,0,2.66667,405.197,373.946)">
        <path d="M0,0L0.59,0" style="fill:none;fill-rule:nonzero;stroke:rgb(1,1,2);stroke-width:1px;"/>
    </g>
</svg>
