<?xml version="1.0" encoding="UTF-8" standalone="no"?>
<!DOCTYPE svg PUBLIC "-//W3C//DTD SVG 1.1//EN" "http://www.w3.org/Graphics/SVG/1.1/DTD/svg11.dtd">
<svg width="100%" height="100%" viewBox="0 0 736 169" version="1.1" xmlns="http://www.w3.org/2000/svg" xmlns:xlink="http://www.w3.org/1999/xlink" xml:space="preserve" xmlns:serif="http://www.serif.com/" style="fill-rule:evenodd;clip-rule:evenodd;stroke-linecap:round;stroke-linejoin:round;stroke-miterlimit:10;">
    <g transform="matrix(2.66667,0,0,2.66667,633.535,165.451)">
        <path d="M0,-60.588C0.482,-60.55 0.701,-60.63 1.137,-60.751C1.739,-60.92 2.165,-60.836 2.787,-60.828C3.829,-60.815 4.978,-61.075 6.032,-60.854C6.509,-60.753 6.713,-60.561 7.243,-60.558C7.684,-60.556 8.116,-60.652 8.559,-60.684C9.147,-60.726 9.731,-60.883 10.299,-60.951C10.885,-61.021 11.461,-60.853 12.046,-60.938C12.418,-60.992 12.888,-61.191 13.213,-61.217C13.478,-61.239 13.75,-61.152 14.016,-61.174C14.321,-61.2 14.534,-61.329 14.83,-61.359C15.344,-61.411 15.809,-61.107 16.295,-61.043C16.934,-60.96 17.645,-60.932 18.292,-60.922C18.909,-60.912 19.407,-61.134 20.015,-61.195C20.555,-61.249 21.06,-61.235 21.584,-61.302C22.166,-61.376 22.815,-61.357 23.406,-61.398C23.815,-61.426 24.199,-61.339 24.596,-61.36C24.942,-61.379 25.348,-61.592 25.693,-61.534C25.999,-61.482 26.041,-61.319 26.305,-61.258C26.563,-61.198 26.901,-61.232 27.171,-61.216C27.778,-61.181 28.252,-61.201 28.833,-61.276C29.979,-61.424 30.755,-61.087 31.749,-60.783C32.685,-60.497 33.709,-60.384 34.375,-59.749C35.295,-58.87 35.744,-57.691 36.025,-56.548C36.178,-55.926 36.057,-55.341 35.964,-54.703C35.868,-54.041 36.072,-53.434 35.97,-52.761C35.875,-52.127 36.003,-51.59 35.993,-50.965C35.978,-50.151 35.781,-49.402 35.864,-48.587C35.926,-47.973 35.775,-47.399 35.865,-46.775C35.963,-46.093 35.957,-45.59 35.928,-44.916C35.901,-44.27 36.145,-43.621 36.257,-42.989C36.398,-42.202 36.149,-41.454 36.39,-40.683C37.224,-38.008 37.058,-35.196 37.381,-32.48C37.538,-31.164 37.125,-29.879 37.048,-28.554C37.035,-28.312 37.137,-28.153 37.171,-27.934C37.222,-27.61 37.127,-27.316 37.094,-26.989C37.017,-26.235 37.483,-25.538 36.826,-24.852L37.531,-20.673C37.458,-20.018 37.603,-19.467 37.531,-18.811C37.452,-18.082 37.624,-17.391 37.507,-16.64C37.278,-15.161 35.595,-14.225 33.915,-13.854C32.265,-13.489 30.726,-13.003 29.043,-13.121C26.868,-13.275 24.609,-12.72 22.454,-12.432C21.667,-12.326 20.965,-12.452 20.18,-12.43C19.741,-12.418 19.333,-12.305 18.891,-12.29C17.828,-12.254 16.772,-12.097 15.708,-12.046C14.372,-11.981 13.118,-11.852 11.781,-11.901C10.821,-11.937 9.845,-11.704 8.882,-11.676C6.695,-11.612 4.521,-11.644 2.327,-11.65C1.478,-11.652 0.685,-11.518 -0.177,-11.58C-0.568,-11.608 -0.982,-11.673 -1.376,-11.667C-2.375,-11.651 -3.404,-11.325 -4.408,-11.243C-5.457,-11.157 -6.488,-10.91 -7.537,-10.831C-8.459,-10.76 -9.327,-10.971 -10.24,-10.85C-11.075,-10.739 -11.816,-10.833 -12.639,-10.667C-13.554,-10.483 -14.464,-10.263 -15.389,-10.081C-17.297,-9.706 -19.204,-9.219 -21.183,-9.342C-22.039,-9.395 -22.912,-9.241 -23.747,-9.13C-24.644,-9.01 -25.533,-9.27 -26.442,-9.151C-27.371,-9.029 -28.308,-8.772 -29.246,-8.789C-30.241,-8.807 -31.181,-8.791 -32.184,-8.768C-32.757,-8.754 -33.316,-8.641 -33.887,-8.656C-34.314,-8.668 -34.751,-8.766 -35.179,-8.753C-35.968,-8.729 -36.643,-8.623 -37.45,-8.673C-38.123,-8.715 -38.797,-8.753 -39.469,-8.8C-40.441,-8.868 -41.295,-8.43 -42.251,-8.538C-43.262,-8.651 -44.203,-8.738 -45.263,-8.63C-46.045,-8.55 -46.777,-8.617 -47.559,-8.666C-49,-8.755 -50.178,-8.452 -51.56,-8.127C-52.282,-7.957 -53.179,-7.854 -53.911,-7.799C-54.761,-7.735 -55.472,-8.198 -56.289,-8.15C-56.765,-8.123 -57.154,-8.008 -57.642,-8.031C-57.985,-8.047 -58.346,-8.117 -58.689,-8.107C-59.375,-8.087 -60.039,-7.808 -60.74,-7.802C-61.347,-7.798 -61.722,-7.918 -62.268,-7.721C-62.618,-7.595 -63.009,-7.244 -63.411,-7.351L-68.342,-7.857C-68.703,-8.347 -69.856,-7.892 -70.416,-7.827C-71.342,-7.721 -72.173,-7.737 -73.096,-7.716C-74.484,-7.685 -75.901,-7.389 -77.298,-7.315C-78.664,-7.242 -79.926,-7.107 -81.289,-7.195C-83.741,-7.353 -86.039,-7.055 -88.483,-6.747C-89.099,-6.669 -89.634,-6.613 -90.22,-6.748C-90.657,-6.849 -90.931,-6.961 -91.419,-6.986C-92.325,-7.031 -93.246,-7.146 -94.156,-7.157C-95.497,-7.173 -96.771,-6.888 -98.131,-6.975C-98.924,-7.025 -99.736,-7.122 -100.534,-7.13C-101.571,-7.142 -102.615,-6.889 -103.647,-6.883C-104.643,-6.878 -105.562,-6.863 -106.571,-6.762C-107.675,-6.651 -108.779,-6.541 -109.878,-6.393C-111.039,-6.237 -112.309,-6.306 -113.435,-6.046C-115.519,-5.564 -117.616,-5.77 -119.712,-5.542C-121.928,-5.3 -124.122,-5.249 -126.327,-4.909C-127.923,-4.664 -129.519,-4.484 -131.094,-4.215C-131.896,-4.079 -132.701,-4.09 -133.503,-3.999C-134.351,-3.902 -135.2,-3.814 -136.049,-3.74C-136.684,-3.685 -137.246,-3.498 -137.869,-3.431C-138.88,-3.324 -139.909,-3.306 -140.922,-3.203C-141.514,-3.143 -142.065,-3.272 -142.656,-3.216C-142.983,-3.184 -143.308,-3.097 -143.641,-3.103C-144.303,-3.116 -144.892,-2.982 -145.557,-3.024C-146.482,-3.083 -147.536,-2.985 -148.459,-2.844C-148.799,-2.792 -149.144,-2.715 -149.485,-2.683C-149.91,-2.643 -150.328,-2.767 -150.736,-2.729C-151.601,-2.649 -152.279,-2.526 -153.158,-2.703C-153.913,-2.856 -154.574,-3.045 -155.398,-2.953C-156.743,-2.804 -157.92,-2.527 -159.289,-2.615C-160.146,-2.671 -160.904,-2.747 -161.747,-2.609C-162.182,-2.537 -162.572,-2.414 -163.008,-2.422C-163.955,-2.441 -164.796,-2.329 -165.761,-2.387C-166.391,-2.425 -167.066,-2.534 -167.696,-2.458C-168.152,-2.403 -168.586,-2.219 -169.04,-2.161C-169.301,-2.127 -169.514,-2.235 -169.793,-2.177C-170.048,-2.123 -170.167,-1.962 -170.38,-1.886C-170.944,-1.686 -171.504,-1.698 -172.093,-1.737L-179.363,-1.557C-179.83,-1.417 -180.203,-1.504 -180.627,-1.393C-181.026,-1.289 -181.149,-1.085 -181.616,-1.058C-182.289,-1.019 -183.051,-1.158 -183.72,-1.201C-184.458,-1.248 -185.185,-1.203 -185.897,-1.276C-186.594,-1.348 -187.33,-1.49 -188.045,-1.479C-188.892,-1.464 -189.862,-1.189 -190.714,-1.061C-191.87,-0.888 -192.854,-0.715 -194.02,-0.792C-195.104,-0.863 -196.165,-0.975 -197.255,-0.837C-198.466,-0.684 -199.706,-0.618 -200.922,-0.589C-201.844,-0.567 -202.773,-0.48 -203.686,-0.395C-204.572,-0.311 -205.27,-0.401 -206.12,-0.498C-206.846,-0.582 -207.515,-0.375 -208.251,-0.408C-208.972,-0.441 -209.695,-0.564 -210.419,-0.502C-211.493,-0.41 -212.458,-0.045 -213.55,-0.109C-214.363,-0.157 -215.167,-0.051 -215.957,-0.132C-217.523,-0.294 -219.059,0.393 -220.646,0.283C-221.284,0.238 -221.924,0.208 -222.563,0.167C-222.933,0.144 -223.4,0.042 -223.766,0.084C-224.082,0.12 -224.311,0.231 -224.629,0.26C-224.867,0.283 -225.149,0.188 -225.383,0.192C-225.786,0.199 -226.14,0.349 -226.542,0.351C-227.151,0.354 -227.69,0.415 -228.31,0.445C-229.6,0.508 -230.87,1.004 -232.148,0.485C-233.27,0.03 -234.042,-1.02 -234.289,-1.993C-234.438,-2.585 -234.487,-3.179 -234.575,-3.768C-234.632,-4.153 -234.89,-4.534 -234.914,-4.924C-234.936,-5.296 -234.993,-5.636 -235.021,-6.011C-235.043,-6.287 -234.909,-6.514 -234.961,-6.794C-234.988,-6.933 -235.097,-7.049 -235.117,-7.197C-235.077,-7.402 -235.042,-7.609 -235.009,-7.816C-234.987,-8.089 -235.022,-8.357 -235.113,-8.618C-235.122,-8.871 -235.074,-9.117 -235.094,-9.366C-235.129,-9.787 -235.234,-10.074 -235.169,-10.524C-235.053,-11.334 -235.215,-12.13 -235.36,-12.913C-235.471,-13.509 -235.286,-14.016 -235.452,-14.642C-235.572,-15.098 -235.534,-15.453 -235.465,-15.93C-235.326,-16.888 -235.529,-17.804 -235.577,-18.743C-235.604,-19.275 -235.264,-19.915 -235.429,-20.425C-235.451,-20.494 -235.627,-20.589 -235.666,-20.672C-235.796,-20.952 -235.727,-21.189 -235.797,-21.477C-235.992,-22.273 -236.305,-23 -236.41,-23.799C-236.335,-23.807 -236.261,-23.814 -236.186,-23.821L-236.228,-27.339C-236.493,-27.554 -236.559,-27.716 -236.654,-27.991C-236.689,-28.091 -236.789,-28.432 -236.802,-28.522C-236.839,-28.785 -236.711,-29.048 -236.71,-29.314C-236.708,-29.63 -236.862,-29.907 -236.863,-30.228C-236.868,-31.292 -236.459,-32.321 -236.638,-33.361C-236.809,-34.359 -237.053,-35.48 -237.042,-36.478C-237.03,-37.646 -236.931,-38.839 -237.056,-39.998C-237.167,-41.026 -236.775,-42.253 -236.648,-43.29C-236.495,-44.526 -235.868,-45.554 -234.962,-46.564C-234.112,-47.512 -232.366,-47.708 -231.052,-47.888C-230.435,-47.973 -229.775,-48.044 -229.177,-48.213C-228.61,-48.374 -228.26,-48.359 -227.621,-48.326C-227.066,-48.297 -226.553,-47.987 -226.038,-48.008C-225.335,-48.036 -224.375,-48.252 -223.695,-48.422C-223.026,-48.589 -222.352,-48.855 -221.671,-48.953C-221.335,-49.001 -221.04,-48.962 -220.701,-48.935C-220.027,-48.883 -219.416,-48.946 -218.746,-49.004C-217.503,-49.11 -216.268,-49.155 -215.023,-49.269C-213.466,-49.412 -211.916,-49.322 -210.376,-49.45C-209.255,-49.544 -208.136,-49.525 -207.027,-49.606C-206.554,-49.64 -206.052,-49.685 -205.577,-49.735C-204.795,-49.817 -204.11,-49.662 -203.329,-49.687C-202.275,-49.721 -201.146,-49.73 -200.107,-49.91C-199.653,-49.989 -199.249,-50.113 -198.776,-50.105C-198.559,-50.101 -198.343,-50.056 -198.125,-50.048C-197.748,-50.034 -197.369,-50.166 -197.021,-50.159C-196.577,-50.15 -196.233,-49.92 -195.806,-49.892C-195.393,-49.864 -194.959,-50.045 -194.541,-50.054C-194.062,-50.066 -193.584,-49.948 -193.105,-49.947C-192.476,-49.945 -191.89,-50.152 -191.272,-50.213C-189.166,-50.421 -187.08,-50.644 -184.99,-50.968C-184.128,-51.102 -183.256,-51.046 -182.395,-51.123C-181.918,-51.166 -181.477,-51.093 -181.004,-51.077C-180.435,-51.057 -179.908,-51.204 -179.342,-51.201C-177.846,-51.195 -176.441,-51.091 -174.932,-51.228C-173.503,-51.358 -171.963,-51.381 -170.562,-51.607C-169.054,-51.85 -167.5,-52.082 -165.962,-52.045C-165.337,-52.03 -164.716,-51.939 -164.091,-51.913C-163.402,-51.884 -162.731,-52.027 -162.045,-52.009C-160.5,-51.97 -158.944,-52.067 -157.397,-52.239C-156.063,-52.388 -154.712,-52.325 -153.408,-52.566C-152.371,-52.758 -151.561,-52.792 -150.517,-52.748C-149.608,-52.709 -148.625,-53.039 -147.733,-52.755C-147.731,-52.698 -147.729,-52.641 -147.727,-52.584L-143.733,-52.548C-143.046,-52.515 -142.722,-52.651 -142.065,-52.757C-141.097,-52.914 -140.107,-52.859 -139.177,-53.099C-138.553,-53.261 -138.227,-53.156 -137.646,-53.202C-137.331,-53.227 -137.075,-53.358 -136.754,-53.374C-136.026,-53.409 -135.417,-53.213 -134.682,-53.391C-133.881,-53.585 -133.091,-53.892 -132.276,-54.033C-131.401,-54.184 -130.487,-54.024 -129.602,-54.128C-129.093,-54.187 -128.608,-54.101 -128.103,-54.078C-127.618,-54.055 -127.228,-54.154 -126.747,-54.188C-125.975,-54.241 -125.255,-54.328 -124.479,-54.276C-123.915,-54.239 -123.347,-54.194 -122.781,-54.169C-122.27,-54.146 -121.794,-54.281 -121.289,-54.28C-120.827,-54.279 -120.484,-53.996 -120.05,-53.987C-119.636,-53.979 -119.17,-54.226 -118.759,-54.297C-117.896,-54.448 -117.136,-54.667 -116.26,-54.608C-115.197,-54.535 -114.32,-54.475 -113.273,-54.689C-112.425,-54.862 -111.596,-54.98 -110.753,-55.202C-110.374,-55.302 -109.964,-55.432 -109.57,-55.456C-108.984,-55.491 -108.526,-55.214 -107.982,-55.127C-107.07,-54.982 -106.264,-55.179 -105.396,-55.188C-104.205,-55.201 -102.974,-55.396 -101.788,-55.538C-101.355,-55.59 -100.781,-55.745 -100.356,-55.731C-99.786,-55.713 -99.235,-55.446 -98.664,-55.391C-97.457,-55.273 -96.297,-55.63 -95.107,-55.604C-93.995,-55.581 -92.917,-55.729 -91.812,-55.924C-90.882,-56.088 -89.916,-56.006 -88.976,-56.1C-87.851,-56.212 -86.72,-56.4 -85.585,-56.451C-84.786,-56.487 -83.996,-56.331 -83.199,-56.314C-82.229,-56.294 -81.248,-56.472 -80.276,-56.515C-78.987,-56.571 -77.731,-56.696 -76.45,-56.854C-75.867,-56.925 -75.322,-56.798 -74.753,-56.836C-74.104,-56.879 -73.465,-57.058 -72.807,-57.096C-71.207,-57.19 -69.604,-57.085 -68.011,-57.265C-66.854,-57.397 -65.661,-57.548 -64.51,-57.461C-63.303,-57.369 -62.165,-57.723 -60.938,-57.658C-59.009,-57.557 -57.06,-58.011 -55.123,-57.937C-53.971,-57.892 -52.859,-58.013 -51.714,-57.93C-50.557,-57.846 -49.713,-58.31 -48.585,-58.362C-47.394,-58.418 -46.236,-58.78 -45.04,-58.874C-43.591,-58.987 -42.03,-59.01 -40.586,-58.912C-38.825,-58.792 -37.08,-58.921 -35.32,-58.988C-34.297,-59.027 -33.298,-58.806 -32.27,-58.862C-31.167,-58.923 -30.09,-59.042 -28.982,-59.031C-27.933,-59.02 -26.98,-59.317 -25.946,-59.431C-24.993,-59.537 -24.034,-59.609 -23.08,-59.714C-21.621,-59.875 -20.155,-59.981 -18.693,-60.112C-18.043,-60.171 -17.424,-60.317 -16.784,-60.421C-16.048,-60.539 -15.346,-60.408 -14.619,-60.485C-13.988,-60.552 -13.482,-60.664 -12.838,-60.521C-12.418,-60.428 -12.083,-60.294 -11.641,-60.257C-10.462,-60.16 -9.441,-60.124 -8.274,-60.319C-7.734,-60.41 -7.181,-60.47 -6.636,-60.525C-6.13,-60.576 -5.216,-60.768 -4.737,-60.668L0,-60.588Z" style="fill:rgb(214,108,166);fill-rule:nonzero;stroke:rgb(1,1,2);stroke-width:1px;"/>
    </g>
    <g transform="matrix(2.66667,0,0,2.66667,39.5258,120.214)">
        <path d="M0,-15.196L-3.438,-15.024C-4.183,-14.986 -4.764,-14.809 -5.18,-14.494C-5.799,-13.932 -6.076,-12.975 -6.008,-11.624C-6.955,-12.499 -7.356,-13.442 -7.21,-14.45C-7.101,-15.005 -6.162,-16.074 -4.396,-17.655C-2.64,-19.453 -1.444,-20.495 -0.811,-20.781C0.209,-21.206 1.288,-21.241 2.425,-20.884C2.804,-20.767 3.492,-20.35 4.491,-19.633C6.899,-17.811 8.174,-16.695 8.312,-16.291C8.45,-15.885 8.487,-15.523 8.425,-15.206C8.264,-14.509 7.96,-13.916 7.513,-13.422C7.357,-14.18 7.035,-14.734 6.546,-15.082C6.1,-15.355 5.515,-15.473 4.79,-15.437L2.145,-15.304C1.564,-15.923 1.214,-16.238 1.096,-16.252C0.864,-16.181 0.499,-15.829 0,-15.196ZM7.598,-1.17C6.995,-1.454 6.283,-1.536 5.464,-1.418L5.317,-1.41L5.17,-4.349L6.639,-4.423C7.421,-4.48 8.021,-4.678 8.436,-5.013C8.455,-5.033 8.474,-5.044 8.493,-5.045C8.61,-4.678 8.593,-4.225 8.443,-3.688C8.151,-2.867 7.868,-2.029 7.598,-1.17ZM8.034,0.487C7.996,0.51 7.978,0.53 7.979,0.55C7.495,1.477 7.413,2.591 7.734,3.89C7.393,4.142 6.95,4.312 6.404,4.399L-3.064,5.935C-3.688,6.045 -4.21,5.983 -4.635,5.749C-4.999,5.55 -5.278,5.27 -5.472,4.907C-5.845,4.159 -5.962,3.37 -5.827,2.537C-5.702,1.904 -5.352,1.454 -4.775,1.19C-4.559,1.59 -4.297,1.902 -3.992,2.122C-3.202,2.612 -2.313,2.686 -1.329,2.341C-0.231,1.914 0.472,1.249 0.78,0.351C0.968,-0.209 0.926,-0.845 0.655,-1.558C0.292,-2.523 -0.069,-3.467 -0.431,-4.391C-0.703,-5.123 -1.062,-5.636 -1.509,-5.927C-1.876,-6.204 -2.266,-6.342 -2.679,-6.341C-3.959,-6.413 -4.988,-5.989 -5.767,-5.066C-6.255,-5.415 -6.522,-6.03 -6.567,-6.912C-6.59,-7.774 -6.367,-8.404 -5.896,-8.801C-5.555,-9.054 -5.11,-9.194 -4.562,-9.221L-4.238,-9.238C-3.881,-9.177 -3.517,-9.156 -3.145,-9.175L-1.705,-9.247L-1.748,-10.1L-3.188,-10.028C-3.717,-10.001 -4.144,-10.097 -4.469,-10.316C-4.94,-10.705 -5.195,-11.282 -5.233,-12.046C-5.252,-12.81 -5.056,-13.391 -4.643,-13.783C-4.34,-14.015 -3.925,-14.145 -3.396,-14.171L4.833,-14.584C5.343,-14.59 5.76,-14.502 6.083,-14.322C6.554,-13.934 6.809,-13.357 6.848,-12.593C6.864,-11.866 6.667,-11.288 6.257,-10.854C5.936,-10.603 5.53,-10.465 5.041,-10.441L4.1,-10.393L4.143,-9.541L5.083,-9.588C5.456,-9.607 5.796,-9.663 6.106,-9.757L6.371,-9.77C6.939,-9.799 7.385,-9.703 7.711,-9.484C8.24,-9.118 8.526,-8.494 8.571,-7.612C8.572,-6.788 8.35,-6.158 7.9,-5.722C7.579,-5.45 7.145,-5.301 6.596,-5.274L4.363,-5.162L4.601,-0.43L5.593,-0.599C6.761,-0.814 7.575,-0.452 8.034,0.487ZM-5.316,-2.554C-5.501,-3.095 -5.534,-3.555 -5.416,-3.935C-5.23,-4.553 -4.724,-5.03 -3.896,-5.366C-3.142,-5.601 -2.511,-5.543 -2.002,-5.196C-1.678,-4.996 -1.414,-4.626 -1.21,-4.087C-0.29,-1.777 0.095,-0.381 -0.057,0.098C-0.357,0.781 -0.863,1.258 -1.576,1.529C-2.289,1.821 -2.919,1.774 -3.469,1.388C-3.813,1.19 -4.067,0.829 -4.23,0.307C-4.59,-0.598 -4.953,-1.551 -5.316,-2.554ZM17.676,-15.199L18.548,2.169C18.574,3.071 18.335,3.8 17.833,4.356C17.485,4.864 16.784,5.174 15.729,5.285L11.145,5.515C10.438,5.532 9.872,5.392 9.444,5.101C8.854,4.698 8.503,3.94 8.388,2.826C8.407,1.647 8.682,0.857 9.211,0.457C9.609,0.162 10.161,-0.003 10.866,-0.038L12.276,-0.109L11.534,-14.891L9.183,-14.773C9.278,-15.622 9.257,-16.23 9.121,-16.596C8.918,-17.136 8.082,-17.939 6.614,-19.004C6.739,-19.246 6.896,-19.441 7.086,-19.587C7.483,-19.883 8.016,-20.046 8.682,-20.08L18.085,-20.552C18.772,-20.567 19.308,-20.455 19.693,-20.219C20.305,-19.759 20.637,-19.02 20.688,-18.001C20.699,-17.001 20.441,-16.251 19.917,-15.754C19.54,-15.439 19.018,-15.267 18.352,-15.234L17.676,-15.199Z" style="fill:white;fill-rule:nonzero;stroke:rgb(1,1,2);stroke-width:1px;"/>
    </g>
    <g transform="matrix(2.66667,0,0,2.66667,135.143,77.6919)">
        <path d="M0,12.886C-0.182,13.955 -0.38,14.918 -0.591,15.773C-0.941,16.635 -1.041,17.386 -0.891,18.027C-0.792,18.435 -0.607,18.789 -0.337,19.09C-0.897,19.667 -1.587,20.007 -2.407,20.107L-6.081,20.291C-6.786,20.326 -7.333,20.197 -7.721,19.902C-8.333,19.442 -8.664,18.713 -8.714,17.713C-8.768,16.636 -8.511,15.875 -7.945,15.435C-7.546,15.159 -7.014,15.005 -6.348,14.972L-5.466,14.928L-5.7,10.255L-6.195,10.368C-6.854,10.558 -7.423,10.567 -7.902,10.395C-8.646,10.079 -9.159,9.428 -9.445,8.44C-9.677,7.331 -9.591,6.503 -9.187,5.952C-8.873,5.564 -8.386,5.284 -7.726,5.113L-5.983,4.613L-6.083,2.643C-6.118,1.938 -5.99,1.373 -5.696,0.945C-5.588,0.763 -5.438,0.608 -5.249,0.481L-4.161,0.427C-4.24,1.196 -4.001,1.843 -3.445,2.364C-2.207,3.559 -0.821,3.97 0.712,3.598L0.724,3.834C0.726,5.053 0.685,6.576 0.601,8.407L-0.214,8.624L0,12.886ZM1.401,-5.568C0.676,-4.747 0.358,-3.453 0.447,-1.691L0.665,2.659C-0.144,2.974 -0.941,2.946 -1.726,2.573C-2.692,2.111 -3.201,1.556 -3.253,0.91C-3.333,0.484 -3.231,-0.014 -2.945,-0.577L-2.949,-0.666L-3.759,-0.949C-3.849,-0.787 -3.918,-0.617 -3.969,-0.438L-7.466,-0.262C-8.171,-0.227 -8.718,-0.356 -9.105,-0.651C-9.718,-1.112 -10.049,-1.841 -10.1,-2.841C-10.153,-3.917 -9.896,-4.677 -9.33,-5.119C-8.931,-5.392 -8.399,-5.547 -7.733,-5.581L-0.68,-5.935L-0.678,-5.906C0.164,-5.948 0.857,-5.836 1.401,-5.568ZM9.764,13.721L10.611,13.561L10.306,12.781C10.104,12.261 10.061,11.81 10.179,11.432C10.363,10.795 10.832,10.338 11.584,10.066C12.41,9.71 13.068,9.706 13.557,10.054C13.901,10.254 14.174,10.613 14.377,11.133L15.441,13.554L15.455,13.818C15.798,14.783 15.971,15.501 15.976,15.973C15.917,16.388 15.74,16.761 15.442,17.089C15.107,17.441 14.665,17.639 14.117,17.686L5.972,18.595C5.367,18.665 4.882,18.592 4.518,18.374C3.931,18.032 3.584,17.39 3.478,16.452C3.373,15.515 3.572,14.798 4.078,14.302C4.397,14.011 4.858,13.81 5.462,13.701L6.902,13.629L6.714,9.897L6.195,-0.448C5.859,-0.47 5.573,-0.514 5.333,-0.58L6.009,12.878L5.363,12.91C4.543,13.011 3.927,13.259 3.515,13.652C3.104,14.085 2.843,14.55 2.73,15.047C2.506,16.059 2.626,17.084 3.091,18.122C3.375,18.697 3.907,19.121 4.687,19.397C4.33,19.729 3.829,19.901 3.181,19.914C2.196,19.866 1.364,19.534 0.686,18.921C-0.117,18.175 -0.283,17.231 0.19,16.088C1.217,12.304 1.68,8.206 1.576,3.791L1.315,-1.41C1.27,-2.311 1.303,-3.01 1.416,-3.506C1.694,-4.621 2.354,-5.351 3.398,-5.698C3.997,-5.885 4.768,-6.002 5.708,-6.049C5.977,-6.161 6.642,-6.214 7.703,-6.209C7.839,-6.216 7.977,-6.222 8.114,-6.229C8.441,-6.363 9.805,-6.579 12.207,-6.877C14.188,-7.31 15.419,-7.44 15.898,-7.269C16.302,-7.053 16.631,-6.764 16.885,-6.405C17.378,-5.565 17.589,-4.692 17.518,-3.785C17.393,-3.131 17.065,-2.603 16.536,-2.203L16.533,-2.262C16.267,-2.091 15.99,-1.94 15.702,-1.809L15.752,-0.809C16.1,6.127 16.852,11.136 18.009,14.221C18.572,15.685 18.807,16.626 18.71,17.043C18.576,17.502 18.359,17.886 18.061,18.196C17.366,18.82 16.549,19.185 15.611,19.29C14.869,19.367 14.277,19.112 13.835,18.526L14.364,18.499C15.126,18.421 15.711,18.156 16.121,17.703C16.571,17.269 16.821,16.775 16.872,16.221C16.951,15.452 16.514,14.001 15.563,11.869L15.565,11.898L15.156,10.799C14.864,10.087 14.496,9.586 14.049,9.293C13.402,8.934 12.634,8.893 11.745,9.174C11.352,6.031 11.11,2.783 11.021,-0.572L11.007,-0.835C10.694,-0.801 10.411,-0.767 10.158,-0.735L10.168,-0.529C10.235,1.982 10.501,5.318 10.965,9.477C10.121,9.893 9.571,10.471 9.314,11.21C9.165,11.767 9.236,12.403 9.527,13.115L9.764,13.721Z" style="fill:white;fill-rule:nonzero;stroke:rgb(1,1,2);stroke-width:1px;"/>
    </g>
    <g transform="matrix(2.66667,0,0,2.66667,226.183,72.5653)">
        <path d="M0,13.89C-0.681,14.395 -1.009,15.119 -0.981,16.06C-0.882,17.233 -0.516,18.276 0.119,19.187C0.035,19.485 -0.069,19.756 -0.194,19.998C-0.651,20.669 -1.468,21.035 -2.643,21.094C-3.8,21.132 -4.64,20.84 -5.162,20.218C-5.478,19.801 -5.653,19.23 -5.69,18.506L-5.908,14.157C-5.987,14.161 -6.035,14.174 -6.053,14.194C-6.516,14.373 -6.965,14.435 -7.399,14.379C-8.353,14.172 -9.202,13.673 -9.949,12.888C-10.521,12.052 -10.501,11.088 -9.888,9.996C-8.576,7.574 -7.581,5.482 -6.903,3.719L-7.844,3.766C-8.568,3.802 -9.145,3.674 -9.572,3.382C-10.164,2.94 -10.517,2.161 -10.631,1.048C-10.61,-0.073 -10.335,-0.862 -9.808,-1.32C-9.392,-1.636 -8.831,-1.812 -8.125,-1.847L-6.715,-1.918L-6.805,-3.71C-6.843,-4.474 -6.716,-5.08 -6.425,-5.527C-5.967,-6.198 -5.15,-6.563 -3.975,-6.622C-2.858,-6.678 -2.019,-6.385 -1.457,-5.747C-1.121,-5.311 -0.935,-4.731 -0.898,-4.006L-0.808,-2.214L-0.367,-2.237C0.338,-2.272 0.904,-2.152 1.33,-1.88C1.921,-1.438 2.275,-0.66 2.39,0.454C2.348,1.576 1.988,2.429 1.31,3.012C0.951,2.52 0.562,2.186 0.141,2.01C-0.843,1.588 -1.83,1.696 -2.819,2.336C-4.039,3.084 -4.682,3.961 -4.749,4.966C-4.795,5.617 -4.614,6.295 -4.205,7.001C-3.69,7.859 -3.177,8.697 -2.665,9.515C-2.095,10.686 -1.242,11.448 -0.104,11.803L0,13.89ZM-3.461,6.551C-3.785,5.978 -3.918,5.474 -3.861,5.038C-3.727,4.207 -3.249,3.555 -2.428,3.082C-1.686,2.613 -0.953,2.536 -0.23,2.854C0.173,3.049 0.544,3.414 0.885,3.947C1.526,4.956 2.147,5.985 2.75,7.035C3.09,7.568 3.233,8.071 3.179,8.544C3.022,9.338 2.544,9.991 1.745,10.503C0.941,10.916 0.208,10.992 -0.453,10.731C-0.855,10.555 -1.216,10.199 -1.538,9.665C-2.157,8.675 -2.798,7.638 -3.461,6.551ZM7.361,17.911L7.364,17.969C6.546,18.5 5.521,19.014 4.289,19.508C3.558,19.819 2.914,19.891 2.355,19.723C1.877,19.59 1.472,19.355 1.142,19.017C0.41,18.152 0.018,17.179 -0.036,16.101C-0.013,15 0.635,14.211 1.907,13.735C2.578,13.407 3.143,13.103 3.6,12.825L3.597,12.766C3.615,12.726 3.653,12.695 3.71,12.673C3.128,12.034 2.669,11.507 2.334,11.092C3.338,10.354 3.915,9.53 4.066,8.619C4.132,7.967 3.941,7.289 3.493,6.585C2.935,5.651 2.389,4.745 1.854,3.869C2.046,3.78 2.299,3.728 2.612,3.712L4.904,3.597L4.85,2.51L2.822,2.612C3.071,2.089 3.201,1.355 3.212,0.413C3.04,-1.071 2.576,-2.09 1.822,-2.64C1.801,-2.659 1.781,-2.668 1.762,-2.667L4.583,-2.808L4.515,-4.161C4.476,-4.944 4.602,-5.559 4.894,-6.006C5.389,-6.718 6.233,-7.105 7.428,-7.165C8.583,-7.242 9.443,-6.941 10.007,-6.262C10.363,-5.829 10.56,-5.231 10.599,-4.466L10.667,-3.113L13.84,-3.273C14.527,-3.288 15.062,-3.177 15.447,-2.943C16.06,-2.481 16.392,-1.741 16.442,-0.724C16.453,0.278 16.196,1.027 15.671,1.524C15.294,1.839 14.772,2.012 14.106,2.045L10.933,2.205L10.988,3.292L13.309,3.175C13.682,3.176 14.052,3.295 14.417,3.533C15.092,4.069 15.443,4.807 15.471,5.748C15.563,7.59 14.611,9.749 12.615,12.226C13.564,12.766 14.439,13.176 15.239,13.449C16.081,13.781 16.629,14.145 16.885,14.545C17.118,14.887 17.247,15.304 17.271,15.793C17.302,17.185 16.858,18.327 15.941,19.218C15.583,19.51 15.128,19.67 14.58,19.698C13.208,19.747 11.15,18.869 8.409,17.062C7.953,17.379 7.604,17.662 7.361,17.911ZM6.525,8.288C6.957,9.073 7.477,9.655 8.085,10.037C8.69,9.576 9.15,8.943 9.463,8.141L6.525,8.288Z" style="fill:white;fill-rule:nonzero;stroke:rgb(1,1,2);stroke-width:1px;"/>
    </g>
    <g transform="matrix(2.66667,0,0,2.66667,311.741,67.3375)">
        <path d="M0,15.036L3.497,14.86C3.595,14.855 3.702,14.85 3.82,14.844C3.795,15.139 3.915,16.136 4.176,17.831C4.335,19.04 4.277,19.858 4.005,20.285C3.45,20.961 2.641,21.295 1.58,21.29C0.518,21.245 -0.216,20.909 -0.621,20.281C-0.877,19.861 -1.013,19.318 -1.027,18.652C-0.316,16.77 0.026,15.564 0,15.036ZM4.779,14.589C4.93,14.463 5.091,14.338 5.261,14.211C6.015,14.763 6.726,15.012 7.391,14.958C7.955,14.852 8.529,14.549 9.113,14.048C9.165,14.301 9.601,15.555 10.42,17.811C10.591,18.471 10.59,19.041 10.418,19.52C9.908,20.312 9.155,20.763 8.159,20.871C7.104,20.984 6.326,20.757 5.827,20.194C5.493,19.817 5.281,19.298 5.189,18.635C4.81,16.179 4.674,14.83 4.779,14.589ZM-6.737,15.226C-6.38,15.307 -5.986,15.336 -5.554,15.315L-0.911,15.081C-0.872,15.492 -0.955,15.976 -1.162,16.537C-1.596,17.678 -2.059,18.821 -2.552,19.965C-2.833,20.628 -3.202,21.088 -3.661,21.347C-4.369,21.716 -5.263,21.722 -6.341,21.363C-7.245,20.956 -7.807,20.347 -8.023,19.533C-8.125,19.067 -8.036,18.502 -7.755,17.841C-7.405,16.998 -7.065,16.127 -6.737,15.226ZM9.987,13.266C10.246,12.96 10.495,12.623 10.731,12.257C10.984,11.813 11.169,11.578 11.285,11.552C11.51,12.131 11.812,12.645 12.188,13.098C13.108,14.23 14.392,14.755 16.038,14.672C16.365,15.324 16.674,16.005 16.965,16.717C17.234,17.371 17.292,17.949 17.14,18.447C16.905,19.244 16.27,19.885 15.233,20.369C14.27,20.731 13.452,20.683 12.781,20.227C12.375,19.972 12.039,19.517 11.77,18.863C10.523,15.548 9.929,13.683 9.987,13.266ZM5.759,13.568C5.986,13.007 6.085,12.423 6.055,11.814C5.967,10.857 5.695,10.124 5.237,9.617C5.344,9.415 5.454,9.244 5.564,9.1C5.572,8.864 5.814,8.586 6.289,8.267C7.095,7.5 7.476,6.677 7.432,5.795C7.361,5.189 7.068,4.624 6.551,4.1L5.308,2.807C5.732,2.276 6.241,2.035 6.833,2.083C6.836,1.768 6.84,1.464 6.845,1.169L6.786,1.142C6.802,1.083 6.81,1.043 6.809,1.024L5.957,1.067L5.929,1.098C5.828,1.043 5.767,1.007 5.747,0.988C5.159,0.626 4.839,-0.066 4.788,-1.084C4.758,-2.065 5.007,-2.785 5.534,-3.243C5.815,-3.512 6.19,-3.669 6.66,-3.712L6.643,-4.035C6.628,-4.723 6.739,-5.258 6.975,-5.643C7.435,-6.255 8.165,-6.587 9.164,-6.637C10.144,-6.686 10.883,-6.428 11.383,-5.864C11.697,-5.487 11.87,-4.965 11.904,-4.299L11.918,-4.006L13.064,-4.064C13.672,-4.074 14.169,-3.962 14.554,-3.725C15.125,-3.302 15.47,-2.505 15.588,-1.332C15.671,1.099 15.895,3.602 16.259,6.176C16.102,6.184 15.966,6.202 15.85,6.226C15.036,6.465 14.504,7.011 14.252,7.868L14.152,8.197L14.789,8.578L15.025,8.006C15.269,7.366 15.662,6.992 16.207,6.886C16.927,6.771 17.569,7.035 18.131,7.673C18.445,8.03 18.549,8.565 18.448,9.278C18.246,11.508 17.687,12.91 16.773,13.487C16.45,13.699 16.132,13.813 15.819,13.828C14.544,13.873 13.497,13.356 12.677,12.277C12.615,12.222 12.572,12.165 12.55,12.108C11.851,11.082 11.602,10.24 11.805,9.581C12.147,9.369 12.459,9.127 12.741,8.857C13.63,7.791 14.011,6.584 13.885,5.235C13.773,4.18 13.291,3.379 12.438,2.832C12.444,2.164 12.429,1.468 12.392,0.744L11.628,0.782C11.667,1.546 11.701,2.428 11.731,3.428C12.094,3.606 12.381,3.848 12.593,4.151C13.123,4.93 13.209,5.858 12.851,6.936C12.529,7.975 11.962,8.601 11.148,8.819C11.108,8.822 11.1,8.831 11.12,8.85C10.974,9.467 10.825,10.014 10.672,10.493C10.653,10.514 10.645,10.535 10.646,10.553C9.666,12.547 8.537,13.723 7.258,14.081C6.868,14.141 6.368,13.97 5.759,13.568ZM4.323,8.426C4.402,8.048 4.432,7.673 4.414,7.301C4.356,6.165 3.991,5.348 3.319,4.852C2.873,4.579 2.287,4.462 1.562,4.498L1.474,4.503C1.272,4.003 0.752,3.626 -0.085,3.373C-1.32,3.023 -2.515,3.083 -3.67,3.553C-4.246,3.817 -4.71,4.175 -5.06,4.624C-5.116,4.686 -5.181,4.759 -5.255,4.841C-6,4.878 -6.581,5.054 -6.997,5.369C-7.747,6.076 -7.995,7.187 -7.742,8.706C-8.064,8.545 -8.392,8.297 -8.722,7.961C-9.323,7.343 -9.548,6.765 -9.398,6.226C-9.3,5.849 -9.072,5.494 -8.715,5.161L-7.59,4.103C-7.848,4.057 -8.049,3.969 -8.193,3.839C-8.663,3.489 -8.917,2.924 -8.956,2.14C-8.978,1.315 -8.781,0.745 -8.364,0.431C-8.081,0.2 -7.675,0.071 -7.146,0.044L-4.766,-0.075L-4.801,-0.78L-6.006,-0.72C-6.535,-0.693 -6.962,-0.79 -7.287,-1.009C-7.758,-1.397 -8.013,-1.974 -8.051,-2.737C-8.071,-3.503 -7.874,-4.082 -7.461,-4.477C-7.158,-4.708 -6.743,-4.837 -6.213,-4.863L-4.597,-4.944C-4.599,-4.983 -4.591,-5.004 -4.571,-5.005C-4.055,-5.678 -3.239,-6.044 -2.122,-6.1C-1.006,-6.175 -0.166,-5.874 0.398,-5.195L2.132,-5.282C2.642,-5.288 3.059,-5.2 3.382,-5.021C3.854,-4.631 4.109,-4.055 4.147,-3.291C4.164,-2.566 3.967,-1.986 3.556,-1.553C3.235,-1.302 2.829,-1.163 2.34,-1.139L1.047,-1.074L1.083,-0.369L2.963,-0.463C3.474,-0.469 3.881,-0.381 4.184,-0.199C4.651,0.11 4.906,0.678 4.947,1.5C4.964,2.227 4.795,2.775 4.441,3.146L5.933,4.691C6.306,5.085 6.512,5.487 6.553,5.898C6.624,6.523 6.348,7.115 5.729,7.678C5.222,8.155 4.753,8.404 4.323,8.426ZM1.367,9.988L3.248,9.893C3.757,9.888 4.165,9.976 4.469,10.156C4.936,10.467 5.19,11.033 5.231,11.856C5.233,12.681 5.037,13.251 4.64,13.564C4.337,13.816 3.942,13.954 3.453,13.978L-6.422,14.474C-6.951,14.501 -7.368,14.403 -7.674,14.182C-8.143,13.834 -8.397,13.266 -8.437,12.483C-8.458,11.659 -8.261,11.09 -7.845,10.774C-7.561,10.545 -7.156,10.416 -6.627,10.389L-4.481,10.282L-4.505,9.812L-5.004,9.837C-5.534,9.863 -5.961,9.766 -6.286,9.547C-6.758,9.158 -7.012,8.581 -7.05,7.817C-7.069,7.052 -6.872,6.473 -6.46,6.079C-6.158,5.848 -5.742,5.719 -5.212,5.692L-4.537,5.659C-4.411,5.024 -3.973,4.57 -3.22,4.297C-2.335,3.938 -1.414,3.892 -0.458,4.159C0.141,4.344 0.604,4.753 0.929,5.384L1.605,5.35C2.115,5.345 2.532,5.432 2.855,5.611C3.327,6.001 3.582,6.577 3.62,7.341C3.637,8.067 3.439,8.646 3.03,9.079C2.708,9.331 2.303,9.47 1.813,9.494L1.343,9.518L1.367,9.988Z" style="fill:white;fill-rule:nonzero;stroke:rgb(1,1,2);stroke-width:1px;"/>
    </g>
    <g transform="matrix(2.66667,0,0,2.66667,398.661,103.946)">
        <path d="M0,-17.475C0.091,-17.617 0.324,-18.061 0.699,-18.808C1.269,-20.367 1.763,-21.286 2.181,-21.561C2.98,-22.074 4.017,-22.156 5.292,-21.807C6.388,-21.469 7.107,-20.857 7.446,-19.971C7.61,-19.429 7.585,-18.759 7.37,-17.963C7.352,-17.942 7.333,-17.902 7.317,-17.843L13.047,-18.13C14.083,-18.241 14.91,-18.018 15.526,-17.458C16.027,-16.875 16.332,-16.085 16.441,-15.09L17.074,-2.483C17.488,-2.445 17.827,-2.334 18.092,-2.15C18.804,-1.656 19.19,-0.811 19.25,0.383C19.289,1.542 18.988,2.4 18.349,2.962C17.896,3.32 17.306,3.517 16.581,3.553L-5.518,4.662C-6.303,4.681 -6.919,4.546 -7.365,4.253C-8.078,3.739 -8.464,2.894 -8.523,1.719C-8.603,0.525 -8.302,-0.335 -7.622,-0.859C-7.321,-1.13 -6.936,-1.288 -6.467,-1.33L-7.098,-13.909C-7.19,-14.963 -6.976,-15.77 -6.454,-16.326C-5.916,-16.963 -5.116,-17.277 -4.056,-17.272L0,-17.475ZM-1.218,-11.817L-0.699,-1.472L0.535,-1.534L0.016,-11.879L-1.218,-11.817ZM4.188,-12.088L4.708,-1.744L5.942,-1.806L5.423,-12.15L4.188,-12.088ZM9.713,-12.366L10.232,-2.021L11.466,-2.083L10.947,-12.428L9.713,-12.366Z" style="fill:white;fill-rule:nonzero;stroke:rgb(1,1,2);stroke-width:1px;"/>
    </g>
    <g transform="matrix(2.66667,0,0,2.66667,503.884,68.7927)">
        <path d="M0,6.837L-0.837,6.584C-1.739,8.966 -3.029,11.055 -4.707,12.847C-6.146,14.295 -7.868,15.599 -9.872,16.76C-10.5,17.164 -11.11,17.323 -11.705,17.234C-12.495,17.137 -13.221,16.574 -13.88,15.547C-14.859,13.671 -14.543,12.33 -12.934,11.523C-11.448,10.603 -10.104,9.583 -8.904,8.462C-7.323,6.693 -6.021,4.28 -4.995,1.224L-11.783,1.565C-12.528,1.602 -13.124,1.476 -13.571,1.184C-14.245,0.669 -14.61,-0.148 -14.666,-1.266C-14.721,-2.363 -14.438,-3.191 -13.818,-3.754C-13.382,-4.069 -12.802,-4.246 -12.077,-4.283L-5.024,-4.637L-5.161,-7.37C-5.202,-8.173 -5.056,-8.799 -4.726,-9.247C-4.172,-9.962 -3.337,-10.349 -2.22,-10.405C-0.968,-10.486 -0.088,-10.187 0.417,-9.505C0.753,-9.071 0.941,-8.461 0.98,-7.678L1.118,-4.945L8.142,-5.298C8.866,-5.334 9.451,-5.215 9.897,-4.944C10.571,-4.427 10.936,-3.612 10.992,-2.495C11.047,-1.397 10.765,-0.567 10.145,-0.007C9.729,0.329 9.159,0.514 8.435,0.55L1.764,0.885C1.785,0.924 1.808,0.982 1.832,1.059C2.987,4.909 5.53,7.826 9.458,9.808C10.906,10.463 11.756,10.97 12.01,11.331C12.42,12.076 12.447,12.998 12.09,14.096C11.637,15.257 11.024,15.946 10.25,16.162C9.707,16.307 9.075,16.251 8.355,15.992C4.448,14.441 1.325,12.103 -1.012,8.979C-0.956,8.917 -0.92,8.857 -0.903,8.796C-0.581,8.172 -0.28,7.519 0,6.837Z" style="fill:white;fill-rule:nonzero;stroke:rgb(1,1,2);stroke-width:1px;"/>
    </g>
    <g transform="matrix(2.66667,0,0,2.66667,599.104,41.9634)">
        <path d="M0,23.708C0.076,23.271 0.101,22.78 0.073,22.231L-0.436,12.093C-0.554,11.313 -0.722,10.712 -0.939,10.292L-1.134,6.412C-0.764,5.962 -0.533,5.459 -0.443,4.905C-0.395,4.313 -0.689,3.523 -1.329,2.533L-1.33,2.504C-0.939,1.699 -0.95,0.687 -1.364,-0.529C-1.28,-0.808 -1.175,-1.048 -1.047,-1.251C-0.549,-1.905 0.229,-2.259 1.286,-2.313C2.404,-2.348 3.213,-2.074 3.713,-1.49C4.028,-1.095 4.204,-0.533 4.24,0.191L5.015,15.619C4.475,15.824 4.106,16.52 3.912,17.707L3.747,18.541L4.524,18.767L4.745,17.872C4.869,17.218 5.1,16.724 5.437,16.394C5.962,15.916 6.761,15.777 7.831,15.979C8.762,16.129 9.421,16.557 9.811,17.264C9.988,17.668 10.036,18.225 9.953,18.936L9.748,20.714C9.629,21.467 9.454,22.094 9.224,22.597C9.042,22.9 8.889,23.153 8.761,23.356C8.246,24.05 7.01,24.475 5.055,24.632L2.145,24.778C1.181,24.748 0.466,24.392 0,23.708ZM-7.04,4.381L-11.565,4.608L-11.709,4.086C-12.022,4.102 -12.326,4.117 -12.62,4.132C-12.71,4.293 -12.79,4.474 -12.858,4.673L-14.533,4.757C-15.239,4.793 -15.77,4.967 -16.127,5.279C-16.748,5.822 -17.035,6.563 -16.988,7.503C-17.653,7.163 -18.04,6.702 -18.147,6.117C-18.227,5.709 -18.153,5.234 -17.924,4.691C-17.838,4.452 -17.742,4.211 -17.637,3.97C-16.63,1.327 -15.915,-0.063 -15.489,-0.203C-15.146,-0.416 -14.671,-0.528 -14.063,-0.54C-10.121,-0.659 -7.005,-0.992 -4.715,-1.539C-4.113,-1.687 -3.621,-1.672 -3.239,-1.496C-2.613,-1.134 -2.188,-0.517 -1.968,0.356C-1.809,1.173 -1.962,1.858 -2.424,2.411C-1.694,3.671 -1.33,4.478 -1.331,4.831C-1.41,5.209 -1.654,5.643 -2.061,6.134L-2.065,6.047C-2.651,4.937 -3.565,4.345 -4.806,4.269L-6.069,4.333C-6.135,4.199 -6.199,4.093 -6.262,4.018L-6.402,3.583C-6.713,3.638 -6.996,3.682 -7.25,3.714L-7.04,4.381ZM-4.888,15.558C-5.211,15.377 -5.676,15.302 -6.283,15.333L-12.102,15.625C-12.808,15.66 -13.299,15.832 -13.579,16.141C-13.756,15.737 -13.768,15.295 -13.616,14.817L-12.796,12.949L-13.59,12.989L-14.436,14.916C-14.539,15.198 -14.584,15.483 -14.569,15.778C-14.545,16.267 -14.408,16.625 -14.162,16.847C-14.285,17.148 -14.338,17.456 -14.322,17.769C-14.28,18.61 -13.869,19.543 -13.092,20.564C-13.281,20.711 -13.499,20.86 -13.747,21.01C-14.257,21.409 -14.498,21.902 -14.468,22.489C-14.443,23 -14.173,23.486 -13.658,23.951C-13.144,24.417 -12.475,24.628 -11.652,24.587C-11.721,24.787 -11.791,24.958 -11.862,25.099C-12.227,25.667 -12.908,25.977 -13.908,26.026C-14.889,26.056 -15.597,25.816 -16.035,25.308C-16.329,24.95 -16.49,24.466 -16.52,23.86L-17.063,13.045C-17.116,11.987 -16.937,11.271 -16.523,10.897C-16.058,10.383 -15.354,10.131 -14.41,10.143L-13.911,10.118L-13.912,10.088L-12.942,10.04C-13.069,9.476 -12.882,8.888 -12.383,8.273C-11.887,7.581 -11.315,7.248 -10.665,7.273C-10.271,7.293 -9.86,7.469 -9.431,7.801L-7.928,8.992L-7.373,8.316L-8.905,7.127C-9.498,6.665 -10.07,6.419 -10.622,6.388C-11.075,6.352 -11.501,6.461 -11.901,6.716C-13.092,7.642 -13.726,8.518 -13.802,9.347L-14.302,9.372C-14.792,9.396 -15.169,9.316 -15.433,9.133C-15.878,8.881 -16.119,8.372 -16.158,7.607C-16.175,6.862 -15.977,6.323 -15.562,5.987C-15.317,5.78 -14.958,5.663 -14.489,5.639L-4.732,5.149C-3.786,5.22 -3.137,5.629 -2.785,6.377C-2.478,7.029 -2.548,7.779 -2.997,8.627L-3.622,9.66L-3.446,9.651L-3.444,9.68C-3.051,9.681 -2.61,9.875 -2.119,10.262C-1.667,10.672 -1.388,11.316 -1.286,12.195L-0.771,22.45C-0.746,23.333 -0.897,24.047 -1.223,24.595C-1.555,25.022 -2.288,25.295 -3.42,25.412L-6.066,25.545C-6.595,25.552 -7.022,25.464 -7.345,25.284C-7.814,24.955 -8.072,24.319 -8.119,23.379C-7.609,23.746 -7.194,23.99 -6.874,24.112C-5.958,24.379 -5.126,24.308 -4.38,23.898C-3.47,23.264 -3.034,22.563 -3.072,21.799C-3.109,21.448 -3.202,21.178 -3.348,20.988C-3.658,20.671 -4.085,20.377 -4.63,20.11C-3.98,18.958 -3.675,17.99 -3.715,17.206C-3.741,16.678 -3.877,16.301 -4.125,16.078C-4.107,16.038 -4.089,16.008 -4.07,15.987C-3.727,15.008 -4.04,13.865 -5.009,12.558L-5.949,12.605C-5.023,13.836 -4.669,14.819 -4.888,15.558ZM-8.913,12.842C-8.915,12.803 -8.907,12.773 -8.888,12.752L-9.623,12.79C-9.64,12.83 -9.648,12.859 -9.647,12.879C-9.809,13.182 -9.98,13.485 -10.162,13.789L-8.604,13.71C-8.86,13.311 -8.963,13.021 -8.913,12.842ZM-12.063,16.389L-6.245,16.096C-5.775,16.073 -5.348,16.17 -4.964,16.386C-4.642,16.545 -4.47,16.833 -4.45,17.243C-4.4,18.223 -4.819,19.266 -5.706,20.37C-5.624,20.445 -5.523,20.509 -5.402,20.562C-4.354,21.098 -3.822,21.524 -3.806,21.836C-3.813,22.092 -3.898,22.352 -4.062,22.615C-4.524,23.189 -5.107,23.493 -5.813,23.528C-6.441,23.54 -7.441,22.981 -8.813,21.853C-10.124,23.155 -11.101,23.823 -11.748,23.855C-12.415,23.869 -12.968,23.613 -13.407,23.084C-13.598,22.8 -13.688,22.588 -13.675,22.449C-13.718,21.98 -13.453,21.584 -12.88,21.261C-12.611,21.13 -12.326,20.938 -12.024,20.687C-12.63,19.991 -13.031,19.432 -13.229,19.01C-13.608,18.106 -13.66,17.461 -13.385,17.074C-13.111,16.647 -12.671,16.419 -12.063,16.389ZM-9.933,18.343C-9.641,18.683 -9.313,18.97 -8.946,19.207C-8.607,18.935 -8.329,18.617 -8.111,18.252L-9.933,18.343Z" style="fill:white;fill-rule:nonzero;stroke:rgb(1,1,2);stroke-width:1px;"/>
    </g>
    <g transform="matrix(2.66667,0,0,2.66667,650.571,81.9463)">
        <path d="M0,-10.225C-0.214,-10.175 -0.357,-10.109 -0.432,-10.027C-0.939,-9.569 -1.17,-8.89 -1.125,-7.989C-1.078,-7.049 -0.779,-6.387 -0.23,-6.002C0.137,-5.744 0.624,-5.632 1.231,-5.662L2.789,-5.74L3.387,6.192C3.405,6.937 3.268,7.533 2.976,7.979C2.519,8.65 1.703,9.015 0.527,9.074C-0.63,9.113 -1.47,8.82 -1.992,8.199C-2.307,7.782 -2.483,7.212 -2.52,6.488L-3.617,-15.376C-3.655,-16.14 -3.528,-16.746 -3.237,-17.193C-2.961,-17.579 -2.612,-17.852 -2.188,-18.011C-0.976,-18.505 0.056,-18.508 0.905,-18.018C0.456,-17.976 0.089,-17.85 -0.195,-17.64C-0.707,-17.261 -0.938,-16.601 -0.891,-15.66C-0.828,-14.78 -0.549,-14.135 -0.058,-13.729C-0.265,-13.541 -0.4,-13.299 -0.463,-13.002C-0.8,-11.884 -0.646,-10.959 0,-10.225ZM16.636,-6.317L18.751,-6.423C19.339,-6.453 19.803,-6.604 20.143,-6.877C20.425,-7.127 20.625,-7.431 20.745,-7.791C20.882,-8.583 20.844,-9.338 20.631,-10.054C20.348,-10.608 20.027,-10.937 19.668,-11.036C19.912,-11.285 20.066,-11.537 20.132,-11.797C20.448,-12.911 20.263,-13.865 19.576,-14.656C20.025,-15.09 20.229,-15.719 20.188,-16.542C20.145,-17.403 19.847,-18.056 19.294,-18.501C18.949,-18.72 18.483,-18.813 17.896,-18.783L17.102,-18.744C17.459,-19.056 18.079,-19.235 18.961,-19.279C20.136,-19.338 20.976,-19.046 21.479,-18.404C21.815,-17.969 22.001,-17.389 22.038,-16.664L23.103,4.553C23.129,5.475 22.884,6.273 22.369,6.946C21.944,7.48 21.174,7.802 20.061,7.917L16.769,8.082C16.064,8.117 15.517,7.987 15.129,7.693C14.517,7.233 14.186,6.503 14.135,5.504C14.081,4.427 14.338,3.667 14.905,3.227C15.304,2.952 15.836,2.797 16.502,2.763L17.09,2.734L16.636,-6.317ZM2.356,-9.666L2.313,-10.518L1.695,-10.488C1.284,-10.467 0.976,-10.539 0.771,-10.706C0.423,-10.984 0.237,-11.387 0.21,-11.916C0.162,-12.482 0.308,-12.903 0.647,-13.174C0.875,-13.343 1.174,-13.436 1.546,-13.455L2.164,-13.486L2.122,-14.339L1.503,-14.308C1.329,-14.279 1.183,-14.251 1.066,-14.227C0.808,-14.273 0.608,-14.351 0.465,-14.462C0.117,-14.739 -0.07,-15.142 -0.096,-15.67C-0.145,-16.239 0.001,-16.659 0.341,-16.931C0.568,-17.098 0.868,-17.192 1.24,-17.211L7.706,-17.536C8.098,-17.536 8.396,-17.472 8.599,-17.346C8.947,-17.068 9.134,-16.665 9.161,-16.135C9.167,-15.606 9.021,-15.185 8.723,-14.877C8.494,-14.727 8.165,-14.642 7.734,-14.621L6.558,-14.561L6.601,-13.709L7.777,-13.768C8.169,-13.768 8.467,-13.704 8.67,-13.577C9.018,-13.301 9.206,-12.897 9.232,-12.369C9.239,-11.838 9.093,-11.419 8.794,-11.109C8.568,-10.92 8.278,-10.818 7.926,-10.8L6.75,-10.741L6.793,-9.889L7.969,-9.948C8.341,-9.947 8.65,-9.884 8.892,-9.758C9.238,-9.501 9.426,-9.078 9.456,-8.491C9.465,-7.922 9.32,-7.482 9.021,-7.173C8.795,-6.985 8.495,-6.881 8.124,-6.863L1.188,-6.515C0.796,-6.495 0.479,-6.567 0.235,-6.732C-0.115,-7.028 -0.303,-7.451 -0.33,-8C-0.38,-8.605 -0.235,-9.045 0.105,-9.317C0.352,-9.487 0.661,-9.581 1.033,-9.6L2.356,-9.666ZM12.941,-10.08L12.893,-11.05L11.688,-10.989C11.276,-10.968 10.967,-11.041 10.763,-11.208C10.415,-11.485 10.228,-11.888 10.201,-12.417C10.153,-12.984 10.299,-13.404 10.639,-13.676C10.866,-13.845 11.166,-13.938 11.539,-13.957L12.744,-14.017L12.701,-14.87L11.496,-14.809C11.281,-14.779 11.086,-14.748 10.911,-14.721C10.424,-15.031 10.166,-15.479 10.136,-16.067C10.088,-16.634 10.234,-17.054 10.574,-17.326C10.801,-17.495 11.1,-17.588 11.473,-17.607L17.938,-17.932C18.331,-17.932 18.629,-17.869 18.832,-17.741C19.18,-17.463 19.366,-17.06 19.393,-16.531C19.421,-15.963 19.181,-15.48 18.67,-15.081C18.492,-15.131 18.254,-15.149 17.96,-15.134L17.138,-15.093L17.181,-14.24L18.003,-14.281C18.396,-14.282 18.694,-14.217 18.897,-14.09C19.244,-13.814 19.432,-13.41 19.458,-12.882C19.466,-12.351 19.319,-11.932 19.021,-11.622C18.794,-11.434 18.505,-11.331 18.152,-11.313L17.33,-11.272L17.378,-10.303L18.554,-10.362C18.927,-10.361 19.234,-10.297 19.477,-10.173C19.823,-9.914 20.012,-9.492 20.041,-8.904C20.05,-8.334 19.905,-7.895 19.606,-7.586C19.38,-7.398 19.081,-7.294 18.708,-7.276L11.891,-6.933C11.499,-6.913 11.181,-6.987 10.938,-7.151C10.588,-7.447 10.4,-7.87 10.373,-8.419C10.323,-9.024 10.467,-9.464 10.808,-9.738C11.054,-9.906 11.364,-10 11.736,-10.019L12.941,-10.08Z" style="fill:white;fill-rule:nonzero;stroke:rgb(1,1,2);stroke-width:1px;"/>
    </g>
</svg>
